<svg width="32" height="32" viewBox="0 0 32 32" fill="none" xmlns="http://www.w3.org/2000/svg">
    <path d="M25.951 15.1919L17.951 7.19185C17.5047 6.74554 16.7811 6.74554 16.3348 7.19185C15.9228 7.60383 15.8911 8.2521 16.2397 8.70043L16.3348 8.8081L22.3841 14.8571H6.85721C6.27111 14.8571 5.78806 15.2983 5.72204 15.8667L5.71436 16C5.71436 16.5861 6.15554 17.0691 6.72393 17.1351L6.85721 17.1428H22.3841L16.3348 23.1919C15.9228 23.6038 15.8911 24.2521 16.2397 24.7004L16.3348 24.8081C16.7468 25.2201 17.3951 25.2518 17.8434 24.9032L17.951 24.8081L25.951 16.8081L26.0614 16.6803L26.1433 16.5532L26.2044 16.4244L26.2448 16.304L26.2732 16.1697L26.2812 16.102L26.2856 15.9781L26.2812 15.898L26.2627 15.7706L26.2289 15.6432L26.1787 15.5163L26.1189 15.4049L26.0426 15.2951C26.0142 15.2589 25.9836 15.2244 25.951 15.1919L17.951 7.19185L25.951 15.1919Z" fill="#7776BC" />
</svg>
