<svg width="167" height="51" viewBox="0 0 167 51" fill="none" xmlns="http://www.w3.org/2000/svg">
<path d="M21.08 17.3125C21.7457 16.6125 21.6347 16.1458 21.4961 16H28.1522C28.0135 16.2917 27.8194 16.9625 28.1522 17.3125C28.5682 17.75 29.4002 18.625 29.8162 19.5C30.149 20.2 29.9549 22.125 29.8162 23H19V20.375C19 19.5 20.248 18.1875 21.08 17.3125Z" fill="#E60000"/>
<path fill-rule="evenodd" clip-rule="evenodd" d="M18.7008 0H29.8491L33 17H16L18.7008 0ZM20.0928 1.61905L17.9064 15.381H31.0435L28.4928 1.61905H20.0928Z" fill="#E60000"/>
<path fill-rule="evenodd" clip-rule="evenodd" d="M20 13.8892L21.0017 3L23 3.11083L21.9983 14L20 13.8892Z" fill="#E60000"/>
<path fill-rule="evenodd" clip-rule="evenodd" d="M28 13.8892L27.3322 3L26 3.11083L26.6678 14L28 13.8892Z" fill="#E60000"/>
<path fill-rule="evenodd" clip-rule="evenodd" d="M25 14V3H23V14H25Z" fill="#E60000"/>
<path d="M0 22H47V30H0V22Z" fill="#E60000"/>
<path d="M0 31H47V40H0V31Z" fill="#E60000"/>
<path d="M0 40H47V49H0V40Z" fill="#E60000"/>
<path d="M3 43H10V51H3V43Z" fill="#E60000"/>
<path d="M37 43H45V51H37V43Z" fill="#E60000"/>
<path d="M5 26H13V27H5V26Z" fill="white"/>
<path d="M5 35H13V36H5V35Z" fill="white"/>
<path d="M5 44H13V45H5V44Z" fill="white"/>
<path d="M35 26H43V27H35V26Z" fill="white"/>
<path d="M35 35H43V36H35V35Z" fill="white"/>
<path d="M35 44H43V45H35V44Z" fill="white"/>
<path d="M70.6488 13L67.129 23.678L70.9847 36.6494H64.6315L62.1487 26.5119V36.6494H56V13H62.1487V22.1881L64.8798 13H70.6488Z" fill="black"/>
<path d="M85.2391 24.0724V28.8198C85.2391 30.563 85.1515 31.8436 84.9762 32.6616C84.801 33.4699 84.4261 34.2295 83.8517 34.9404C83.2772 35.6415 82.5372 36.1625 81.6317 36.5033C80.7359 36.8344 79.7039 37 78.5355 37C77.2307 37 76.1256 36.8588 75.2201 36.5764C74.3146 36.2842 73.6087 35.8509 73.1024 35.2763C72.6058 34.692 72.2505 33.9909 72.0362 33.1729C71.822 32.3451 71.7149 31.1083 71.7149 29.4626V24.496C71.7149 22.6945 71.9097 21.2873 72.2991 20.2745C72.6886 19.2617 73.3896 18.4486 74.4023 17.8351C75.4149 17.2215 76.7098 16.9148 78.2872 16.9148C79.6114 16.9148 80.7457 17.1144 81.6901 17.5137C82.6443 17.9032 83.3794 18.4145 83.8955 19.0475C84.4115 19.6805 84.762 20.3329 84.947 21.0049C85.1418 21.6768 85.2391 22.6993 85.2391 24.0724ZM79.3387 22.6117C79.3387 21.6184 79.2852 20.9951 79.1781 20.7419C79.071 20.479 78.8422 20.3475 78.4916 20.3475C78.1411 20.3475 77.9074 20.479 77.7906 20.7419C77.6738 20.9951 77.6153 21.6184 77.6153 22.6117V31.3615C77.6153 32.2769 77.6738 32.8758 77.7906 33.1582C77.9074 33.4309 78.1363 33.5673 78.477 33.5673C78.8276 33.5673 79.0564 33.4407 79.1635 33.1875C79.2803 32.9343 79.3387 32.3889 79.3387 31.5514V22.6117Z" fill="black"/>
<path d="M93.0236 17.2654L92.9213 19.1059C93.379 18.3755 93.9242 17.8302 94.5571 17.4699C95.19 17.0998 95.9105 16.9148 96.7186 16.9148C98.296 16.9148 99.5374 17.6452 100.443 19.1059C100.939 18.3755 101.499 17.8302 102.122 17.4699C102.746 17.0998 103.437 16.9148 104.196 16.9148C105.199 16.9148 106.027 17.1582 106.679 17.6452C107.341 18.1321 107.765 18.731 107.95 19.4419C108.135 20.143 108.227 21.2873 108.227 22.8746V36.6494H102.502V24.014C102.502 22.3585 102.444 21.336 102.327 20.9464C102.22 20.5472 101.962 20.3475 101.553 20.3475C101.134 20.3475 100.862 20.5423 100.735 20.9318C100.618 21.3214 100.56 22.3488 100.56 24.014V36.6494H94.8346V24.3354C94.8346 22.4364 94.7859 21.297 94.6885 20.9172C94.6009 20.5374 94.3478 20.3475 93.9291 20.3475C93.6662 20.3475 93.4423 20.4498 93.2573 20.6543C93.0723 20.8491 92.97 21.0925 92.9506 21.3847C92.9311 21.6671 92.9213 22.2757 92.9213 23.2106V36.6494H87.1962V17.2654H93.0236Z" fill="black"/>
<path d="M123.621 24.0724V28.8198C123.621 30.563 123.533 31.8436 123.358 32.6616C123.183 33.4699 122.808 34.2295 122.234 34.9404C121.659 35.6415 120.919 36.1625 120.014 36.5033C119.118 36.8344 118.086 37 116.917 37C115.613 37 114.507 36.8588 113.602 36.5764C112.696 36.2842 111.991 35.8509 111.484 35.2763C110.988 34.692 110.632 33.9909 110.418 33.1729C110.204 32.3451 110.097 31.1083 110.097 29.4626V24.496C110.097 22.6945 110.292 21.2873 110.681 20.2745C111.07 19.2617 111.771 18.4486 112.784 17.8351C113.797 17.2215 115.092 16.9148 116.669 16.9148C117.993 16.9148 119.128 17.1144 120.072 17.5137C121.026 17.9032 121.761 18.4145 122.277 19.0475C122.793 19.6805 123.144 20.3329 123.329 21.0049C123.524 21.6768 123.621 22.6993 123.621 24.0724ZM117.721 22.6117C117.721 21.6184 117.667 20.9951 117.56 20.7419C117.453 20.479 117.224 20.3475 116.873 20.3475C116.523 20.3475 116.289 20.479 116.172 20.7419C116.056 20.9951 115.997 21.6184 115.997 22.6117V31.3615C115.997 32.2769 116.056 32.8758 116.172 33.1582C116.289 33.4309 116.518 33.5673 116.859 33.5673C117.209 33.5673 117.438 33.4407 117.545 33.1875C117.662 32.9343 117.721 32.3889 117.721 31.5514V22.6117Z" fill="black"/>
<path d="M139 13V36.6494H133.1V35.2471C132.535 35.8314 131.941 36.2696 131.318 36.5618C130.695 36.8539 130.042 37 129.361 37C128.445 37 127.652 36.7614 126.98 36.2842C126.308 35.7973 125.875 35.2374 125.68 34.6044C125.495 33.9714 125.403 32.9391 125.403 31.5076V22.4364C125.403 20.9464 125.495 19.8898 125.68 19.2666C125.875 18.6433 126.313 18.098 126.995 17.6306C127.676 17.1534 128.489 16.9148 129.434 16.9148C130.164 16.9148 130.831 17.0463 131.435 17.3092C132.048 17.5721 132.603 17.9665 133.1 18.4924V13H139ZM133.1 22.1442C133.1 21.4334 133.036 20.9562 132.91 20.7127C132.793 20.4693 132.554 20.3475 132.194 20.3475C131.844 20.3475 131.605 20.4595 131.478 20.6835C131.362 20.8977 131.303 21.3847 131.303 22.1442V31.6391C131.303 32.4279 131.362 32.9489 131.478 33.2021C131.595 33.4455 131.819 33.5673 132.15 33.5673C132.53 33.5673 132.783 33.4309 132.91 33.1582C133.036 32.8758 133.1 32.1942 133.1 31.1132V22.1442Z" fill="black"/>
<path d="M151.465 13.4426V18.4825L147.634 36.5574H141.663L145.926 17.5973H140V13.4426H151.465Z" fill="#E60000"/>
<path d="M164.252 23.4509C165.134 23.7936 165.812 24.3076 166.287 24.9929C166.762 25.6686 167 27.2867 167 29.8471C167 31.7127 166.812 33.088 166.436 33.9732C166.059 34.8584 165.327 35.5866 164.238 36.1576C163.149 36.7192 161.688 37 159.856 37C158.074 37 156.663 36.7287 155.624 36.1862C154.584 35.6437 153.837 34.925 153.381 34.0303C152.936 33.1356 152.713 31.646 152.713 29.5616C152.713 28.1624 152.822 26.9488 153.04 25.9209C153.267 24.8929 153.97 24.0696 155.149 23.4509C154.406 23.1083 153.847 22.5657 153.47 21.8233C153.104 21.0714 152.921 20.1196 152.921 18.9679C152.921 16.9786 153.495 15.489 154.644 14.4991C155.792 13.4997 157.51 13 159.797 13C162.441 13 164.267 13.5283 165.277 14.5848C166.287 15.6413 166.792 17.1499 166.792 19.1106C166.792 20.3575 166.624 21.257 166.287 21.809C165.96 22.3611 165.282 22.9084 164.252 23.4509ZM160.881 18.4825C160.881 17.702 160.807 17.188 160.658 16.9405C160.52 16.6835 160.248 16.555 159.842 16.555C159.446 16.555 159.178 16.693 159.04 16.9691C158.901 17.2356 158.832 17.74 158.832 18.4825V20.2385C158.832 20.9334 158.911 21.414 159.069 21.6805C159.228 21.9471 159.495 22.0803 159.871 22.0803C160.267 22.0803 160.535 21.9518 160.673 21.6948C160.812 21.4283 160.881 20.8858 160.881 20.0672V18.4825ZM161 28.091C161 27.2058 160.906 26.6205 160.718 26.3349C160.53 26.0399 160.233 25.8923 159.827 25.8923C159.431 25.8923 159.144 26.0351 158.965 26.3206C158.797 26.5967 158.713 27.1868 158.713 28.091V31.0892C158.713 32.0886 158.807 32.7311 158.995 33.0167C159.193 33.3022 159.5 33.445 159.916 33.445C160.342 33.445 160.629 33.3022 160.777 33.0167C160.926 32.7216 161 32.0648 161 31.0464V28.091Z" fill="#E60000"/>
</svg>
