<svg width="47" height="37" viewBox="0 0 47 37" fill="none" xmlns="http://www.w3.org/2000/svg">
<g clip-path="url(#clip0)">
<path d="M45.8181 36.5049H46.0593V36.7524H45.8181V36.5049ZM45.8181 36.9999H46.0593C46.0804 36.9623 46.0916 36.9196 46.0916 36.8762C46.0916 36.8327 46.0804 36.7901 46.0593 36.7524C46.1232 36.7524 46.1846 36.7264 46.2298 36.6799C46.275 36.6335 46.3004 36.5706 46.3004 36.5049C46.3004 36.4393 46.275 36.3764 46.2298 36.3299C46.1846 36.2835 46.1232 36.2575 46.0593 36.2575H45.8181V36.5049C45.7542 36.5049 45.6928 36.531 45.6476 36.5774C45.6024 36.6238 45.577 36.6868 45.577 36.7524C45.577 36.8181 45.6024 36.881 45.6476 36.9274C45.6928 36.9739 45.7542 36.9999 45.8181 36.9999ZM45.8181 36.2575C45.8821 36.1918 45.9688 36.1549 46.0593 36.1549C46.1497 36.1549 46.2365 36.1918 46.3004 36.2575C46.3644 36.3231 46.4003 36.4121 46.4003 36.5049C46.4003 36.5978 46.3644 36.6868 46.3004 36.7524H46.0593C45.986 36.7959 45.9028 36.8187 45.8181 36.8187C45.7335 36.8187 45.6503 36.7959 45.577 36.7524V36.5049C45.5566 36.4238 45.5566 36.3386 45.577 36.2575H46.0593H45.8181ZM10.6103 34.7725C10.6327 34.4519 10.767 34.1503 10.9884 33.9231C11.2099 33.6958 11.5037 33.558 11.8161 33.535C12.5395 33.535 12.7807 34.03 12.7807 34.7725C12.808 35.067 12.7226 35.3608 12.5426 35.5918C12.3626 35.8227 12.102 35.9727 11.8161 36.01C11.5037 35.987 11.2099 35.8492 10.9884 35.6219C10.767 35.3947 10.6327 35.0931 10.6103 34.7725ZM13.7453 34.7725V32.7926H12.7807V33.2876C12.6312 33.1143 12.4443 32.9794 12.235 32.8934C12.0256 32.8075 11.7996 32.773 11.5749 32.7926C11.3207 32.7892 11.0684 32.8382 10.8328 32.9365C10.5973 33.0348 10.3834 33.1805 10.2036 33.3651C10.0238 33.5496 9.88179 33.7692 9.78599 34.0109C9.69018 34.2526 9.6425 34.5116 9.64574 34.7725C9.63126 35.3259 9.82265 35.8641 10.181 36.2779C10.5393 36.6916 11.0378 36.9498 11.5749 36.9999C11.8235 37.0046 12.0684 36.9375 12.2816 36.8062C12.4948 36.6749 12.6677 36.4848 12.7807 36.2575V36.7524H13.7453V34.7725ZM41.4774 34.7725C41.4998 34.4519 41.6341 34.1503 41.8555 33.9231C42.077 33.6958 42.3708 33.558 42.6832 33.535C42.9217 33.535 43.1548 33.6076 43.3531 33.7436C43.5513 33.8796 43.7059 34.0728 43.7972 34.2989C43.8884 34.5251 43.9123 34.7739 43.8658 35.0139C43.8192 35.254 43.7044 35.4745 43.5358 35.6475C43.3672 35.8206 43.1523 35.9384 42.9184 35.9862C42.6845 36.0339 42.4421 36.0094 42.2218 35.9158C42.0014 35.8221 41.8131 35.6635 41.6806 35.46C41.5482 35.2565 41.4774 35.0172 41.4774 34.7725ZM44.6124 34.7725V31.3076H43.6478V33.2876C43.4983 33.1143 43.3114 32.9794 43.1021 32.8934C42.8927 32.8075 42.6667 32.773 42.442 32.7926C42.1878 32.7892 41.9355 32.8382 41.7 32.9365C41.4644 33.0348 41.2505 33.1805 41.0707 33.3651C40.8909 33.5496 40.7489 33.7692 40.6531 34.0109C40.5573 34.2526 40.5096 34.5116 40.5128 34.7725C40.4984 35.3259 40.6898 35.8641 41.0481 36.2779C41.4065 36.6916 41.9049 36.9498 42.442 36.9999C42.6957 37.0382 42.9544 36.9852 43.1742 36.8498C43.394 36.7144 43.5614 36.5051 43.6478 36.2575V36.7524H44.6124V34.7725ZM23.8735 33.535C24.003 33.5238 24.1333 33.5416 24.2553 33.5874C24.3773 33.6331 24.4881 33.7057 24.58 33.8C24.6719 33.8942 24.7426 34.008 24.7872 34.1332C24.8317 34.2584 24.8491 34.3922 24.8381 34.525H22.9089C22.8979 34.3922 22.9153 34.2584 22.9599 34.1332C23.0045 34.008 23.0752 33.8942 23.1671 33.8C23.2589 33.7057 23.3698 33.6331 23.4918 33.5874C23.6138 33.5416 23.7441 33.5238 23.8735 33.535ZM23.8735 32.7926C23.6146 32.77 23.3541 32.8057 23.11 32.8972C22.866 32.9887 22.6443 33.1338 22.4606 33.3224C22.2769 33.511 22.1355 33.7384 22.0463 33.9889C21.9572 34.2394 21.9224 34.5068 21.9444 34.7725C21.9299 35.3259 22.1213 35.8641 22.4796 36.2779C22.838 36.6916 23.3364 36.9498 23.8735 36.9999C24.1905 37.0087 24.5055 36.9468 24.7969 36.8186C25.0883 36.6905 25.3492 36.499 25.5616 36.2575L25.0793 35.7625L23.8735 36.01C23.3912 36.01 22.9089 36.01 22.9089 35.2675H25.3204V34.7725C25.3512 34.5258 25.3305 34.2753 25.2599 34.0374C25.1892 33.7995 25.0702 33.5798 24.9106 33.3926C24.7511 33.2055 24.5546 33.0552 24.3343 32.9518C24.1139 32.8483 23.8747 32.7941 23.6324 32.7926H23.8735ZM33.5195 34.7725C33.5419 34.4519 33.6761 34.1503 33.8976 33.9231C34.119 33.6958 34.4129 33.558 34.7253 33.535C34.9637 33.535 35.1969 33.6076 35.3951 33.7436C35.5934 33.8796 35.748 34.0728 35.8392 34.2989C35.9305 34.5251 35.9544 34.7739 35.9078 35.0139C35.8613 35.254 35.7465 35.4745 35.5779 35.6475C35.4092 35.8206 35.1944 35.9384 34.9605 35.9862C34.7266 36.0339 34.4842 36.0094 34.2638 35.9158C34.0435 35.8221 33.8552 35.6635 33.7227 35.46C33.5902 35.2565 33.5195 35.0172 33.5195 34.7725ZM36.6545 34.7725V32.7926H35.931V33.2876C35.7815 33.1143 35.5946 32.9794 35.3853 32.8934C35.1759 32.8075 34.9499 32.773 34.7253 32.7926C34.4664 32.77 34.2058 32.8057 33.9617 32.8972C33.7177 32.9887 33.4961 33.1338 33.3123 33.3224C33.1286 33.511 32.9872 33.7384 32.898 33.9889C32.8089 34.2394 32.7741 34.5068 32.7961 34.7725C32.7694 35.051 32.7992 35.3322 32.8835 35.5984C32.9678 35.8646 33.1049 36.11 33.2861 36.3192C33.4673 36.5284 33.6886 36.6968 33.9363 36.814C34.184 36.9311 34.4526 36.9944 34.7253 36.9999C34.9738 37.0046 35.2187 36.9375 35.4319 36.8062C35.6451 36.6749 35.818 36.4848 35.931 36.2575V36.7524H36.6545V34.7725ZM28.9377 34.7725C28.911 35.051 28.9408 35.3322 29.0251 35.5984C29.1094 35.8646 29.2465 36.11 29.4277 36.3192C29.6089 36.5284 29.8303 36.6968 30.0779 36.814C30.3256 36.9311 30.5942 36.9944 30.8669 36.9999L32.3138 36.5049L31.8315 35.7625L30.8669 36.01C30.5883 35.9525 30.3378 35.7978 30.1577 35.5723C29.9777 35.3467 29.8794 35.0641 29.8794 34.7725C29.8794 34.4809 29.9777 34.1983 30.1577 33.9727C30.3378 33.7472 30.5883 33.5925 30.8669 33.535C31.3492 33.535 31.5903 33.535 31.8315 34.03L32.3138 33.2876C31.9057 32.9483 31.3916 32.7725 30.8669 32.7926C30.608 32.77 30.3474 32.8057 30.1034 32.8972C29.8593 32.9887 29.6377 33.1338 29.4539 33.3224C29.2702 33.511 29.1288 33.7384 29.0397 33.9889C28.9505 34.2394 28.9157 34.5068 28.9377 34.7725ZM39.5482 32.7926C39.0659 32.7926 38.8248 32.7926 38.5837 33.2876V32.7926H37.8602V36.7524H38.5837V34.6488C38.5837 34.1538 38.8248 33.6588 39.3071 33.6588H39.7894L40.2717 32.9163H39.7894L39.5482 32.7926ZM17.6037 33.4113L16.1568 32.9163C15.1922 32.9163 14.7099 33.4113 14.7099 34.1538C14.7099 34.8962 14.951 35.1437 15.9156 35.3912H16.3979C16.6391 35.3912 16.8802 35.3912 16.8802 35.8862C16.8108 36.0252 16.7078 36.1436 16.5812 36.2303C16.4546 36.3169 16.3085 36.3689 16.1568 36.3812L14.7099 35.8862L14.4687 36.3812C14.6811 36.6228 14.942 36.8142 15.2334 36.9424C15.5248 37.0706 15.8398 37.1324 16.1568 37.1237C16.5699 37.1449 16.9752 37.0028 17.2892 36.7266C17.6033 36.4503 17.8021 36.061 17.8448 35.6387C17.8448 34.8962 17.3625 34.6488 16.3979 34.6488H16.1568C15.6745 34.6488 15.4333 34.4013 15.4333 34.1538C15.4333 33.9063 15.6745 33.6588 16.1568 33.6588L17.3625 33.9063L17.6037 33.4113ZM28.4554 32.9163C27.9731 32.9163 27.4908 32.9163 27.2496 33.4113V32.9163H26.5262V36.8762H27.2496V34.6488C27.2666 34.3919 27.3736 34.1501 27.551 33.9681C27.7283 33.786 27.964 33.6762 28.2142 33.6588H28.6965V32.9163H28.4554ZM21.2209 32.9163H20.0152V31.9263H19.0506V32.9163H18.3271V33.6588H19.0506V35.6387C19.0438 35.8356 19.0766 36.0318 19.147 36.2151C19.2173 36.3984 19.3236 36.5648 19.4594 36.7041C19.5951 36.8434 19.7573 36.9525 19.9359 37.0247C20.1145 37.0969 20.3056 37.1306 20.4975 37.1237C20.688 37.1491 20.8816 37.1156 21.0535 37.0275C21.2253 36.9393 21.3676 36.8004 21.4621 36.6287V36.1337L20.4975 36.3812C20.0152 36.3812 20.0152 36.3812 20.0152 35.8862V33.6588H21.2209V32.9163ZM9.16344 36.8762V34.4013C9.12074 33.979 8.92189 33.5897 8.60785 33.3134C8.29381 33.0372 7.88849 32.895 7.47539 32.9163C6.99309 32.9163 6.51079 32.9163 6.26964 33.6588C6.12795 33.4012 5.91453 33.1929 5.65674 33.0606C5.39896 32.9284 5.10855 32.8781 4.82275 32.9163C4.63222 32.8908 4.43861 32.9243 4.26675 33.0125C4.09489 33.1007 3.95261 33.2396 3.85815 33.4113V32.9163H2.89355V36.8762H3.85815V34.6488C3.84715 34.5159 3.86455 34.3822 3.90914 34.257C3.95372 34.1317 4.02442 34.018 4.11628 33.9237C4.20815 33.8294 4.31896 33.7569 4.44099 33.7111C4.56301 33.6654 4.6933 33.6475 4.82275 33.6588C5.30505 33.6588 5.5462 34.1538 5.5462 34.6488V37.1237H6.51079V34.6488C6.51079 34.1538 6.75194 33.6588 7.23424 33.6588C7.36369 33.6475 7.49398 33.6654 7.616 33.7111C7.73803 33.7569 7.84885 33.8294 7.94071 33.9237C8.03257 34.018 8.10327 34.1317 8.14785 34.257C8.19244 34.3822 8.20984 34.5159 8.19884 34.6488V37.1237H8.92229L9.16344 36.8762Z" fill="#231F20"/>
<path d="M46.2756 23.6352V23.1403L46.0344 23.6352V23.1403H45.8174V23.8827H46.2997L46.2756 23.6352Z" fill="#F79410"/>
<path d="M30.1188 26.1102H17.3379V3.5885H30.1188V26.1102Z" fill="#FF5F00"/>
<path d="M18.0615 14.8494C18.1059 12.6485 18.6266 10.4853 19.5859 8.51629C20.5451 6.54731 21.919 4.82185 23.6079 3.4648C21.4868 1.68966 18.9185 0.568371 16.2014 0.231098C13.4842 -0.106175 10.7296 0.354405 8.25726 1.55937C5.78492 2.76433 3.69629 4.66425 2.23385 7.03857C0.7714 9.4129 -0.00488281 12.1642 -0.00488281 14.9732C-0.00488281 17.7821 0.7714 20.5334 2.23385 22.9078C3.69629 25.2821 5.78492 27.182 8.25726 28.387C10.7296 29.5919 13.4842 30.0525 16.2014 29.7152C18.9185 29.378 21.4868 28.2567 23.6079 26.4815C21.9317 25.0738 20.5848 23.2978 19.6665 21.2846C18.7483 19.2713 18.2822 17.0722 18.3026 14.8494" fill="#EB001B"/>
<path d="M46.7578 14.8494C46.7136 17.5861 45.9333 20.257 44.503 22.5671C43.0728 24.8773 41.0482 26.7368 38.653 27.9403C36.2577 29.1438 33.585 29.6445 30.9299 29.3871C28.2748 29.1297 25.7407 28.1241 23.6074 26.4815C25.2714 25.0889 26.6126 23.3337 27.5336 21.3432C28.4547 19.3527 28.9326 17.1767 28.9326 14.9731C28.9326 12.7696 28.4547 10.5936 27.5336 8.60307C26.6126 6.61255 25.2714 4.85735 23.6074 3.46477C25.7231 1.76292 28.259 0.699616 30.9306 0.394086C33.6022 0.0885558 36.3039 0.552885 38.7327 1.735C41.1616 2.91712 43.2215 4.77029 44.6816 7.08669C46.1416 9.4031 46.9441 12.0911 46.9989 14.8494" fill="#F79E1B"/>
</g>
<defs>
<clipPath id="clip0">
<rect width="47" height="37" fill="white"/>
</clipPath>
</defs>
</svg>
