<svg width="56" height="16" viewBox="0 0 56 16" fill="none" xmlns="http://www.w3.org/2000/svg">
<g clip-path="url(#clip0)">
<path d="M15.0917 0C14.4685 0.00618561 13.8635 0.213086 13.3649 0.590558C12.8663 0.96803 12.5002 1.49635 12.3198 2.09854C11.6305 4.5635 10.9375 7.02845 10.2408 9.49341H9.83382C9.83382 9.49341 8.29385 4.06384 7.69986 2.09854C7.52238 1.50523 7.1645 0.983311 6.67689 0.606684C6.18927 0.230058 5.59664 0.0178118 4.98291 0L0 0V16H4.98291V6.49549H5.4009L8.30485 16H11.7698L14.6737 6.50659H15.0917V16H20.0746V0H15.0917ZM33.2964 0C32.8174 0.0636095 32.3629 0.251516 31.9773 0.545374C31.5917 0.839232 31.2882 1.229 31.0964 1.67661L27.5655 9.44899H27.1475V0H22.2196V16H26.9275C27.4041 15.9293 27.8554 15.7386 28.2399 15.4457C28.6243 15.1527 28.9296 14.7667 29.1275 14.3234L32.5924 6.55101H32.9994V16.0555H37.9823V0H33.2964ZM40.2153 7.26162V16H45.1982V10.9035H50.5991C51.7161 10.9056 52.8061 10.5574 53.7184 9.90693C54.6308 9.2565 55.3204 8.336 55.692 7.27273L40.2153 7.26162Z" fill="#4DB45E"/>
<path d="M50.5993 0H39.5225C39.8599 1.83722 40.8209 3.4984 42.2401 4.69799C43.6594 5.89758 45.4483 6.56065 47.2993 6.57321H55.8462C56.0108 5.78266 55.9993 4.96504 55.8126 4.17951C55.6259 3.39397 55.2685 2.66014 54.7664 2.03109C54.2643 1.40204 53.6299 0.893496 52.9092 0.542229C52.1886 0.190961 51.3995 0.00575378 50.5993 0V0Z" fill="url(#paint0_linear)"/>
</g>
<defs>
<linearGradient id="paint0_linear" x1="38.7927" y1="1.76411" x2="55.2814" y2="1.76411" gradientUnits="userSpaceOnUse">
<stop offset="0.3" stop-color="#00B4E6"/>
<stop offset="1" stop-color="#088CCB"/>
</linearGradient>
<clipPath id="clip0">
<rect width="56" height="16" fill="white"/>
</clipPath>
</defs>
</svg>
