<svg width="48" height="16" viewBox="0 0 48 16" fill="none" xmlns="http://www.w3.org/2000/svg">
<g clip-path="url(#clip0)">
<path d="M30.7036 2.44677e-05H30.3966C27.8687 0.221368 25.791 1.60213 25.1258 3.49937C24.3582 5.73388 25.1258 7.52572 27.6128 8.9381L28.319 9.29647C29.7109 10.0237 30.1714 10.4348 30.2533 11.0145C30.3352 11.5942 29.8439 12.2793 28.9433 12.5534C27.5383 12.8021 26.0935 12.6339 24.7778 12.0685L24.3684 11.8999L24.1023 11.7629C23.9693 11.7102 23.9693 11.6891 23.9386 11.8577C23.8635 12.2372 23.7817 12.6131 23.693 12.9855L23.5599 13.7128L23.4473 14.1977L23.2733 15.0725V15.1463C23.2733 15.22 23.8874 15.3676 24.0409 15.4203L24.2968 15.4941C25.5764 15.8509 26.9034 15.9932 28.2269 15.9157H28.7693C29.606 15.8171 30.4255 15.6007 31.2051 15.2728C32.1099 14.9223 32.889 14.2952 33.4378 13.4757C33.9866 12.6561 34.2789 11.6833 34.2755 10.6878C34.2755 8.94864 33.3953 7.7576 31.2051 6.58764L30.8674 6.40846L30.458 6.19765C29.2298 5.51254 28.8205 5.14363 28.8205 4.585C28.8205 3.2991 31.0004 2.85641 33.3953 3.63639C33.6276 3.70355 33.8536 3.79173 34.0708 3.89989C34.2755 3.98421 34.2755 3.98421 34.3164 3.76287L34.3983 3.4045L34.7974 2.0132L35.0124 0.758918V0.674596H34.9202C33.5736 0.157774 32.139 -0.0717307 30.7036 2.44677e-05ZM0 0.442712V0.758918L0.204691 0.811619C0.573134 0.89594 1.1258 1.0435 1.658 1.20161C2.50793 1.43717 3.32614 1.7806 4.09382 2.224C4.45964 2.5073 4.70233 2.92766 4.7693 3.39396C4.97399 4.27231 5.1855 5.15066 5.40384 6.02901L5.6904 7.16735L6.27377 9.48619L6.62175 10.8986L6.79573 11.5837L6.96972 12.2899C7.26994 13.4493 7.56333 14.6052 7.84989 15.7576H11.9437L11.9949 15.6206C12.5134 14.3136 13.0422 13.0136 13.5812 11.7207L13.9599 10.7721L14.1339 10.3505L14.5433 9.29647L14.7173 8.87486L15.1369 7.82084L15.3518 7.48355L15.9454 6.05009L16.2934 5.17525C16.3925 4.84932 16.5087 4.52913 16.6414 4.2161C16.8051 3.78746 16.9757 3.35883 17.1531 2.9302C17.3305 2.50156 17.5284 2.02374 17.7467 1.49673L17.9514 0.969721L18.2277 0.31623H14.1339L14.0009 0.695677L13.8269 1.05404C13.6495 1.48268 13.4823 1.91482 13.3254 2.35049L12.609 4.2161L12.4452 4.64825C12.2951 5.02067 12.1518 5.39309 12.0154 5.7655C11.6333 6.72115 11.2648 7.68382 10.91 8.65352L10.2345 10.5402L10.1424 10.7721V10.6034C10.0606 10.0694 9.96503 9.53889 9.85586 9.01188C9.72622 8.26704 9.58976 7.5222 9.44648 6.77736L9.21109 5.81821C9.10192 5.28417 9.00298 4.75013 8.91428 4.2161L8.84264 3.86827L8.62772 2.64561V2.42427C8.62772 2.354 8.59019 2.2486 8.51514 2.10806C8.49277 1.70851 8.35093 1.32586 8.10906 1.01261C7.86719 0.699352 7.53714 0.470833 7.16418 0.358391L7.07207 0.29515H0.0511727L0 0.442712ZM19.855 0.368931V0.590275C19.5821 1.60213 19.3603 2.60696 19.1898 3.60477L18.9237 4.82743C18.8759 5.06634 18.8316 5.30174 18.7906 5.53362L18.7087 5.92361C18.5791 6.62629 18.4392 7.30789 18.2891 7.9684C18.0913 8.90999 17.8934 9.8551 17.6955 10.8037L17.542 11.5731C17.4669 11.9737 17.3817 12.3672 17.2861 12.7536L17.1736 13.3123L17.1019 13.6285C16.9859 14.1133 16.8836 14.6017 16.7949 15.0936L16.6721 15.6944L18.6269 15.7471H20.5612V15.5679L20.6124 15.3465C20.6124 15.2728 21.1446 12.8274 21.165 12.6588L21.2367 12.3426L21.4618 11.2253L21.5335 10.9197L21.8507 9.48619L21.9736 8.92756L22.342 7.11465L22.3932 6.86168C22.5023 6.39089 22.6013 5.91658 22.69 5.43876C22.8196 4.84148 22.9458 4.24069 23.0687 3.63639V3.43612C23.1846 2.80371 23.3143 2.1713 23.4576 1.53889L23.7748 0.31623H19.8652V0.368931H19.855ZM41.235 0.31623C40.9245 0.376003 40.6346 0.518338 40.394 0.729113C40.1535 0.939889 39.9706 1.21178 39.8635 1.51781C39.5497 2.30481 39.2256 3.09181 38.8913 3.87881L38.7173 4.30042L38.6047 4.57446L38.4307 5.00661L38.3181 5.27012C38.1953 5.6074 38.0588 5.95874 37.9087 6.32413L37.7962 6.59818L37.6222 7.04087C37.4652 7.39221 37.3151 7.74355 37.1719 8.09489L37.049 8.43217C37.0015 8.52021 36.9604 8.61182 36.9262 8.70622L36.7522 9.1489C36.5475 9.62673 36.3497 10.1045 36.1586 10.5824C35.8448 11.3413 35.5377 12.1002 35.2375 12.859L34.8077 13.9131L34.0913 15.7154H38.1851L38.2362 15.5573L38.7377 14.1239L38.8913 13.7023L38.9424 13.5442V13.4282H43.8959V13.502C43.9642 13.8744 44.0392 14.2468 44.1211 14.6193L44.3156 15.5363V15.7365H48V15.5152C47.8772 15.0092 47.768 14.4963 47.6725 13.9763L47.5599 13.4177L47.3348 12.2899L47.2222 11.7312L47.0789 11.2569L47.0072 10.9407C46.9931 10.809 46.9691 10.6787 46.9356 10.5507L46.7821 9.82348C46.5706 8.86081 46.3727 7.89462 46.1885 6.92493L46.0554 6.05009L45.8814 5.15417C45.7791 4.73257 45.6904 4.30393 45.6153 3.86827L45.5028 3.30964L45.3902 2.75101L45.2776 2.24508C45.1889 1.82348 45.1036 1.40187 45.0217 0.980262C44.9808 0.797565 44.9433 0.611355 44.9092 0.421632V0.284609H41.2145L41.235 0.31623ZM42.2379 4.85905C42.3744 5.56173 42.5177 6.28549 42.6678 7.03033L42.7394 7.34653L42.8111 7.69436C42.968 8.52352 43.1386 9.34917 43.3228 10.1713H40.1194C40.481 9.15944 40.8222 8.14759 41.1429 7.13573L41.3168 6.6298C41.5011 6.15901 41.6716 5.68118 41.8286 5.19633L42.0333 4.59554V4.46906V4.55338L42.1049 4.84851" fill="#0E1A65"/>
</g>
<defs>
<clipPath id="clip0">
<rect width="48" height="16" fill="white"/>
</clipPath>
</defs>
</svg>
