<svg width="74" height="25" viewBox="0 0 74 25" fill="none" xmlns="http://www.w3.org/2000/svg">
<g clip-path="url(#clip0)">
<path d="M1.21028e-05 12.4914C1.21028e-05 9.1785 1.35518 6.00125 3.7674 3.65866C6.17962 1.31606 9.45128 0 12.8627 0H61.1374C64.5511 4.94004e-08 67.825 1.31696 70.2389 3.66117C72.6527 6.00537 74.0088 9.18479 74.0088 12.5C74.0088 15.8152 72.6527 18.9946 70.2389 21.3388C67.825 23.683 64.5511 25 61.1374 25H12.8627C11.172 25 9.49799 24.6763 7.93627 24.0475C6.37455 23.4187 4.95579 22.497 3.76115 21.3353C2.56652 20.1735 1.61943 18.7945 0.974055 17.277C0.328684 15.7594 -0.00230701 14.1333 1.21028e-05 12.4914ZM21.5084 18.0603L18.5088 12.5428C19.584 12.3557 20.5732 11.8501 21.3409 11.0955C22.1085 10.3408 22.6169 9.37398 22.7964 8.32762C22.8182 7.97555 22.7592 7.62318 22.6237 7.29595C22.4881 6.96872 22.2795 6.67481 22.0127 6.43544C21.746 6.19607 21.4278 6.01723 21.0812 5.91181C20.7347 5.8064 20.3683 5.77706 20.0086 5.82591C18.403 5.98012 17.9795 7.02536 18.0854 7.12817C18.4559 7.4366 19.4263 9.73269 17.7148 10.7779L15.8798 6.35709C15.8798 6.32983 15.8687 6.30368 15.8488 6.2844C15.829 6.26512 15.8021 6.25428 15.774 6.25428H11.4158C11.257 6.25428 11.31 6.35709 11.31 6.35709L14.1154 11.7718C13.0365 11.9724 12.0406 12.4725 11.2483 13.2115C10.456 13.9505 9.90133 14.8967 9.65142 15.9356C9.62472 16.2669 9.66869 16.6 9.78059 16.9141C9.89249 17.2282 10.0699 17.5164 10.3018 17.7609C10.5336 18.0053 10.8149 18.2007 11.128 18.3348C11.4412 18.4689 11.7794 18.5388 12.1216 18.5401C12.6369 18.5664 13.1469 18.4282 13.5738 18.1467C14.0007 17.8651 14.3211 17.4557 14.4859 16.9808C14.287 16.7431 14.1387 16.4694 14.0496 16.1756C13.9605 15.8818 13.9324 15.5737 13.9668 15.2692C14.0013 14.9647 14.0977 14.67 14.2504 14.402C14.4031 14.134 14.6091 13.8981 14.8565 13.708L16.7268 18.0774C16.7268 18.1047 16.7379 18.1309 16.7578 18.1501C16.7776 18.1694 16.8046 18.1803 16.8326 18.1803H21.4378C21.5613 18.1803 21.5084 18.0774 21.5084 18.0774V18.0603ZM31.6362 14.6333L32.3949 9.68129H28.866L28.7072 10.8807C28.5304 10.4135 28.2072 10.0118 27.7831 9.73208C27.359 9.4524 26.8553 9.30879 26.3429 9.32145C25.223 9.42091 24.1836 9.92873 23.4339 10.7427C22.6841 11.5566 22.2798 12.6162 22.3024 13.708C22.0377 15.9527 22.8846 18.4544 25.0901 18.4544C25.7135 18.3972 26.312 18.1882 26.8301 17.8467C27.3482 17.5053 27.7693 17.0424 28.0544 16.501C28.0538 16.7635 28.1088 17.0232 28.2157 17.2642C28.3226 17.5053 28.4794 17.7224 28.6761 17.9023C28.8729 18.0822 29.1056 18.2209 29.3598 18.31C29.614 18.3991 29.8843 18.4366 30.154 18.4202C30.5952 18.4132 31.0277 18.3 31.4126 18.0906C31.7976 17.8813 32.123 17.5823 32.3596 17.2207C32.5537 16.7752 31.3186 17.3406 31.6362 14.6847V14.6333ZM26.8016 16.0898C25.99 16.0898 25.6724 15.0446 25.8312 13.8451C25.99 12.6456 26.537 11.549 27.3839 11.549C28.2308 11.549 28.5661 12.5942 28.4073 13.8451C28.2485 15.096 27.6662 16.1412 26.8193 16.1412L26.8016 16.0898ZM43.4225 9.8355C40.9518 9.31371 38.3944 9.31371 35.9237 9.8355C35.7715 11.1795 35.4819 12.5054 35.0592 13.7937C34.6526 14.9215 33.9244 15.9139 32.9595 16.6552C32.9866 17.1462 33.2067 17.6083 33.5744 17.9463C33.9421 18.2842 34.4294 18.4723 34.9356 18.4716C36.3295 18.4716 37.3 17.5805 37.8293 15.61C38.172 14.1933 38.3671 12.7466 38.4116 11.292H39.8055L38.9409 18.146H42.3462V18.0432L43.4225 9.8355ZM47.9218 11.7032L48.0277 11.3948C55.0854 10.6066 53.9209 5.67169 50.392 5.7231C46.422 5.82591 44.1636 10.6237 44.1636 14.2906C44.1164 14.8272 44.186 15.3674 44.3679 15.8761C44.5498 16.3848 44.8399 16.8506 45.2193 17.2433C45.5987 17.6361 46.059 17.9468 46.5702 18.1555C47.0814 18.3641 47.6321 18.466 48.1865 18.4544C48.8088 18.5093 49.4361 18.4336 50.0256 18.2324C50.6152 18.0312 51.1533 17.7092 51.6035 17.2883C52.0536 16.8674 52.4053 16.3573 52.6347 15.7928C52.864 15.2283 52.9657 14.6225 52.9328 14.0164C52.6505 11.6175 49.9156 11.1378 47.9395 11.7718L47.9218 11.7032ZM49.7921 7.89925C50.2156 7.89925 50.2156 8.10487 50.2156 8.36189C50.0568 9.40713 48.4511 10.0754 48.4511 10.0754C48.5923 9.62988 49.0687 7.96779 49.8097 7.96779L49.7921 7.89925ZM49.7921 14.7533C49.7921 15.2673 49.3157 16.621 48.4511 16.621C47.1631 16.621 47.5336 13.965 47.6924 13.194C48.0008 13.0769 48.3357 13.0414 48.6629 13.0912C49.5274 13.2454 49.845 13.828 49.7392 14.7019L49.7921 14.7533ZM63.1488 14.7533L63.9075 9.74983H60.2728L59.9905 10.9321C59.8206 10.4604 59.4991 10.0542 59.0734 9.77339C58.6477 9.49263 58.1403 9.35221 57.6262 9.37286C56.5363 9.49237 55.5318 10.0035 54.8103 10.8056C54.0887 11.6078 53.7022 12.6431 53.7268 13.708C53.4092 15.9527 54.309 18.4544 56.4616 18.4544C57.0781 18.4207 57.6747 18.2304 58.1917 17.9027C58.7088 17.5749 59.1283 17.1212 59.4082 16.5867C59.4123 16.8523 59.4722 17.1143 59.5841 17.3566C59.696 17.599 59.8577 17.8166 60.0592 17.9962C60.2606 18.1759 60.4977 18.3137 60.7559 18.4013C61.0141 18.4889 61.288 18.5245 61.5608 18.5058C61.9932 18.492 62.4156 18.3754 62.7909 18.1663C63.1661 17.9572 63.4829 17.6619 63.7134 17.3064C63.9781 16.8437 62.743 17.4092 63.0782 14.7533H63.1488ZM58.2261 16.1412C57.3615 16.1412 57.0968 15.096 57.2027 13.8965C57.3086 12.6971 57.9614 11.6004 58.8083 11.6004C59.6552 11.6004 59.9375 12.6456 59.7788 13.8965C59.62 15.1474 59.1436 16.1412 58.2261 16.1412Z" fill="#FF4E50"/>
</g>
<defs>
<clipPath id="clip0">
<rect width="74" height="25" fill="white"/>
</clipPath>
</defs>
</svg>
