<svg width="30" height="30" viewBox="0 0 30 30" fill="none" xmlns="http://www.w3.org/2000/svg">
    <g clip-path="url(#clip0)">
        <path d="M27.5898 22.8609L28.4869 21.6998C28.4882 21.6982 28.4895 21.6965 28.4907 21.6948C29.2756 20.7156 29.7076 19.4826 29.7076 18.2209C29.7076 15.1741 27.2526 12.6953 24.235 12.6953C21.2175 12.6953 18.7625 15.1741 18.7625 18.2209C18.7625 19.4839 19.1941 20.7153 19.9792 21.695C19.9862 21.7054 19.9936 21.7156 20.0013 21.7256L20.8794 22.8614C19.5951 23.4761 18.7583 24.7882 18.7583 26.2499C18.7583 28.3177 20.4244 29.9999 22.4722 29.9999H25.9978C28.0457 29.9999 29.7117 28.3177 29.7117 26.2499C29.7117 24.7869 28.8749 23.4752 27.5898 22.8609ZM19.9231 18.221C19.9231 15.8203 21.8574 13.8672 24.235 13.8672C26.6127 13.8672 28.547 15.8203 28.547 18.221C28.547 19.2201 28.2033 20.1961 27.5792 20.9692C27.5728 20.9771 27.5667 20.9852 27.5608 20.9933L24.2349 25.2975L20.9487 21.0466C20.9366 21.0278 20.9234 21.0095 20.909 20.9919C20.2732 20.2149 19.9231 19.2308 19.9231 18.221ZM25.9978 28.8281H22.4724C21.0644 28.8281 19.919 27.6716 19.919 26.25C19.919 25.1554 20.6012 24.1833 21.6199 23.8193L23.7776 26.6105C23.8875 26.7528 24.0564 26.836 24.2351 26.8359C24.4139 26.8359 24.5826 26.7527 24.6925 26.6104L26.8494 23.819C27.8688 24.1828 28.5511 25.1545 28.5511 26.25C28.5511 27.6716 27.4057 28.8281 25.9978 28.8281Z" fill="#7776BC" />
        <path d="M25.9976 0H22.4722C20.4243 0 18.7582 1.68223 18.7582 3.75C18.7582 4.89984 19.2739 5.92992 20.0834 6.61834L13.8094 12.1267C13.5675 12.339 13.542 12.7091 13.7522 12.9533C13.867 13.0866 14.0282 13.1548 14.1904 13.1548C14.3254 13.1548 14.461 13.1075 14.5709 13.011L21.1353 7.2477C21.5504 7.41 22.0009 7.5 22.4721 7.5H25.9976C28.0455 7.5 29.7115 5.81777 29.7115 3.75C29.7115 1.68229 28.0455 0 25.9976 0ZM25.9976 6.32812H22.4722C21.0642 6.32812 19.9188 5.1716 19.9188 3.75C19.9188 2.3284 21.0642 1.17188 22.4722 1.17188H25.9976C27.4055 1.17188 28.5509 2.3284 28.5509 3.75C28.5509 5.1716 27.4055 6.32812 25.9976 6.32812Z" fill="#7776BC" />
        <path d="M13.0638 13.5035C12.9559 13.3945 12.8062 13.3318 12.6535 13.3318C12.5009 13.3318 12.3512 13.3945 12.2433 13.5035C12.1353 13.6125 12.0732 13.7637 12.0732 13.9178C12.0732 14.0725 12.1353 14.2231 12.2433 14.332C12.3512 14.4416 12.5009 14.5037 12.6535 14.5037C12.8062 14.5037 12.9559 14.4416 13.0638 14.332C13.1718 14.2231 13.2339 14.0725 13.2339 13.9178C13.2339 13.7637 13.1718 13.6125 13.0638 13.5035Z" fill="#7776BC" />
        <path d="M15.2092 22.6929L10.7859 21.2513C10.8947 20.899 10.9533 20.5246 10.9533 20.1367C10.9533 18.6736 10.1165 17.3619 8.83141 16.7476L9.7285 15.5865C9.72977 15.5849 9.73105 15.5832 9.73227 15.5816C10.5171 14.6023 10.9492 13.3694 10.9492 12.1077C10.9492 9.06078 8.49419 6.58197 5.47661 6.58197C2.45904 6.58197 0.00412015 9.06084 0.00412015 12.1077C0.00412015 13.3706 0.435808 14.602 1.22073 15.5816C1.22781 15.592 1.23523 15.6024 1.24301 15.6124L2.12107 16.7483C0.83674 17.3629 0 18.675 0 20.1368C0 22.2045 1.66605 23.8868 3.71394 23.8868H7.23934C8.48444 23.8868 9.5876 23.2643 10.2617 22.3119L14.8526 23.8081C14.9118 23.8275 14.9719 23.8366 15.031 23.8366C15.276 23.8366 15.5038 23.6786 15.5831 23.4305C15.6816 23.1225 15.5142 22.7922 15.2092 22.6929ZM1.16473 12.1077C1.16473 9.70701 3.09905 7.7539 5.47667 7.7539C7.85429 7.7539 9.78862 9.70701 9.78862 12.1077C9.78862 13.1068 9.4449 14.0828 8.82084 14.8559C8.81446 14.8638 8.80837 14.8718 8.80245 14.88L5.47656 19.1843L2.19047 14.9335C2.17834 14.9145 2.16505 14.8962 2.1506 14.8786C1.51482 14.1017 1.16473 13.1176 1.16473 12.1077ZM7.23934 22.7149H3.71394C2.30601 22.7149 1.16061 21.5584 1.16061 20.1368C1.16061 19.0423 1.84281 18.0702 2.86148 17.7061L5.01922 20.4973C5.12919 20.6396 5.298 20.7228 5.47673 20.7227C5.65552 20.7227 5.82427 20.6395 5.93418 20.4972L8.091 17.7058C9.11036 18.0696 9.79268 19.0412 9.79268 20.1367C9.79268 21.5583 8.64728 22.7149 7.23934 22.7149Z" fill="#7776BC" />
        <path d="M17.3304 23.4516C17.2225 23.3426 17.0728 23.2799 16.9201 23.2799C16.7669 23.2799 16.6178 23.3426 16.5099 23.4516C16.4014 23.5606 16.3398 23.7117 16.3398 23.8658C16.3398 24.0199 16.4014 24.1711 16.5099 24.2801C16.6178 24.3897 16.7669 24.4518 16.9201 24.4518C17.0728 24.4518 17.2225 24.3897 17.3304 24.2801C17.4384 24.1711 17.5004 24.0199 17.5004 23.8658C17.5004 23.7117 17.4384 23.5606 17.3304 23.4516Z" fill="#7776BC" />
        <path d="M25.6557 3.16406H22.8122C22.4917 3.16406 22.2319 3.42639 22.2319 3.75C22.2319 4.07361 22.4917 4.33594 22.8122 4.33594H25.6557C25.9762 4.33594 26.236 4.07361 26.236 3.75C26.236 3.42639 25.9762 3.16406 25.6557 3.16406Z" fill="#7776BC" />
        <path d="M5.47553 9.69598C4.11135 9.69598 3.00146 10.8166 3.00146 12.1941C3.00152 13.5716 4.11135 14.6922 5.47553 14.6922C6.83977 14.6922 7.9496 13.5716 7.9496 12.1941C7.9496 10.8166 6.83977 9.69598 5.47553 9.69598ZM5.47553 13.5203C4.75131 13.5203 4.16207 12.9254 4.16207 12.1941C4.16207 11.4628 4.75131 10.8679 5.47553 10.8679C6.19975 10.8679 6.78899 11.4628 6.78899 12.1941C6.78899 12.9253 6.19975 13.5203 5.47553 13.5203Z" fill="#7776BC" />
        <path d="M24.2338 15.8093C22.8697 15.8093 21.7598 16.9299 21.7598 18.3073C21.7598 19.6848 22.8697 20.8054 24.2338 20.8054C25.5981 20.8054 26.7079 19.6848 26.7079 18.3073C26.7079 16.9299 25.5981 15.8093 24.2338 15.8093ZM24.2338 19.6336C23.5096 19.6336 22.9204 19.0387 22.9204 18.3074C22.9204 17.5762 23.5096 16.9812 24.2338 16.9812C24.958 16.9812 25.5473 17.5761 25.5473 18.3074C25.5473 19.0387 24.958 19.6336 24.2338 19.6336Z" fill="#7776BC" />
    </g>
    <defs>
        <clipPath id="clip0">
            <rect width="29.7115" height="30" fill="white" />
        </clipPath>
    </defs>
</svg>
