<svg width="31" height="30" viewBox="0 0 31 30" fill="none" xmlns="http://www.w3.org/2000/svg">
    <g clip-path="url(#clip0)">
        <path d="M22.1268 9.1377C17.625 9.1377 13.9624 12.7651 13.9624 17.2236C13.9624 18.3178 14.1883 19.3957 14.6155 20.3906H8.52944V17.3433C8.52944 17.0197 8.26457 16.7573 7.93782 16.7573C7.61106 16.7573 7.34619 17.0197 7.34619 17.3433V20.9766C7.34619 21.3002 7.61106 21.5625 7.93782 21.5625H15.2378C15.4053 21.8236 15.588 22.076 15.7861 22.3176C15.7951 22.3314 15.8048 22.3448 15.8152 22.3579L20.9145 28.8281H18.1415C17.8147 28.8281 17.5499 29.0905 17.5499 29.4141C17.5499 29.7377 17.8147 30 18.1415 30H26.1311C26.4578 30 26.7227 29.7377 26.7227 29.4141C26.7227 29.0905 26.4578 28.8281 26.1311 28.8281H23.3388L28.4666 22.3188C28.4687 22.3161 28.4707 22.3134 28.4728 22.3107C29.6456 20.8772 30.2913 19.0715 30.2913 17.2236C30.2913 12.765 26.6287 9.1377 22.1268 9.1377ZM27.5411 21.5882C27.5337 21.5971 27.5267 21.6062 27.5199 21.6154L22.1268 28.4617L16.7892 21.6893C16.7751 21.6667 16.7594 21.645 16.7421 21.6242C15.7127 20.3902 15.1457 18.8273 15.1457 17.2236C15.1457 13.4112 18.2775 10.3096 22.1269 10.3096C25.9763 10.3096 29.1081 13.4112 29.1081 17.2236C29.108 18.8102 28.5516 20.3603 27.5411 21.5882Z" fill="#7776BC" />
        <path d="M26.7447 15.868C26.6446 15.5598 26.3112 15.3905 26.0002 15.4896C25.6892 15.5887 25.5182 15.9188 25.6183 16.2269C26.0422 17.5317 25.6982 18.9438 24.7205 19.9121C23.2903 21.3285 20.9632 21.3285 19.533 19.9121C18.8402 19.226 18.4586 18.3137 18.4586 17.3433C18.4586 16.373 18.8402 15.4607 19.533 14.7745C20.4679 13.8486 21.8408 13.4922 23.1159 13.8444C23.4306 13.9313 23.757 13.7491 23.8447 13.4374C23.9324 13.1256 23.7485 12.8025 23.4337 12.7156C21.7479 12.25 19.9326 12.7215 18.6964 13.946C17.78 14.8535 17.2754 16.06 17.2754 17.3434C17.2754 18.6268 17.78 19.8333 18.6964 20.7408C19.6421 21.6775 20.8844 22.1459 22.1268 22.1459C23.3691 22.1459 24.6114 21.6775 25.5572 20.7408C26.8502 19.4603 27.3052 17.5931 26.7447 15.868Z" fill="#7776BC" />
        <path d="M25.5622 13.9511L25.5569 13.9458C25.3259 13.717 24.9512 13.717 24.7201 13.9458C24.4891 14.1746 24.4891 14.5457 24.7201 14.7745L24.7255 14.7798C24.8411 14.8942 24.9925 14.9514 25.1439 14.9514C25.2953 14.9514 25.4467 14.8942 25.5622 14.7798C25.7932 14.551 25.7932 14.18 25.5622 13.9511Z" fill="#7776BC" />
        <path d="M13.8638 24.6094H0.591626C0.264871 24.6094 0 24.8717 0 25.1953C0 25.5189 0.264871 25.7812 0.591626 25.7812H13.2721V29.4141C13.2721 29.7377 13.537 30 13.8638 30C14.1905 30 14.4554 29.7377 14.4554 29.4141V25.1953C14.4554 24.8717 14.1905 24.6094 13.8638 24.6094Z" fill="#7776BC" />
        <path d="M10.7961 0C10.4693 0 10.2044 0.262324 10.2044 0.585937V4.80504H0.591626C0.264871 4.80504 0 5.06736 0 5.39098C0 5.71459 0.264871 5.97691 0.591626 5.97691H10.7961C11.1228 5.97691 11.3877 5.71459 11.3877 5.39098V0.585937C11.3877 0.262324 11.1228 0 10.7961 0Z" fill="#7776BC" />
        <path d="M5.07923 9.0238H0.591626C0.264871 9.0238 0 9.28613 0 9.60974C0 9.93335 0.264871 10.1957 0.591626 10.1957H4.4876V20.3906H0.591626C0.264871 20.3906 0 20.653 0 20.9766C0 21.3002 0.264871 21.5625 0.591626 21.5625H5.07923C5.40598 21.5625 5.67086 21.3002 5.67086 20.9766V9.60974C5.67086 9.28613 5.40598 9.0238 5.07923 9.0238Z" fill="#7776BC" />
        <path d="M8.3561 14.8787C8.24606 14.7697 8.09342 14.707 7.93782 14.707C7.78163 14.707 7.62958 14.7697 7.51954 14.8787C7.4089 14.9877 7.34619 15.1389 7.34619 15.293C7.34619 15.4477 7.4089 15.5982 7.51954 15.7072C7.62958 15.8168 7.78163 15.8789 7.93782 15.8789C8.09342 15.8789 8.24546 15.8168 8.3561 15.7072C8.46614 15.5982 8.52944 15.4471 8.52944 15.293C8.52944 15.1389 8.46614 14.9877 8.3561 14.8787Z" fill="#7776BC" />
        <path d="M15.1458 9.0238H7.93782C7.61106 9.0238 7.34619 9.28613 7.34619 9.60974V12.8613C7.34619 13.185 7.61106 13.4473 7.93782 13.4473C8.26457 13.4473 8.52944 13.185 8.52944 12.8613V10.1957H15.1458C15.4725 10.1957 15.7374 9.93335 15.7374 9.60974C15.7374 9.28613 15.4725 9.0238 15.1458 9.0238Z" fill="#7776BC" />
        <path d="M23.6652 0C23.3384 0 23.0735 0.262324 23.0735 0.585937V4.80439L14.2462 4.80504V0.585937C14.2462 0.262324 13.9814 0 13.6546 0C13.3279 0 13.063 0.262324 13.063 0.585937V5.39098C13.063 5.54637 13.1253 5.69543 13.2363 5.80529C13.3472 5.91516 13.4978 5.97691 13.6547 5.97691L23.6652 5.97621C23.9919 5.97621 24.2568 5.71383 24.2568 5.39027V0.585937C24.2568 0.262324 23.9919 0 23.6652 0Z" fill="#7776BC" />
        <path d="M29.6995 4.80504H27.0963V0.585937C27.0963 0.262324 26.8315 0 26.5047 0C26.178 0 25.9131 0.262324 25.9131 0.585937V5.39098C25.9131 5.71459 26.178 5.97691 26.5047 5.97691H29.6995C30.0262 5.97691 30.2911 5.71459 30.2911 5.39098C30.2911 5.06736 30.0262 4.80504 29.6995 4.80504Z" fill="#7776BC" />
        <path d="M29.6996 9.0238H27.8314C27.5046 9.0238 27.2397 9.28613 27.2397 9.60974C27.2397 9.93336 27.5046 10.1957 27.8314 10.1957H29.6996C30.0263 10.1957 30.2912 9.93336 30.2912 9.60974C30.2912 9.28613 30.0263 9.0238 29.6996 9.0238Z" fill="#7776BC" />
    </g>
    <defs>
        <clipPath id="clip0">
            <rect width="30.2913" height="30" fill="white" />
        </clipPath>
    </defs>
</svg>
