<svg width="35" height="35" viewBox="0 0 35 35" fill="none" xmlns="http://www.w3.org/2000/svg">
    <path d="M0.5 5C0.5 2.51472 2.51472 0.5 5 0.5H30C32.4853 0.5 34.5 2.51472 34.5 5V30C34.5 32.4853 32.4853 34.5 30 34.5H5C2.51472 34.5 0.5 32.4853 0.5 30V5Z" stroke="currentcolor" />
    <path d="M23.0939 27.6667H10.9072C10.6507 27.6606 10.3979 27.6041 10.1632 27.5003C9.92851 27.3965 9.71659 27.2474 9.53952 27.0617C9.36246 26.876 9.22373 26.6572 9.13125 26.4178C9.03877 26.1784 8.99437 25.9232 9.00057 25.6667V12.4867H10.3339V25.6667C10.3275 25.7481 10.3373 25.8301 10.3627 25.9077C10.3882 25.9854 10.4287 26.0573 10.4819 26.1192C10.5352 26.1812 10.6002 26.232 10.6732 26.2687C10.7462 26.3055 10.8257 26.3274 10.9072 26.3333H23.0939C23.1754 26.3274 23.2549 26.3055 23.3279 26.2687C23.4009 26.232 23.4659 26.1812 23.5192 26.1192C23.5725 26.0573 23.613 25.9854 23.6384 25.9077C23.6638 25.8301 23.6736 25.7481 23.6672 25.6667V12.4867H25.0006V25.6667C25.0068 25.9232 24.9624 26.1784 24.8699 26.4178C24.7774 26.6572 24.6387 26.876 24.4616 27.0617C24.2846 27.2474 24.0726 27.3965 23.838 27.5003C23.6033 27.6041 23.3504 27.6606 23.0939 27.6667Z" fill="currentcolor" />
    <path d="M25.5203 11H8.33366C8.15685 11 7.98728 10.9298 7.86225 10.8047C7.73723 10.6797 7.66699 10.5101 7.66699 10.3333C7.66699 10.1565 7.73723 9.98694 7.86225 9.86192C7.98728 9.73689 8.15685 9.66666 8.33366 9.66666H25.5203C25.6971 9.66666 25.8667 9.73689 25.9917 9.86192C26.1168 9.98694 26.187 10.1565 26.187 10.3333C26.187 10.5101 26.1168 10.6797 25.9917 10.8047C25.8667 10.9298 25.6971 11 25.5203 11Z" fill="currentcolor" />
    <path d="M19 13.6667H20.3333V23.6667H19V13.6667Z" fill="currentcolor" />
    <path d="M13.667 13.6667H15.0003V23.6667H13.667V13.6667Z" fill="currentcolor" />
    <path d="M20.3337 8.90668H19.067V7.66668H14.9337V8.90668H13.667V7.66668C13.6666 7.32431 13.7979 6.99489 14.0337 6.74668C14.2695 6.49846 14.5917 6.35046 14.9337 6.33334H19.067C19.4089 6.35046 19.7312 6.49846 19.967 6.74668C20.2028 6.99489 20.3341 7.32431 20.3337 7.66668V8.90668Z" fill="currentcolor" />
</svg>
