<svg width="30" height="30" viewBox="0 0 30 30" fill="none" xmlns="http://www.w3.org/2000/svg">
    <path d="M30 16.4483L24.6163 10.3699H19.6276V7.96533H13.676C12.5318 5.51947 10.0477 3.82074 7.17404 3.82074C3.21839 3.82074 0 7.03913 0 10.9948C0 13.7411 1.55155 16.1316 3.82384 17.3368V23.001H6.55261C6.62571 24.7658 8.08365 26.1791 9.86602 26.1791C11.6484 26.1791 13.1063 24.7658 13.1794 23.001H20.6443C20.7174 24.7658 22.1754 26.1791 23.9578 26.1791C25.7401 26.1791 27.1981 24.7658 27.2712 23.001H30V16.4483ZM1.25002 10.9948C1.25002 7.72821 3.90747 5.0707 7.1741 5.0707C10.4407 5.0707 13.0982 7.72821 13.0982 10.9948C13.0982 14.2614 10.4407 16.9189 7.1741 16.9189C3.90741 16.9189 1.25002 14.2614 1.25002 10.9948ZM9.86602 24.9292C8.7262 24.9292 7.79908 24.002 7.79908 22.8622C7.79908 21.7224 8.7262 20.7953 9.86602 20.7953C11.0058 20.7953 11.933 21.7224 11.933 22.8622C11.933 24.002 11.0058 24.9292 9.86602 24.9292ZM18.3776 21.7511H12.9909C12.5329 20.4671 11.3053 19.5453 9.86602 19.5453C8.42676 19.5453 7.19914 20.4671 6.74118 21.7511H5.0738V17.855C5.73839 18.0589 6.44357 18.1689 7.17404 18.1689C11.1298 18.1689 14.3481 14.9506 14.3481 10.9949C14.3481 10.3809 14.2704 9.78462 14.1246 9.21541H18.3776V21.7511H18.3776ZM23.9578 24.9292C22.8179 24.9292 21.8908 24.002 21.8908 22.8622C21.8908 21.7224 22.8179 20.7953 23.9578 20.7953C25.0976 20.7953 26.0248 21.7224 26.0248 22.8622C26.0248 24.002 25.0976 24.9292 23.9578 24.9292ZM28.75 21.7511H27.0827C26.6247 20.4671 25.397 19.5453 23.9578 19.5453C22.5186 19.5453 21.2909 20.4671 20.8329 21.7511H19.6277V11.6199H24.0536L28.75 16.9226V21.7511Z" fill="#7776BC"/>
    <path d="M9.97746 11.9046L7.79885 10.6356V6.4624H6.54883V11.3541L9.34819 12.9849L9.97746 11.9046Z" fill="#7776BC"/>
    </svg>
