<svg width="57" height="63" viewBox="0 0 57 63" fill="none" xmlns="http://www.w3.org/2000/svg">
    <path d="M25 21.9896C25.8 21.1896 25.6667 20.6563 25.5 20.4896H33.5C33.3333 20.823 33.1 21.5896 33.5 21.9896C34 22.4896 35 23.4896 35.5 24.4896C35.9 25.2896 35.6667 27.4896 35.5 28.4896H22.5V25.4896C22.5 24.4896 24 22.9896 25 21.9896Z" fill="#E60000"/>
    <path d="M35 1.48962H23L20 20.4896H38.5L35 1.48962Z" stroke="#E60000" stroke-width="2"/>
    <path d="M26 3.98962L25 17.9896" stroke="#E60000" stroke-width="2"/>
    <path d="M32 3.98962L33 17.9896" stroke="#E60000" stroke-width="2"/>
    <path d="M29 3.98962V17.9896" stroke="#E60000" stroke-width="2"/>
    <rect y="27.4896" width="57" height="10" fill="#E60000"/>
    <rect y="38.4896" width="57" height="10" fill="#E60000"/>
    <rect y="49.4896" width="57" height="10" fill="#E60000"/>
    <rect x="3" y="52.4896" width="9" height="10" fill="#E60000"/>
    <rect x="45" y="52.4896" width="9" height="10" fill="#E60000"/>
    <rect x="5" y="31.4896" width="10" height="2" fill="white"/>
    <rect x="5" y="42.4896" width="10" height="2" fill="white"/>
    <rect x="5" y="53.4896" width="10" height="2" fill="white"/>
    <rect x="42" y="31.4896" width="10" height="2" fill="white"/>
    <rect x="42" y="42.4896" width="10" height="2" fill="white"/>
    <rect x="42" y="53.4896" width="10" height="2" fill="white"/>
    </svg>
