<svg width="75" height="69" viewBox="0 0 75 69" fill="none" xmlns="http://www.w3.org/2000/svg">
    <path d="M18.1292 43.1524C16.8043 44.0227 16.1662 45.2613 17.1762 46.7989L18.734 49.1706C19.744 50.7082 21.1342 50.6146 22.4591 49.7443C23.7677 48.8848 24.4057 47.6461 23.3958 46.1085L21.8379 43.7369C20.8279 42.1991 19.4378 42.2929 18.1292 43.1524ZM22.0054 47.0217C22.4029 47.6269 22.2258 48.1414 21.6532 48.5175C21.0808 48.8935 20.5546 48.841 20.1571 48.2357L18.5992 45.8641C18.2017 45.2588 18.3624 44.7551 18.9349 44.3791C19.5074 44.003 20.0499 44.0447 20.4475 44.65L22.0054 47.0217Z" fill="#E60000" stroke="#E60000"/>
    <path d="M24.2914 38.168C24.0461 38.3292 23.8923 38.5943 23.9283 38.8984L25.8722 54.6904C25.8932 54.7938 25.925 54.9134 25.9895 55.0115C26.2151 55.3551 26.773 55.5272 27.231 55.2263C27.509 55.0437 27.6847 54.7409 27.6325 54.4474L25.7208 38.7044C25.7054 38.5739 25.6573 38.4651 25.5928 38.3669C25.3028 37.9254 24.6677 37.9209 24.2914 38.168Z" fill="#E60000" stroke="#E60000"/>
    <path d="M29.0627 43.7208C27.7378 44.5911 27.0997 45.8297 28.1096 47.3672L29.6675 49.739C30.6882 51.2929 32.0677 51.1829 33.3926 50.3127C34.7011 49.4531 35.3499 48.2308 34.3292 46.6769L32.7713 44.3051C31.7614 42.7676 30.3712 42.8613 29.0627 43.7208ZM32.9388 47.5902C33.3364 48.1955 33.1593 48.7099 32.5867 49.086C32.0142 49.4621 31.4881 49.4095 31.0905 48.8043L29.5326 46.4325C29.1351 45.8273 29.2959 45.3236 29.8683 44.9476C30.441 44.5716 30.9834 44.6133 31.3809 45.2184L32.9388 47.5902Z" fill="#E60000" stroke="#E60000"/>
    <path d="M55.6207 19.9926L52.4301 22.0883C52.0175 22.3593 51.9028 22.9135 52.1737 23.3259C52.4446 23.7384 52.9987 23.8533 53.4113 23.5822L56.602 21.4865C57.0145 21.2155 57.1292 20.6613 56.8583 20.2489C56.5873 19.8363 56.0332 19.7216 55.6207 19.9926Z" fill="#E60000" stroke="#E60000"/>
    <path d="M48.9545 24.3713L33.1301 34.7656C32.7176 35.0366 32.6029 35.5907 32.8738 36.0032C33.1447 36.4156 33.6989 36.5304 34.1114 36.2595L49.9358 25.8651C50.3484 25.5942 50.463 25.04 50.1921 24.6276C49.9211 24.215 49.3671 24.1003 48.9545 24.3713Z" fill="#E60000" stroke="#E60000"/>
    <path d="M59.2306 25.4882L36.7401 40.2612C36.3276 40.5322 36.2129 41.0863 36.4838 41.4988C36.7547 41.9112 37.3089 42.026 37.7214 41.7551L60.2118 26.9821C60.6244 26.7111 60.7391 26.157 60.4682 25.7445C60.1972 25.332 59.6431 25.2172 59.2306 25.4882Z" fill="#E60000" stroke="#E60000"/>
    <path d="M51.4655 38.4642L45.265 42.5371C44.8525 42.8081 44.7378 43.3622 45.0087 43.7747C45.2797 44.1872 45.8337 44.302 46.2463 44.031L52.4468 39.9581C52.8594 39.6871 52.974 39.133 52.7031 38.7205C52.4322 38.3081 51.8781 38.1932 51.4655 38.4642Z" fill="#E60000" stroke="#E60000"/>
    <path d="M41.7893 44.8203L40.354 45.7631C39.9414 46.0341 39.8268 46.5883 40.0977 47.0007C40.3686 47.4132 40.9228 47.528 41.3353 47.257L42.7706 46.3142C43.1832 46.0432 43.2979 45.4891 43.0269 45.0766C42.7559 44.6641 42.2018 44.5494 41.7893 44.8203Z" fill="#E60000" stroke="#E60000"/>
    <path d="M49.2892 2.77065L3.69572 32.7189C2.20929 33.6953 1.79433 35.6989 2.7707 37.1853L21.0277 64.9799C22.0041 66.4663 24.0076 66.8812 25.494 65.9048L71.0875 35.9566C72.5739 34.9802 72.9888 32.9766 72.0125 31.4903L53.7555 3.69574C52.7791 2.20932 50.7755 1.79436 49.2892 2.77065ZM70.5185 32.4715C70.9536 33.1341 70.7687 34.0273 70.106 34.4626L24.5127 64.4108C23.85 64.8461 22.9569 64.6611 22.5216 63.9985L9.16438 43.6633L57.1613 12.1363L70.5185 32.4715ZM8.21231 42.1501L6.09528 38.9271L54.0243 7.44465L56.1414 10.6676L8.21231 42.1501ZM53.0815 5.92535L5.08466 37.4523L4.26469 36.204C3.82939 35.5413 4.01445 34.6482 4.67706 34.2129L50.2705 4.26465C50.9332 3.82935 51.8263 4.01441 52.2616 4.67702L53.0815 5.92535Z" fill="#E60000" stroke="#E60000"/>
    </svg>
