<svg width="66" height="67" viewBox="0 0 66 67" fill="none" xmlns="http://www.w3.org/2000/svg">
    <g clip-path="url(#clip0)">
    <path d="M63.4892 15.7397L34.3449 0.972635L34.3328 0.966577C33.0351 0.320499 31.4931 0.334936 30.2075 1.00525L17.7076 7.63928C17.606 7.68233 17.5084 7.73454 17.415 7.79461L2.43581 15.7445C0.933281 16.5312 0 18.0727 0 19.7692V47.2109C0 48.9074 0.933281 50.4488 2.43581 51.2355L30.1951 65.9684L30.2076 65.975C30.8632 66.3169 31.5858 66.4882 32.3084 66.4882C33.0026 66.4882 33.697 66.3302 34.3328 66.0136L63.4892 51.2404C65.0381 50.4658 66 48.9096 66 47.1774V19.8029C66 18.0705 65.0381 16.5142 63.4892 15.7397ZM31.9993 4.43067C32.1887 4.33348 32.4148 4.33155 32.6058 4.42526L59.8861 18.2479L49.2689 23.5337L22.5983 9.42012L31.9993 4.43067ZM30.3476 61.6729L4.2423 47.8177L4.2298 47.8111C4.00537 47.6939 3.86577 47.4641 3.86577 47.2109V21.5136L30.3476 35.3225V61.6729ZM32.3009 31.9813L5.96475 18.2483L18.4718 11.6105L45.0103 25.6539L32.3009 31.9813ZM62.134 47.1771C62.1341 47.4359 61.9902 47.6681 61.7587 47.7834L34.2135 61.7402V35.3474L46.8961 29.0333V35.6533C46.8961 36.7208 47.7616 37.5863 48.829 37.5863C49.8965 37.5863 50.762 36.7208 50.762 35.6533V27.1086L62.134 21.4471V47.1771Z" fill="#E60000"/>
    </g>
    <defs>
    <clipPath id="clip0">
    <rect width="66" height="66" fill="white" transform="translate(0 0.489624)"/>
    </clipPath>
    </defs>
    </svg>
