<svg width="82" height="58" viewBox="0 0 82 58" fill="none" xmlns="http://www.w3.org/2000/svg">
    <path d="M53.8572 44.4305H34.7816V49.4726H53.8572V44.4305Z" fill="#E60000" stroke="white"/>
    <path d="M19.4033 44.4305H10.6639C9.27144 44.4305 8.14301 45.5591 8.14301 46.9515C8.14301 48.344 9.2716 49.4724 10.6639 49.4724H19.4035C20.796 49.4724 21.9244 48.3438 21.9244 46.9515C21.9244 45.559 20.7958 44.4305 19.4033 44.4305Z" fill="#E60000" stroke="white"/>
    <path d="M80.4707 29.019L75.5119 22.6324C75.0355 22.0173 74.3002 21.6576 73.5211 21.6576H55.2018V4.01056C55.2018 2.61806 54.0732 1.48962 52.6808 1.48962H10.6639C9.27144 1.48962 8.14301 2.61822 8.14301 4.01056C8.14301 5.4029 9.2716 6.5315 10.6639 6.5315H50.1597V24.1785C50.1597 25.571 51.2883 26.6995 52.6807 26.6995H72.2866L75.958 31.4288V44.4306H68.9832C67.5907 44.4306 66.4622 45.5592 66.4622 46.9515C66.4622 48.344 67.5908 49.4724 68.9832 49.4724H78.479C79.8715 49.4724 80.9999 48.3438 81 46.9515V30.5653C81 30.0056 80.8135 29.461 80.4707 29.019Z" fill="#E60000" stroke="white"/>
    <path d="M61.4202 36.7836C55.8597 36.7836 51.3361 41.3072 51.3361 46.8676C51.3361 52.4281 55.8597 56.9517 61.4202 56.9517C66.9816 56.9517 71.5042 52.4281 71.5042 46.8676C71.5042 41.3072 66.9806 36.7836 61.4202 36.7836ZM61.4202 51.9097C58.6396 51.9097 56.3782 49.6483 56.3782 46.8676C56.3782 44.087 58.6396 41.8256 61.4202 41.8256C64.2008 41.8256 66.4622 44.087 66.4622 46.8676C66.4622 49.6484 64.2008 51.9097 61.4202 51.9097Z" fill="#E60000" stroke="white"/>
    <path d="M26.9664 36.7836C21.4059 36.7836 16.8823 41.3072 16.8823 46.8676C16.8823 52.4281 21.4059 56.9517 26.9664 56.9517C32.5269 56.9517 37.0504 52.4281 37.0504 46.8676C37.0504 41.3072 32.5269 36.7836 26.9664 36.7836ZM26.9664 51.9097C24.1858 51.9097 21.9244 49.6483 21.9244 46.8676C21.9244 44.087 24.1858 41.8256 26.9664 41.8256C29.7462 41.8256 32.0084 44.087 32.0084 46.8676C32.0084 49.6484 29.747 51.9097 26.9664 51.9097Z" fill="#E60000" stroke="white"/>
    <path d="M19.2353 31.6577H7.63861C6.24611 31.6577 5.11768 32.7863 5.11768 34.1787C5.11768 35.5712 6.24627 36.6996 7.63861 36.6996H19.2352C20.6277 36.6996 21.7561 35.571 21.7561 34.1787C21.7563 32.7863 20.6277 31.6577 19.2353 31.6577Z" fill="#E60000" stroke="white"/>
    <path d="M25.0336 21.7416H3.52094C2.12859 21.7416 1 22.8702 1 24.2627C1 25.6552 2.12859 26.7836 3.52094 26.7836H25.0336C26.4261 26.7836 27.5545 25.655 27.5545 24.2627C27.5545 22.8703 26.4261 21.7416 25.0336 21.7416Z" fill="#E60000" stroke="white"/>
    <path d="M29.1513 11.8256H7.63861C6.24611 11.8256 5.11768 12.9542 5.11768 14.3465C5.11768 15.739 6.24627 16.8674 7.63861 16.8674H29.1513C30.5438 16.8674 31.6722 15.7388 31.6722 14.3465C31.6724 12.9542 30.5438 11.8256 29.1513 11.8256Z" fill="#E60000" stroke="white"/>
    </svg>
