<svg width="30" height="30" viewBox="0 0 30 30" fill="none" xmlns="http://www.w3.org/2000/svg">
    <path d="M0.0945465 2.74713L2.0918 6.24211C2.15917 6.36022 2.27193 6.44566 2.40379 6.47873L4.26712 6.94456L10.658 13.3354L11.3641 12.6295L4.87324 6.1388C4.80936 6.07472 4.72926 6.02933 4.64156 6.00735L2.85114 5.55815L1.15068 2.58076L2.60857 1.12288L5.58719 2.82498L6.03659 4.61539C6.05836 4.7033 6.10396 4.78361 6.16784 4.84749L12.6587 11.3383L13.3646 10.6322L6.9738 4.24137L6.50797 2.37907C6.4749 2.247 6.38946 2.13403 6.27136 2.06646L2.77617 0.0694109C2.58125 -0.0415018 2.33601 -0.00863877 2.17704 0.14972L0.17999 2.14697C0.0193723 2.30492 -0.0155447 2.55057 0.0945465 2.74713Z" fill="#7776BC"/>
    <path d="M20.853 9.84022L9.86874 20.8247L9.1626 20.1185L20.1471 9.13428L20.853 9.84022Z" fill="#7776BC"/>
    <path d="M7.9462 21.2133C7.85582 21.0629 7.69356 20.9711 7.51815 20.9711H4.52249C4.34729 20.9711 4.18482 21.0629 4.09465 21.2133L2.59671 23.7097C2.50162 23.8678 2.50162 24.0656 2.59671 24.224L4.09465 26.7203C4.18482 26.8705 4.34729 26.9625 4.52249 26.9625H7.51815C7.69356 26.9625 7.85582 26.8705 7.9462 26.7203L9.44393 24.224C9.53902 24.0656 9.53902 23.8678 9.44393 23.7097L7.9462 21.2133ZM7.23574 25.9639H4.80511L3.60684 23.9668L4.80511 21.9696H7.23574L8.43401 23.9668L7.23574 25.9639Z" fill="#7776BC"/>
    <path d="M23.9946 11.9839C27.2922 11.995 29.9746 9.33063 29.9857 6.03303C29.9874 5.53105 29.9257 5.03112 29.8023 4.54454C29.7358 4.27691 29.4648 4.11403 29.1972 4.18058C29.1093 4.20256 29.0292 4.24795 28.9651 4.31183L25.8571 7.4178L23.3911 6.59601L22.5687 4.13067L25.6768 1.02203C25.8717 0.826905 25.8715 0.510804 25.6763 0.315885C25.6121 0.251596 25.5311 0.205999 25.4426 0.184227C22.2446 -0.625642 18.9959 1.3102 18.186 4.50798C18.063 4.99312 18.0016 5.49182 18.0032 5.99236C18.0045 6.38549 18.0449 6.77738 18.1246 7.16229L7.19007 18.0966C6.80516 18.0172 6.41327 17.9767 6.02035 17.9753C2.71125 17.9753 0.0288086 20.6577 0.0288086 23.9668C0.0288086 27.2757 2.71125 29.9582 6.02035 29.9582C9.32925 29.9582 12.0117 27.2757 12.0117 23.9668C12.0105 23.5737 11.9698 23.1818 11.8903 22.7969L14.5081 20.1791L15.6529 21.324C15.848 21.5189 16.1639 21.5189 16.3591 21.324L16.6086 21.0742C16.8276 20.8567 17.1815 20.8567 17.4004 21.0742C17.6192 21.2924 17.6196 21.6465 17.4014 21.8652C17.4012 21.8654 17.4008 21.8658 17.4004 21.8662L17.1509 22.1158C16.9559 22.3107 16.9559 22.6268 17.1509 22.8217L23.1069 28.7778C24.6734 30.3587 27.2248 30.3702 28.8057 28.8036C30.3864 27.2371 30.3979 24.6855 28.8314 23.1048C28.823 23.0961 28.8144 23.0875 28.8057 23.0789L22.8497 17.1231C22.6548 16.9282 22.3387 16.9282 22.1438 17.1231L21.8942 17.3726C21.6751 17.5903 21.3214 17.5903 21.1022 17.3726C20.8837 17.1545 20.8831 16.8004 21.1012 16.5819C21.1016 16.5815 21.102 16.5812 21.1022 16.5808L21.352 16.3311C21.5469 16.1362 21.5469 15.8201 21.352 15.6251L20.2071 14.4803L22.8249 11.8625C23.2098 11.942 23.6017 11.9827 23.9946 11.9839ZM25.9563 28.9597C25.5936 28.9591 25.2339 28.8936 24.8944 28.766L28.7938 24.8664C29.3823 26.4317 28.5905 28.1776 27.0252 28.766C26.6836 28.8944 26.3215 28.9601 25.9563 28.9597ZM20.3 15.9831C19.747 16.6427 19.8337 17.6257 20.4932 18.1784C21.0729 18.6642 21.9176 18.6637 22.4966 18.177L28.0998 23.785C28.1606 23.846 28.2175 23.9103 28.2725 23.9756L24.0036 28.2446C23.9381 28.1897 23.8738 28.1328 23.8128 28.0718L18.2053 22.4639C18.7583 21.8044 18.6716 20.8214 18.0121 20.2687C17.4325 19.7827 16.5875 19.7833 16.0085 20.2699L15.2097 19.4711L19.501 15.1862L20.3 15.9831ZM22.3161 10.9615L10.9897 22.2857C10.8654 22.4097 10.8155 22.5898 10.8578 22.7601C11.5428 25.4502 9.91729 28.1862 7.22704 28.871C4.537 29.556 1.80095 27.9305 1.11596 25.2403C0.431175 22.5502 2.05666 19.8142 4.74691 19.1292C5.56068 18.9221 6.41327 18.9221 7.22704 19.1292C7.39732 19.1709 7.57704 19.1209 7.7015 18.9975L19.0253 7.6731C19.1493 7.54904 19.1993 7.36891 19.1565 7.19885C18.4763 4.54023 20.08 1.83354 22.7386 1.15307C23.241 1.0247 23.7606 0.975405 24.2782 1.00765L21.6445 3.64245C21.5108 3.77595 21.4639 3.97375 21.5237 4.15306L22.5221 7.14894C22.572 7.29785 22.6891 7.41492 22.8382 7.46442L25.8341 8.46305C26.0132 8.52282 26.211 8.47619 26.3447 8.34269L28.9785 5.70892C28.9844 5.80422 28.9875 5.8985 28.9875 5.99236C29.0015 8.73581 26.789 10.9711 24.0455 10.9853C23.6214 10.9873 23.1987 10.9352 22.7879 10.83C22.6176 10.7875 22.4375 10.8372 22.3134 10.9613H22.3161V10.9615Z" fill="#7776BC"/>
    <path d="M25.8458 25.1115L25.1397 25.8176L20.147 20.8249L20.8529 20.1188L25.8458 25.1115Z" fill="#7776BC"/>
    </svg>
