<svg width="50" height="33" viewBox="0 0 50 33" fill="none" xmlns="http://www.w3.org/2000/svg">
<g clip-path="url(#clip0)">
<rect y="0.510254" width="50" height="32" rx="3" fill="#00579F"/>
<path d="M22.4669 22.0458H19.3887L21.314 11.0103H24.3921L22.4669 22.0458Z" fill="white"/>
<path d="M33.6256 11.2801C33.0184 11.0568 32.0554 10.8103 30.8646 10.8103C27.8247 10.8103 25.684 12.3129 25.6709 14.4612C25.6457 16.0463 27.2036 16.9266 28.3688 17.4551C29.5597 17.9951 29.9645 18.3476 29.9645 18.829C29.9524 19.5683 29.0022 19.9091 28.1159 19.9091C26.8869 19.9091 26.2284 19.7334 25.2277 19.3221L24.8224 19.1458L24.3916 21.623C25.1136 21.9279 26.4437 22.1984 27.8247 22.2103C31.0546 22.2103 33.1574 20.7309 33.1823 18.4416C33.1946 17.1853 32.372 16.2227 30.5985 15.4361C29.5218 14.9312 28.8625 14.5907 28.8625 14.0741C28.8751 13.6044 29.4201 13.1234 30.6355 13.1234C31.6362 13.0998 32.3715 13.3228 32.9285 13.5459L33.2069 13.6631L33.6256 11.2801Z" fill="white"/>
<path d="M37.7167 18.1363C37.9702 17.5023 38.9457 15.0486 38.9457 15.0486C38.9329 15.0722 39.1987 14.4029 39.3507 13.9921L39.5658 14.943C39.5658 14.943 40.1487 17.5845 40.2753 18.1363C39.7942 18.1363 38.3247 18.1363 37.7167 18.1363ZM41.5164 11.0103H39.1354C38.4011 11.0103 37.8433 11.2097 37.5265 11.9259L32.9541 22.0456H36.184C36.184 22.0456 36.7158 20.6836 36.8301 20.3902C37.1844 20.3902 40.3265 20.3902 40.7823 20.3902C40.8707 20.7776 41.1496 22.0456 41.1496 22.0456H43.9998L41.5164 11.0103Z" fill="white"/>
<path d="M16.8168 11.0103L13.8021 18.5354L13.4727 17.0092C12.9154 15.2482 11.1674 13.3349 9.2168 12.3835L11.9781 22.034H15.2333L20.0718 11.0103H16.8168Z" fill="white"/>
<path d="M11.0033 11.0103H6.05067L6 11.2332C9.86336 12.149 12.422 14.3564 13.4732 17.0097L12.3966 11.9379C12.2193 11.2331 11.6746 11.0335 11.0033 11.0103Z" fill="#FAA61A"/>
</g>
<defs>
<clipPath id="clip0">
<rect width="50" height="32" fill="white" transform="translate(0 0.510254)"/>
</clipPath>
</defs>
</svg>
