<svg width="45" height="45" viewBox="0 0 45 45" fill="none" xmlns="http://www.w3.org/2000/svg">
    <path d="M43.5505 34.3125L40.5692 31.3242C40.5039 31.2587 40.4263 31.2067 40.3409 31.1713C40.2555 31.1358 40.1639 31.1175 40.0714 31.1175C39.9786 31.1181 39.8869 31.137 39.8014 31.1732C39.716 31.2094 39.6386 31.2622 39.5736 31.3284L39.0772 31.8248L38.7172 31.4648L37.7722 27.6806C37.7413 27.5571 37.6776 27.4441 37.588 27.3537L30.2347 19.9948V11.25C30.2347 11.1224 30.1999 10.9972 30.1341 10.8879L28.1253 7.53961V7.03125H28.8284C29.0149 7.03125 29.1938 6.95717 29.3256 6.82531C29.4575 6.69345 29.5316 6.51461 29.5316 6.32812V2.10938C29.5316 1.92289 29.4575 1.74405 29.3256 1.61219C29.1938 1.48033 29.0149 1.40625 28.8284 1.40625H17.5784C17.392 1.40625 17.2131 1.48033 17.0813 1.61219C16.9494 1.74405 16.8753 1.92289 16.8753 2.10938V6.32812C16.8753 6.51461 16.9494 6.69345 17.0813 6.82531C17.2131 6.95717 17.392 7.03125 17.5784 7.03125V7.44328L14.972 10.0498C14.8401 10.1816 14.766 10.3604 14.7659 10.5469V18.9844C14.7672 19.2711 14.8275 19.5545 14.9431 19.8169L7.41266 27.3516C7.32299 27.442 7.25936 27.555 7.22844 27.6785L6.28415 31.4641L5.92204 31.8255L5.42563 31.3291C5.29378 31.1973 5.11496 31.1233 4.92852 31.1233C4.74208 31.1233 4.56327 31.1973 4.43141 31.3291L1.44805 34.3125C1.31624 34.4444 1.24219 34.6232 1.24219 34.8096C1.24219 34.9961 1.31624 35.1749 1.44805 35.3067L9.40321 43.2612C9.53506 43.393 9.71387 43.467 9.90032 43.467C10.0868 43.467 10.2656 43.393 10.3974 43.2612L13.3801 40.2778C13.5113 40.146 13.5849 39.9677 13.5849 39.7818C13.5849 39.5958 13.5113 39.4175 13.3801 39.2857L13.6705 38.9953H17.3605C17.5469 38.9953 17.7258 38.9212 17.8576 38.7893L22.5003 34.1409L27.1409 38.7893C27.2728 38.9212 27.4516 38.9953 27.6381 38.9953H31.3266L31.6184 39.2871C31.4877 39.4188 31.4143 39.5969 31.4143 39.7825C31.4143 39.968 31.4877 40.1461 31.6184 40.2778L34.5997 43.2591C34.7315 43.3909 34.9104 43.4649 35.0968 43.4649C35.2832 43.4649 35.4621 43.3909 35.5939 43.2591L43.5463 35.3067C43.6786 35.1754 43.7534 34.9969 43.7542 34.8105C43.755 34.624 43.6817 34.4449 43.5505 34.3125ZM18.2816 2.8125H28.1253V5.625H18.2816V2.8125ZM18.7787 8.23148C18.9105 8.09965 18.9847 7.92084 18.9847 7.73438V7.03125H26.7191V7.73438C26.7191 7.86197 26.7539 7.98714 26.8196 8.09648L28.8284 11.4448V18.9141C28.3714 18.7628 27.8774 18.7658 27.4222 18.9225V17.5781H26.0159V19.7578L25.6552 19.3971C25.3693 19.1094 25.0062 18.9106 24.6097 18.8248V17.5781H23.2034V19.0097C22.7873 19.2162 22.4561 19.5613 22.2669 19.9856L22.1748 19.8935C22.0608 19.781 21.9341 19.6821 21.7972 19.5989V17.5781H20.3909V19.3022C19.9371 19.3633 19.5157 19.5709 19.1907 19.8935C19.0699 20.017 18.965 20.1552 18.8785 20.3048C18.8425 20.1836 18.7954 20.0659 18.7379 19.9533C18.8984 19.6555 18.9832 19.3227 18.9847 18.9844V14.7656H17.5784V18.9141C17.1234 18.7537 16.6272 18.7537 16.1722 18.9141V10.838L18.7787 8.23148ZM9.90032 41.7698L2.93938 34.8089L4.92852 32.8205L11.8895 39.7814L9.90032 41.7698ZM17.0687 37.5891H13.3808C13.1943 37.5891 13.0155 37.6632 12.8837 37.7951L12.388 38.2873L6.91696 32.8198L7.41618 32.3205C7.50616 32.2302 7.57005 32.1173 7.6011 31.9936L8.5454 28.2101L16.3501 20.3948C16.4805 20.2637 16.657 20.1885 16.842 20.1854C17.027 20.1822 17.2059 20.2513 17.3408 20.378C17.352 20.3913 17.3626 20.4047 17.3745 20.4173C17.4966 20.5501 17.5625 20.725 17.5583 20.9053C17.5541 21.0856 17.4802 21.2572 17.352 21.3841L13.8716 24.8646L14.8658 25.8588L18.3463 22.3784C18.4674 22.2537 18.5727 22.1146 18.6598 21.9642C18.754 22.3091 18.9354 22.6238 19.1865 22.8783L19.2744 22.9662C19.057 23.0682 18.8585 23.2063 18.6873 23.3747C18.3531 23.7118 18.1432 24.1523 18.0917 24.6241L17.7873 24.9286L15.8607 26.8552L16.8549 27.8494L18.5305 26.1738C18.5791 26.2385 18.6314 26.3002 18.6873 26.3587L19.5134 27.1821L17.8505 28.845L18.8448 29.8392L20.5091 28.1749L20.6019 28.267C20.6186 28.2883 20.6367 28.3085 20.656 28.3275L21.4998 29.1712L17.8505 32.817L18.8448 33.8112L20.6729 31.983C20.7726 32.2976 20.9454 32.5841 21.177 32.8191L21.5026 33.1453L17.0687 37.5891ZM27.932 37.5891L22.1748 31.8234C22.1093 31.7581 22.0573 31.6805 22.0219 31.5951C21.9864 31.5097 21.9682 31.4181 21.9682 31.3256C21.9682 31.2331 21.9864 31.1416 22.0219 31.0561C22.0573 30.9707 22.1093 30.8931 22.1748 30.8278C22.2627 30.7368 22.3762 30.6745 22.5003 30.6492C22.5577 30.6493 22.6148 30.6422 22.6705 30.6281C22.8501 30.6252 23.0239 30.6923 23.1549 30.8152L26.1488 33.8091L27.1431 32.8148L19.6759 25.3547C19.5534 25.2314 19.4832 25.0657 19.4797 24.892C19.4755 24.7997 19.4896 24.7074 19.5212 24.6205C19.5527 24.5336 19.6011 24.4538 19.6635 24.3856C19.726 24.3174 19.8013 24.2622 19.885 24.2232C19.9688 24.1841 20.0595 24.1619 20.1519 24.158C20.1782 24.1615 20.2048 24.1636 20.2313 24.1643C20.3994 24.1772 20.5576 24.2486 20.6785 24.3661L26.1488 29.8364L27.1431 28.8422L20.1821 21.8813C20.1166 21.8159 20.0647 21.7383 20.0292 21.6529C19.9938 21.5675 19.9755 21.4759 19.9755 21.3834C19.9755 21.291 19.9938 21.1994 20.0292 21.114C20.0647 21.0285 20.1166 20.9509 20.1821 20.8856C20.248 20.8203 20.3263 20.7687 20.4124 20.7341C20.4985 20.6994 20.5906 20.6823 20.6834 20.6838C20.7552 20.6842 20.8264 20.6961 20.8944 20.719C21.0008 20.7496 21.0977 20.8069 21.1756 20.8856L28.1366 27.8466L29.1308 26.8523L23.6591 21.375C23.5362 21.2514 23.4659 21.0851 23.4629 20.9109C23.4593 20.815 23.4755 20.7193 23.5103 20.6298C23.5451 20.5403 23.5979 20.4589 23.6654 20.3906C23.7789 20.2821 23.9234 20.2116 24.0788 20.1888C24.1054 20.1835 24.1326 20.1812 24.1597 20.1818C24.253 20.1821 24.3454 20.201 24.4314 20.2372C24.5175 20.2734 24.5955 20.3262 24.661 20.3927L30.1313 25.863L31.1255 24.8688L27.6451 21.3884C27.5796 21.323 27.5277 21.2455 27.4922 21.16C27.4568 21.0746 27.4385 20.983 27.4385 20.8905C27.4385 20.7981 27.4568 20.7065 27.4922 20.6211C27.5277 20.5356 27.5796 20.458 27.6451 20.3927C27.7789 20.2642 27.9573 20.1924 28.1429 20.1924C28.3285 20.1924 28.5069 20.2642 28.6407 20.3927L36.4552 28.2101L37.3995 31.9922C37.4306 32.1158 37.4945 32.2288 37.5845 32.3191L38.0823 32.817L32.6113 38.2894L32.1191 37.7972C31.9872 37.6653 31.8084 37.5912 31.622 37.5912L27.932 37.5891ZM35.1038 41.7698L33.1133 39.7793L40.0742 32.8184L42.0598 34.8096L35.1038 41.7698Z" fill="#7776BC"/>
    <path d="M13.8164 12.3476L12.9023 11.2788C10.9976 12.9103 9.53905 14.9994 8.6639 17.3497C7.78875 19.6999 7.52574 22.2342 7.89961 24.7141L9.28968 24.5032C9.19029 23.8401 9.14047 23.1705 9.14062 22.5C9.13999 20.5704 9.55766 18.6635 10.3649 16.9109C11.1721 15.1582 12.3496 13.6013 13.8164 12.3476Z" fill="#7776BC"/>
    <path d="M23.2383 37.248L23.168 35.8418C22.725 35.8636 22.2736 35.8636 21.832 35.8418L21.7617 37.248C22.0057 37.2593 22.2539 37.2656 22.4993 37.2656C22.7447 37.2656 22.9929 37.2593 23.2383 37.248Z" fill="#7776BC"/>
    <path d="M37.1953 23.9765C37.2438 23.4907 37.2656 22.9922 37.2656 22.5C37.2663 20.3672 36.8047 18.2597 35.9125 16.3225C35.0203 14.3853 33.7188 12.6646 32.0977 11.2788L31.1836 12.3476C32.6504 13.6013 33.8279 15.1582 34.6351 16.9109C35.4423 18.6635 35.86 20.5704 35.8594 22.5C35.8594 22.9472 35.8369 23.3972 35.7933 23.8359L37.1953 23.9765Z" fill="#7776BC"/>
    <path d="M6.67973 25.8694C5.91807 22.2731 6.40226 18.5246 8.05274 15.2399C9.70323 11.9552 12.4219 9.32947 15.762 7.79418L15.1756 6.5166C11.5453 8.18532 8.59054 11.0391 6.79658 14.6091C5.00263 18.1791 4.47618 22.2531 5.30371 26.1619L6.67973 25.8694Z" fill="#7776BC"/>
    <path d="M19.8047 38.4482L19.5713 39.8348C21.5106 40.1592 23.4904 40.1592 25.4297 39.8348L25.1963 38.4482C23.4114 38.745 21.5897 38.745 19.8047 38.4482Z" fill="#7776BC"/>
    <path d="M38.6719 22.5C38.6723 23.6323 38.5545 24.7615 38.3203 25.8694L39.6963 26.1618C40.4654 22.5292 40.0664 18.7464 38.5565 15.3541C37.0465 11.9618 34.5029 9.13364 31.2891 7.2738L30.5859 8.49162C33.0407 9.91598 35.0791 11.959 36.4979 14.417C37.9167 16.8749 38.6662 19.6619 38.6719 22.5Z" fill="#7776BC"/>
    </svg>
