<svg width="45" height="45" viewBox="0 0 45 45" fill="none" xmlns="http://www.w3.org/2000/svg">
    <path d="M38.0299 17.2814C33.6115 13.8452 28.0962 11.9531 22.5 11.9531C16.9038 11.9531 11.3885 13.8452 6.97008 17.2814L0.974531 21.9452C0.803672 22.0781 0.703125 22.2827 0.703125 22.5C0.703125 22.7173 0.803672 22.9219 0.974531 23.0548L6.97008 27.7186C11.3885 31.1548 16.9038 33.0469 22.5 33.0469C28.0962 33.0469 33.6115 31.1548 38.0299 27.7186L44.0255 23.0548C44.1963 22.9219 44.2969 22.7173 44.2969 22.5C44.2969 22.2827 44.1963 22.0781 44.0255 21.9452L38.0299 17.2814ZM2.55164 22.5L7.83422 18.3909C9.78117 16.8771 11.9545 15.6853 14.2552 14.8395C12.3504 16.8862 11.25 19.6017 11.25 22.5C11.25 25.3983 12.3504 28.1138 14.2545 30.1598C11.9545 29.314 9.78047 28.1222 7.83352 26.6084L2.55164 22.5ZM17.8502 31.1752C14.6447 29.4539 12.6562 26.1422 12.6562 22.5C12.6562 18.8564 14.6447 15.5461 17.8509 13.8248C19.3774 13.5197 20.9348 13.3594 22.5 13.3594C24.0652 13.3594 25.6226 13.5197 27.1491 13.8248C30.3553 15.5454 32.3438 18.8571 32.3438 22.5C32.3438 26.145 30.3546 29.4553 27.147 31.1759C25.6212 31.4803 24.0645 31.6406 22.5 31.6406C20.9348 31.6406 19.3767 31.4803 17.8502 31.1752ZM37.1658 26.6091C35.2188 28.1229 33.0455 29.3147 30.7455 30.1605C32.6503 28.1138 33.75 25.399 33.75 22.5C33.75 19.6017 32.6496 16.8862 30.7448 14.8395C33.0448 15.6853 35.2188 16.8771 37.1658 18.3909L42.4484 22.5L37.1658 26.6091Z" fill="#7776BC" />
    <path d="M0.962891 18.4388L1.85023 19.5307L5.46078 16.5973C10.2617 12.6956 16.3128 10.5469 22.5003 10.5469C28.6878 10.5469 34.7389 12.6956 39.5398 16.5966L43.1504 19.53L44.0377 18.438L40.4272 15.5046C35.3759 11.4012 29.0098 9.14062 22.5003 9.14062C15.9908 9.14062 9.62469 11.4012 4.57344 15.5053L0.962891 18.4388Z" fill="#7776BC" />
    <path d="M39.5395 28.4034C34.7386 32.3044 28.6875 34.4531 22.5 34.4531V35.8594C29.0095 35.8594 35.3756 33.5988 40.4269 29.4947L39.5395 28.4034Z" fill="#7776BC" />
    <path d="M28.8281 22.5C28.8281 19.0104 25.9896 16.1719 22.5 16.1719C19.0104 16.1719 16.1719 19.0104 16.1719 22.5C16.1719 25.9896 19.0104 28.8281 22.5 28.8281C25.9896 28.8281 28.8281 25.9896 28.8281 22.5ZM22.5 27.4219C19.7866 27.4219 17.5781 25.2134 17.5781 22.5C17.5781 19.7866 19.7866 17.5781 22.5 17.5781C25.2134 17.5781 27.4219 19.7866 27.4219 22.5C27.4219 25.2134 25.2134 27.4219 22.5 27.4219Z" fill="#7776BC" />
    <path d="M22.5 19.6875C20.9489 19.6875 19.6875 20.9489 19.6875 22.5C19.6875 24.0511 20.9489 25.3125 22.5 25.3125C24.0511 25.3125 25.3125 24.0511 25.3125 22.5C25.3125 20.9489 24.0511 19.6875 22.5 19.6875ZM22.5 23.9062C21.7245 23.9062 21.0938 23.2755 21.0938 22.5C21.0938 21.7245 21.7245 21.0938 22.5 21.0938C23.2755 21.0938 23.9062 21.7245 23.9062 22.5C23.9062 23.2755 23.2755 23.9062 22.5 23.9062Z" fill="#7776BC" />
    <path d="M2.10938 2.10938H10.5469V0.703125H1.40625C1.01742 0.703125 0.703125 1.01742 0.703125 1.40625V10.5469H2.10938V2.10938Z" fill="#7776BC" />
    <path d="M43.5938 0.703125H34.4531V2.10938H42.8906V10.5469H44.2969V1.40625C44.2969 1.01742 43.9826 0.703125 43.5938 0.703125Z" fill="#7776BC" />
    <path d="M11.9531 0.703125H13.3594V2.10938H11.9531V0.703125Z" fill="#7776BC" />
    <path d="M31.6406 0.703125H33.0469V2.10938H31.6406V0.703125Z" fill="#7776BC" />
    <path d="M2.10938 34.4531H0.703125V43.5938C0.703125 43.9826 1.01742 44.2969 1.40625 44.2969H10.5469V42.8906H2.10938V34.4531Z" fill="#7776BC" />
    <path d="M42.8906 42.8906H34.4531V44.2969H43.5938C43.9826 44.2969 44.2969 43.9826 44.2969 43.5938V34.4531H42.8906V42.8906Z" fill="#7776BC" />
    <path d="M11.9531 42.8906H13.3594V44.2969H11.9531V42.8906Z" fill="#7776BC" />
    <path d="M31.6406 42.8906H33.0469V44.2969H31.6406V42.8906Z" fill="#7776BC" />
</svg>
