<svg width="46" height="45" viewBox="0 0 46 45" fill="none" xmlns="http://www.w3.org/2000/svg">
    <g clip-path="url(#clip0)">
        <path d="M38.7276 10.4899C38.7276 10.2075 38.5618 9.95113 38.3029 9.83334L23.0025 2.88349C22.8098 2.796 22.5883 2.796 22.3948 2.88349L7.09491 9.83334C6.83599 9.95113 6.66992 10.2075 6.66992 10.4899V22.0975C6.68338 29.4487 11.0063 36.1223 17.7443 39.1954L22.3982 41.3091C22.591 41.3966 22.8125 41.3966 23.0059 41.3091L27.6535 39.1954C34.3922 36.1223 38.7144 29.4482 38.7276 22.0966V10.4899ZM37.2704 22.0966C37.2595 28.8835 33.2701 35.0457 27.0492 37.8835L22.6987 39.8601L18.3486 37.8835C12.1282 35.0457 8.13834 28.8837 8.12694 22.0975V10.9529L22.6987 4.3336L37.2704 10.9529V22.0966Z" fill="#7776BC" />
        <path d="M45.1882 36.2154L39.214 30.29C40.3322 27.7004 40.9103 24.9137 40.9135 22.0966V9.09947C40.9135 8.81686 40.7479 8.56071 40.4887 8.44269L23.0027 0.499873C22.81 0.412152 22.5885 0.412152 22.395 0.499873L4.90902 8.44269C4.65056 8.56071 4.48426 8.81686 4.48426 9.09947V22.0966C4.48905 24.9137 5.06848 27.7006 6.1881 30.29L0.213592 36.2154C0.0299537 36.3974 -0.0423608 36.6624 0.0244788 36.9113C0.0913185 37.1602 0.286591 37.3549 0.53684 37.4227L5.80371 38.8446L7.2386 44.0644C7.30772 44.3117 7.50391 44.5041 7.75438 44.5695C7.81575 44.5858 7.87871 44.5937 7.94144 44.5937C8.13466 44.5937 8.3199 44.5175 8.45654 44.3823L13.5804 39.3044C14.6072 40.0188 15.696 40.6408 16.8345 41.1631L22.3991 43.6902C22.5919 43.778 22.8136 43.778 23.0066 43.6902L28.5707 41.1631C29.7095 40.6408 30.7983 40.0188 31.8253 39.3044L36.9487 44.3823C37.0851 44.5175 37.2706 44.5937 37.4638 44.5937C37.527 44.5937 37.59 44.5858 37.6509 44.5695C37.9016 44.5041 38.0978 44.3117 38.1669 44.0644L39.6013 38.8446L44.8686 37.4227C45.1189 37.3549 45.3142 37.1602 45.381 36.9113C45.4476 36.6624 45.3758 36.3974 45.1917 36.2154H45.1882ZM8.31077 42.4839L7.09648 38.0668C7.02827 37.8211 6.83437 37.6289 6.5864 37.5615L2.12822 36.3558L6.84646 31.6802C8.20241 34.2896 10.094 36.5896 12.3992 38.432L8.31077 42.4839ZM27.9603 39.8531L22.6989 42.2426L17.4379 39.8531C10.4419 36.6606 5.95473 29.7302 5.9415 22.0966V9.56249L22.6989 1.95043L39.4565 9.56249V22.0966C39.4437 29.7302 34.9563 36.6606 27.9603 39.8531ZM38.8161 37.5597C38.5682 37.6275 38.3742 37.8197 38.306 38.0655L37.0918 42.4825L33.0034 38.4306C35.309 36.5882 37.2001 34.2883 38.5558 31.6783L43.2743 36.3547L38.8161 37.5597Z" fill="#7776BC" />
        <path d="M17.3157 28C17.1957 28 17.0997 27.964 17.0277 27.892C16.9557 27.808 16.9197 27.706 16.9197 27.586V17.434L13.8957 19.756C13.8117 19.828 13.7217 19.864 13.6257 19.864C13.5177 19.864 13.4157 19.804 13.3197 19.684L12.8877 19.126C12.8277 19.042 12.7977 18.958 12.7977 18.874C12.7977 18.742 12.8577 18.634 12.9777 18.55L16.8837 15.526C17.0157 15.442 17.1717 15.4 17.3517 15.4H18.1977C18.3177 15.4 18.4137 15.442 18.4857 15.526C18.5697 15.598 18.6117 15.694 18.6117 15.814V27.586C18.6117 27.706 18.5697 27.808 18.4857 27.892C18.4137 27.964 18.3177 28 18.1977 28H17.3157ZM25.9501 28.18C25.0381 28.18 24.2221 28.03 23.5021 27.73C22.7941 27.418 22.2421 26.974 21.8461 26.398C21.4501 25.822 21.2521 25.15 21.2521 24.382C21.2521 23.674 21.4261 23.056 21.7741 22.528C22.1341 21.988 22.6141 21.574 23.2141 21.286C22.7341 21.01 22.3621 20.65 22.0981 20.206C21.8341 19.75 21.7021 19.216 21.7021 18.604C21.7021 17.56 22.0921 16.738 22.8721 16.138C23.6521 15.526 24.6781 15.22 25.9501 15.22C27.2221 15.22 28.2421 15.52 29.0101 16.12C29.7901 16.72 30.1801 17.548 30.1801 18.604C30.1801 19.204 30.0481 19.732 29.7841 20.188C29.5201 20.632 29.1541 20.998 28.6861 21.286C29.2861 21.574 29.7601 21.988 30.1081 22.528C30.4681 23.056 30.6481 23.68 30.6481 24.4C30.6481 25.168 30.4501 25.84 30.0541 26.416C29.6581 26.98 29.1001 27.418 28.3801 27.73C27.6721 28.03 26.8621 28.18 25.9501 28.18ZM25.9501 20.656C26.6821 20.632 27.3001 20.44 27.8041 20.08C28.3081 19.72 28.5601 19.24 28.5601 18.64C28.5601 18.028 28.3081 17.542 27.8041 17.182C27.3121 16.81 26.6941 16.624 25.9501 16.624C25.1941 16.624 24.5701 16.81 24.0781 17.182C23.5861 17.542 23.3401 18.028 23.3401 18.64C23.3401 19.252 23.5861 19.744 24.0781 20.116C24.5701 20.476 25.1941 20.656 25.9501 20.656ZM25.9501 26.776C26.8021 26.776 27.5101 26.56 28.0741 26.128C28.6501 25.696 28.9381 25.12 28.9381 24.4C28.9381 23.68 28.6501 23.104 28.0741 22.672C27.5101 22.24 26.8021 22.024 25.9501 22.024C25.0861 22.024 24.3661 22.24 23.7901 22.672C23.2261 23.104 22.9441 23.68 22.9441 24.4C22.9441 25.12 23.2261 25.696 23.7901 26.128C24.3661 26.56 25.0861 26.776 25.9501 26.776Z" fill="#7776BC" />
    </g>
    <defs>
        <clipPath id="clip0">
            <rect width="45.4054" height="45" fill="white" />
        </clipPath>
    </defs>
</svg>
