<svg width="45" height="45" viewBox="0 0 45 45" fill="none" xmlns="http://www.w3.org/2000/svg">
    <path d="M37.886 20.5477C37.886 12.0485 30.9963 5.15881 22.4971 5.15881C13.9979 5.15881 7.1084 12.0485 7.1084 20.5477C7.1084 29.0462 13.9979 35.9361 22.4971 35.9361C30.9919 35.9267 37.8761 29.0425 37.886 20.5477ZM22.4971 34.4709C14.8074 34.4709 8.57406 28.2371 8.57406 20.5477C8.57406 12.8581 14.8074 6.62448 22.4971 6.62448C30.1867 6.62448 36.4203 12.8581 36.4203 20.5477C36.4116 28.2334 30.1833 34.4622 22.4971 34.4709Z" fill="#7776BC"/>
    <path d="M44.7798 36.0036L39.9756 31.2054C40.0953 31.0907 40.2006 30.9622 40.2883 30.8216C40.6133 30.0625 40.6652 29.2151 40.4349 28.4225C40.3179 27.9754 40.297 27.5088 40.3729 27.0534C40.6053 26.6666 40.9157 26.3324 41.2846 26.0723C41.9804 25.6086 42.4926 24.9163 42.7328 24.1145C42.7768 23.2971 42.536 22.4894 42.0515 21.8294C41.7858 21.4443 41.605 21.0075 41.5209 20.5477C41.6055 20.0873 41.7872 19.6505 42.0535 19.2661C42.5383 18.6058 42.7791 17.7981 42.7353 16.9803C42.4949 16.1792 41.9826 15.4869 41.2864 15.0232C40.9187 14.7622 40.6097 14.4286 40.3777 14.0418C40.3018 13.5865 40.3229 13.1201 40.4399 12.6737C40.6705 11.8808 40.6186 11.0325 40.2938 10.2739C39.7948 9.6102 39.0814 9.13992 38.2746 8.94401C37.8339 8.82495 37.4237 8.61413 37.07 8.32531C36.8458 7.92569 36.7082 7.4834 36.6662 7.02757C36.6118 6.20057 36.2723 5.41807 35.7055 4.81382C35.0138 4.36052 34.1863 4.16185 33.3642 4.25086C32.906 4.28802 32.4452 4.22792 32.0114 4.07514C31.6684 3.77783 31.3913 3.4117 31.1979 3.00061C30.8641 2.23738 30.2745 1.61386 29.531 1.23764C28.7295 1.04998 27.8883 1.14633 27.1503 1.5104C26.7286 1.70539 26.2703 1.80793 25.8062 1.81161C25.3875 1.65102 25.0072 1.40533 24.6895 1.08875C24.1082 0.48152 23.3328 0.0963498 22.4975 0C21.6643 0.0977262 20.891 0.482667 20.3108 1.08875C19.9933 1.40533 19.6125 1.65102 19.1941 1.81161C18.7298 1.80885 18.2717 1.70608 17.8502 1.5104C17.1118 1.14633 16.2703 1.04975 15.4688 1.23764C14.7255 1.61409 14.1362 2.23738 13.8022 3.00061C13.609 3.4117 13.3319 3.77783 12.9887 4.07514C12.5551 4.22792 12.0943 4.28802 11.6361 4.25086C10.814 4.16208 9.98672 4.36052 9.29461 4.81382C8.72752 5.41807 8.388 6.20057 8.33386 7.02757C8.29234 7.48317 8.15493 7.92523 7.93103 8.32439C7.57729 8.61298 7.16688 8.8238 6.7262 8.9431C5.91915 9.13924 5.20525 9.60929 4.70698 10.2739C4.38146 11.0323 4.32961 11.8804 4.55993 12.673C4.67555 13.1201 4.69482 13.5865 4.61728 14.0418C4.38559 14.4286 4.07658 14.7622 3.70838 15.0232C3.01283 15.4869 2.50034 16.1792 2.2597 16.9803C2.21657 17.7981 2.45698 18.6054 2.9408 19.2661C3.2076 19.6503 3.38928 20.0871 3.47416 20.5477C3.38928 21.0077 3.2076 21.4447 2.9408 21.8294C2.45698 22.4899 2.21657 23.2971 2.2597 24.1145C2.50034 24.9163 3.01283 25.6086 3.70838 26.0723C4.07658 26.3326 4.38559 26.6669 4.61728 27.0534C4.69322 27.5086 4.67234 27.9752 4.55512 28.4216C4.32479 29.2142 4.37664 30.0625 4.70148 30.8216C4.78911 30.9622 4.89418 31.0916 5.01461 31.2063L0.215247 36.0036C0.0301175 36.1883 -0.0423742 36.4576 0.0243824 36.7102C0.0918272 36.9634 0.288427 37.161 0.540771 37.2296L5.8384 38.6725L7.28113 43.9699C7.35041 44.2211 7.54769 44.4163 7.79981 44.4831C7.86129 44.4987 7.9246 44.5069 7.98815 44.5069C8.18268 44.5069 8.36896 44.4296 8.50637 44.2922L14.1488 38.6537C14.4468 39.188 14.912 39.6101 15.4732 39.8544C16.2742 40.0423 17.1159 39.9459 17.8539 39.5823C18.2746 39.3857 18.7332 39.283 19.1978 39.2809C19.6167 39.441 19.9968 39.6874 20.3147 40.0033C20.8933 40.6096 21.6655 40.9957 22.4975 41.0955C23.3309 40.9977 24.104 40.6126 24.684 40.006C25.0019 39.6901 25.3827 39.4438 25.8009 39.2839C26.2655 39.2864 26.7241 39.3889 27.1448 39.5851C27.8835 39.9489 28.7249 40.045 29.5265 39.8578C30.0878 39.6128 30.553 39.191 30.8515 38.6565L36.4939 44.295C36.6316 44.4326 36.8181 44.5099 37.0121 44.5099C37.0755 44.5099 37.1388 44.5017 37.2003 44.4858C37.4521 44.4193 37.6497 44.2241 37.7192 43.9729L39.1623 38.6755L44.4595 37.2328C44.7119 37.1639 44.9087 36.9662 44.9757 36.7136C45.0424 36.4604 44.9699 36.1915 44.785 36.0064L44.7798 36.0036ZM8.36323 42.3659L7.14188 37.8831C7.07351 37.634 6.87829 37.4388 6.62893 37.3704L2.14568 36.1475L6.30868 31.9902C6.44862 32.0452 6.58924 32.101 6.72574 32.1515C7.16619 32.2705 7.57637 32.4813 7.93034 32.7699C8.15447 33.1693 8.29211 33.6116 8.33386 34.0677C8.38846 34.8945 8.72775 35.6772 9.29461 36.2814C9.98741 36.7354 10.8165 36.9343 11.6398 36.8442C12.0982 36.8072 12.559 36.8671 12.9924 37.0201C13.1339 37.1169 13.2557 37.2394 13.3507 37.3819L8.36323 42.3659ZM29.9288 37.3544C29.6359 37.8517 29.3354 38.3663 29.0238 38.4803C28.5435 38.5126 28.0633 38.417 27.6313 38.2034C26.9787 37.9042 26.26 37.7783 25.5447 37.837C24.8663 38.0221 24.2476 38.3793 23.7478 38.8732C23.2995 39.244 22.8354 39.6266 22.4945 39.6266C22.1539 39.6266 21.6886 39.244 21.2415 38.8732C20.7423 38.3812 20.1241 38.0258 19.4476 37.8416C19.3182 37.8187 19.187 37.8081 19.0558 37.8083C18.4722 37.8444 17.8991 37.9786 17.3607 38.2048C16.9299 38.4174 16.4513 38.5131 15.9721 38.4823C15.6599 38.3679 15.3578 37.8531 15.0662 37.3557C14.7645 36.7145 14.302 36.1626 13.7237 35.7533C13.0761 35.4521 12.362 35.3239 11.6499 35.3801C11.1682 35.4331 10.6809 35.3572 10.2379 35.1603C9.9663 34.7568 9.80687 34.2881 9.77567 33.8029C9.70822 33.0934 9.45932 32.4132 9.05213 31.8285C8.54767 31.3274 7.92185 30.9659 7.23547 30.7789C6.72276 30.5876 6.13617 30.3713 5.97467 30.088C5.85905 29.6186 5.86937 29.1275 6.0038 28.6631C6.1832 27.9708 6.18067 27.2431 5.99646 26.5522C5.69502 25.9149 5.23415 25.3659 4.65949 24.9585C4.2195 24.5823 3.76138 24.1941 3.70655 23.8592C3.76092 23.385 3.93756 22.9338 4.2195 22.5491C4.62784 21.9549 4.87628 21.2655 4.93983 20.5477C4.87536 19.8286 4.62646 19.1383 4.21652 18.5441C3.93481 18.1592 3.75794 17.7077 3.70357 17.234C3.76138 16.9027 4.21652 16.5146 4.65605 16.1347C5.2314 15.7273 5.69204 15.1783 5.99348 14.5408C6.17769 13.8494 6.18021 13.1224 6.00082 12.4296C5.86639 11.9655 5.8563 11.4743 5.97237 11.0052C6.13709 10.7207 6.72 10.5047 7.2341 10.3131C7.91956 10.1261 8.54537 9.76436 9.05006 9.26426C9.45702 8.67905 9.70593 7.99933 9.77246 7.28955C9.80411 6.80436 9.96378 6.33637 10.2349 5.93239C10.6784 5.73579 11.1656 5.65986 11.6476 5.71285C12.3594 5.76906 13.0736 5.64059 13.7207 5.33984C14.2991 4.93036 14.7613 4.37818 15.0632 3.73722C15.3564 3.23942 15.6571 2.72509 15.9682 2.61108C16.4488 2.5785 16.9294 2.67394 17.3607 2.88774C18.0131 3.18826 18.7318 3.31397 19.4476 3.25433C20.1257 3.06943 20.7446 2.71316 21.2443 2.2188C21.6914 1.84808 22.1568 1.46566 22.4975 1.46566C22.8379 1.46566 23.3039 1.84808 23.7505 2.2188C24.2504 2.71248 24.8693 3.0692 25.5477 3.25364C26.2632 3.31237 26.9814 3.18597 27.6343 2.88728C28.0658 2.67325 28.5462 2.57759 29.0268 2.61016C29.3388 2.72463 29.6409 3.23896 29.9325 3.73677C30.2344 4.37749 30.6966 4.92967 31.275 5.33938C31.9226 5.63967 32.6367 5.76837 33.3488 5.71217C33.8305 5.65963 34.3178 5.73534 34.7608 5.93194C35.0324 6.33546 35.1918 6.8039 35.2235 7.28909C35.2895 8.00001 35.5387 8.68157 35.9466 9.2677C36.4512 9.76872 37.0773 10.13 37.7632 10.3172C38.2762 10.5081 38.8625 10.7244 39.0247 11.008C39.1396 11.4771 39.1298 11.9685 38.9951 12.4323C38.8155 13.1254 38.818 13.8521 39.0022 14.544C39.3039 15.1813 39.7645 15.73 40.3399 16.1377C40.7796 16.5137 41.2375 16.9018 41.2921 17.237C41.2378 17.7107 41.0611 18.1622 40.7796 18.5471C40.3699 19.1406 40.1206 19.8297 40.0554 20.5477C40.1197 21.2665 40.3688 21.9567 40.7785 22.5509C41.0604 22.9358 41.2373 23.3875 41.2917 23.8615C41.2336 24.1927 40.7785 24.5809 40.339 24.9603C39.7636 25.368 39.3032 25.9172 39.0018 26.554C38.8173 27.2454 38.815 27.9731 38.9944 28.6657C39.1286 29.1298 39.1385 29.6211 39.0226 30.09C38.8582 30.3743 38.2752 30.5906 37.7611 30.7817C37.0755 30.9693 36.4496 31.3307 35.9452 31.8312C35.538 32.4157 35.2893 33.0961 35.2228 33.8052C35.1907 34.2904 35.0312 34.7589 34.7601 35.1624C34.3169 35.3592 33.8294 35.4352 33.3474 35.3822C32.6358 35.326 31.9214 35.4544 31.2743 35.7552C30.6953 36.1637 30.2319 36.7143 29.9288 37.3544ZM38.3679 37.369C38.1181 37.4374 37.9231 37.6326 37.8547 37.8818L36.6332 42.3645L31.6503 37.3814C31.7457 37.2387 31.8671 37.116 32.0086 37.0197C32.4422 36.8664 32.9031 36.8065 33.3614 36.8435C34.1843 36.9334 35.0136 36.7343 35.7061 36.2805C36.2732 35.6763 36.613 34.8938 36.6667 34.0668C36.7089 33.6112 36.8461 33.1691 37.07 32.7699C37.4237 32.4818 37.8346 32.271 38.2746 32.1515C38.4117 32.101 38.5526 32.0452 38.6923 31.9893L42.8553 36.1468L38.3679 37.369Z" fill="#7776BC"/>
    </svg>
