<svg width="45" height="45" viewBox="0 0 45 45" fill="none" xmlns="http://www.w3.org/2000/svg">
<path d="M43.4617 19.9763H41.841V14.9131C41.841 12.3685 39.7709 10.2983 37.2262 10.2983H31.645L19.4177 4.35694C19.0902 4.19777 18.6957 4.33427 18.5366 4.66175C18.3774 4.98923 18.5139 5.38368 18.8414 5.54285L28.6282 10.2983H27.5474L11.8574 5.67671L12.956 3.41598C13.0329 3.25761 13.167 3.13869 13.3334 3.08103C13.4998 3.02355 13.6787 3.0341 13.8371 3.11109L15.8196 4.07446C16.1471 4.23372 16.5415 4.09714 16.7007 3.76966C16.8599 3.44218 16.7234 3.04772 16.3959 2.88855L14.4134 1.92518C13.9382 1.69421 13.4017 1.66222 12.9023 1.83501C12.403 2.00771 12.0009 2.36455 11.77 2.83969L10.575 5.29904L7.06474 4.26501C6.55805 4.11577 6.02341 4.17264 5.55952 4.4255C5.09563 4.67827 4.75796 5.09654 4.60872 5.60332L3.1558 10.536C1.32425 11.1482 0 12.8784 0 14.9131V19.8136C0 20.1777 0.295137 20.4728 0.659268 20.4728C1.0234 20.4728 1.31854 20.1777 1.31854 19.8136V14.9131C1.31854 13.0956 2.79721 11.6168 4.61487 11.6168H37.2262C39.0438 11.6168 40.5226 13.0955 40.5226 14.9131V15.4302H39.8654C39.5013 15.4302 39.2062 15.7253 39.2062 16.0895C39.2062 16.4536 39.5013 16.7487 39.8654 16.7487H40.5226V19.9763H30.0117C26.6298 19.9763 23.8785 22.7277 23.8785 26.1095C23.8785 29.4914 26.6298 32.2427 30.0117 32.2427H35.4683C35.8324 32.2427 36.1275 31.9476 36.1275 31.5834C36.1275 31.2193 35.8324 30.9242 35.4683 30.9242H30.0117C27.3568 30.9242 25.197 28.7643 25.197 26.1095C25.197 23.4547 27.3568 21.2949 30.0117 21.2949H43.4617C43.5829 21.2949 43.6815 21.3935 43.6815 21.5146V30.7044C43.6815 30.8256 43.5829 30.9242 43.4617 30.9242H38.9678C38.6037 30.9242 38.3085 31.2193 38.3085 31.5834C38.3085 31.9476 38.6037 32.2427 38.9678 32.2427H40.5226V36.8752H39.8654C39.5013 36.8752 39.2062 37.1704 39.2062 37.5345C39.2062 37.8986 39.5013 38.1938 39.8654 38.1938H40.5226V38.6598C40.5226 40.4774 39.0439 41.9561 37.2262 41.9561H4.61479C2.79721 41.9561 1.31845 40.4774 1.31845 38.6598V23.2402C1.31845 22.8761 1.02331 22.581 0.65918 22.581C0.295049 22.581 0 22.8762 0 23.2402V38.6598C0 41.2044 2.07018 43.2746 4.61479 43.2746H37.2262C39.7708 43.2746 41.8409 41.2044 41.8409 38.6598V32.2427H43.4617C44.3099 32.2427 44.9999 31.5526 44.9999 30.7044V21.5147C45 20.6665 44.3099 19.9763 43.4617 19.9763ZM4.60028 10.2987L5.87356 5.97589C5.9763 5.62722 6.34324 5.4271 6.69226 5.52975L22.881 10.2983H4.61479C4.60995 10.2983 4.60512 10.2987 4.60028 10.2987Z" fill="#7776BC"/>
<path d="M27.0674 26.1096C27.0674 27.8455 28.4796 29.2577 30.2154 29.2577C31.9513 29.2577 33.3635 27.8455 33.3635 26.1096C33.3635 24.3738 31.9513 22.9615 30.2154 22.9615C28.4796 22.9615 27.0674 24.3738 27.0674 26.1096ZM32.0451 26.1096C32.0451 27.1184 31.2243 27.9391 30.2155 27.9391C29.2067 27.9391 28.386 27.1184 28.386 26.1096C28.386 25.1008 29.2067 24.2801 30.2155 24.2801C31.2243 24.2801 32.0451 25.1008 32.0451 26.1096Z" fill="#7776BC"/>
<path d="M11.8864 15.4302H9.34286C8.97873 15.4302 8.68359 15.7253 8.68359 16.0894C8.68359 16.4536 8.97873 16.7487 9.34286 16.7487H11.8864C12.2506 16.7487 12.5457 16.4536 12.5457 16.0894C12.5457 15.7253 12.2505 15.4302 11.8864 15.4302Z" fill="#7776BC"/>
<path d="M16.9733 15.4302H14.4298C14.0656 15.4302 13.7705 15.7253 13.7705 16.0894C13.7705 16.4536 14.0656 16.7487 14.4298 16.7487H16.9733C17.3375 16.7487 17.6326 16.4536 17.6326 16.0894C17.6326 15.7253 17.3374 15.4302 16.9733 15.4302Z" fill="#7776BC"/>
<path d="M22.0602 15.4302H19.5167C19.1526 15.4302 18.8574 15.7253 18.8574 16.0894C18.8574 16.4536 19.1526 16.7487 19.5167 16.7487H22.0602C22.4244 16.7487 22.7195 16.4536 22.7195 16.0894C22.7195 15.7253 22.4243 15.4302 22.0602 15.4302Z" fill="#7776BC"/>
<path d="M32.235 16.7487C32.5992 16.7487 32.8943 16.4536 32.8943 16.0894C32.8943 15.7253 32.5992 15.4302 32.235 15.4302H29.6915C29.3274 15.4302 29.0322 15.7253 29.0322 16.0894C29.0322 16.4536 29.3274 16.7487 29.6915 16.7487H32.235Z" fill="#7776BC"/>
<path d="M27.1481 16.7487C27.5123 16.7487 27.8074 16.4536 27.8074 16.0894C27.8074 15.7253 27.5123 15.4302 27.1481 15.4302H24.6046C24.2404 15.4302 23.9453 15.7253 23.9453 16.0894C23.9453 16.4536 24.2404 16.7487 24.6046 16.7487H27.1481Z" fill="#7776BC"/>
<path d="M37.322 16.7487C37.6861 16.7487 37.9812 16.4536 37.9812 16.0894C37.9812 15.7253 37.6861 15.4302 37.322 15.4302H34.7784C34.4143 15.4302 34.1191 15.7253 34.1191 16.0894C34.1191 16.4536 34.4143 16.7487 34.7784 16.7487H37.322Z" fill="#7776BC"/>
<path d="M5.48251 18.0652C5.84664 18.0652 6.14178 17.77 6.14178 17.4059V16.8807C6.14178 16.808 6.20093 16.7488 6.27361 16.7488H6.79885C7.16298 16.7488 7.45811 16.4537 7.45811 16.0896C7.45811 15.7254 7.16298 15.4303 6.79885 15.4303H6.27361C5.4739 15.4303 4.82324 16.081 4.82324 16.8807V17.4059C4.82324 17.7699 5.11838 18.0652 5.48251 18.0652Z" fill="#7776BC"/>
<path d="M4.82324 28.1558C4.82324 28.5199 5.11838 28.8151 5.48251 28.8151C5.84664 28.8151 6.14178 28.5199 6.14178 28.1558V25.4684C6.14178 25.1042 5.84664 24.8091 5.48251 24.8091C5.11838 24.8091 4.82324 25.1042 4.82324 25.4684V28.1558Z" fill="#7776BC"/>
<path d="M4.82324 33.5307C4.82324 33.8949 5.11838 34.19 5.48251 34.19C5.84664 34.19 6.14178 33.8949 6.14178 33.5307V30.8432C6.14178 30.4791 5.84664 30.184 5.48251 30.184C5.11838 30.184 4.82324 30.4791 4.82324 30.8432V33.5307Z" fill="#7776BC"/>
<path d="M4.82324 22.7808C4.82324 23.1449 5.11838 23.4401 5.48251 23.4401C5.84664 23.4401 6.14178 23.1449 6.14178 22.7808V20.0934C6.14178 19.7292 5.84664 19.4341 5.48251 19.4341C5.11838 19.4341 4.82324 19.7292 4.82324 20.0934V22.7808Z" fill="#7776BC"/>
<path d="M4.82324 36.7435C4.82324 37.5432 5.4739 38.1938 6.27361 38.1938H6.79885C7.16298 38.1938 7.45811 37.8987 7.45811 37.5346C7.45811 37.1704 7.16298 36.8753 6.79885 36.8753H6.27361C6.20093 36.8753 6.14178 36.8161 6.14178 36.7435V36.2182C6.14178 35.8541 5.84664 35.559 5.48251 35.559C5.11838 35.559 4.82324 35.8541 4.82324 36.2182V36.7435Z" fill="#7776BC"/>
<path d="M9.34286 36.8752C8.97873 36.8752 8.68359 37.1704 8.68359 37.5345C8.68359 37.8986 8.97873 38.1938 9.34286 38.1938H11.8864C12.2506 38.1938 12.5457 37.8986 12.5457 37.5345C12.5457 37.1704 12.2506 36.8752 11.8864 36.8752H9.34286Z" fill="#7776BC"/>
<path d="M32.235 38.1938C32.5992 38.1938 32.8943 37.8986 32.8943 37.5345C32.8943 37.1704 32.5992 36.8752 32.235 36.8752H29.6915C29.3274 36.8752 29.0322 37.1704 29.0322 37.5345C29.0322 37.8986 29.3274 38.1938 29.6915 38.1938H32.235Z" fill="#7776BC"/>
<path d="M19.5167 36.8752C19.1526 36.8752 18.8574 37.1704 18.8574 37.5345C18.8574 37.8986 19.1526 38.1938 19.5167 38.1938H22.0602C22.4244 38.1938 22.7195 37.8986 22.7195 37.5345C22.7195 37.1704 22.4244 36.8752 22.0602 36.8752H19.5167Z" fill="#7776BC"/>
<path d="M27.1481 38.1938C27.5123 38.1938 27.8074 37.8986 27.8074 37.5345C27.8074 37.1704 27.5123 36.8752 27.1481 36.8752H24.6046C24.2404 36.8752 23.9453 37.1704 23.9453 37.5345C23.9453 37.8986 24.2404 38.1938 24.6046 38.1938H27.1481Z" fill="#7776BC"/>
<path d="M37.322 38.1938C37.6861 38.1938 37.9812 37.8986 37.9812 37.5345C37.9812 37.1704 37.6861 36.8752 37.322 36.8752H34.7784C34.4143 36.8752 34.1191 37.1704 34.1191 37.5345C34.1191 37.8986 34.4143 38.1938 34.7784 38.1938H37.322Z" fill="#7776BC"/>
<path d="M14.4298 36.8752C14.0656 36.8752 13.7705 37.1704 13.7705 37.5345C13.7705 37.8986 14.0656 38.1938 14.4298 38.1938H16.9733C17.3375 38.1938 17.6326 37.8986 17.6326 37.5345C17.6326 37.1704 17.3375 36.8752 16.9733 36.8752H14.4298Z" fill="#7776BC"/>
</svg>
