<svg width="49" height="39" viewBox="0 0 49 39" fill="none" xmlns="http://www.w3.org/2000/svg">
    <path d="M44.5957 14.595C42.3222 14.595 40.5415 16.3755 40.5415 18.6492V19.8654C40.5415 20.3129 40.9048 20.6762 41.3523 20.6762C41.7999 20.6762 42.1631 20.3129 42.1631 19.8654V18.6492C42.1631 17.2626 43.2091 16.2167 44.5956 16.2167C45.9821 16.2167 47.0281 17.2626 47.0281 18.6492V31.6224C47.0281 32.9635 45.9367 34.0549 44.5956 34.0549H4.05419C2.71309 34.0549 1.6217 32.9635 1.6217 31.6224V18.6492C1.6217 17.2626 2.66767 16.2167 4.05419 16.2167C5.44071 16.2167 6.48669 17.2626 6.48669 18.6492V19.8654C6.48669 20.3129 6.84994 20.6762 7.29749 20.6762C7.74503 20.6762 8.10828 20.3129 8.10828 19.8654V18.6492C8.10828 16.3756 6.32772 14.595 4.0541 14.595C1.78057 14.595 0 16.3755 0 18.6492V31.6224C0 33.8579 1.81867 35.6766 4.05419 35.6766H44.5958C46.8312 35.6766 48.6499 33.8579 48.6499 31.6224V18.6492C48.6499 16.3755 46.8693 14.595 44.5957 14.595Z" fill="#7776BC"/>
    <path d="M6.48633 25.1359V28.3791C6.48633 28.8267 6.84959 29.1899 7.29713 29.1899H41.3521C41.7996 29.1899 42.1629 28.8267 42.1629 28.3791V25.1359C42.1629 22.9004 40.3442 21.0817 38.1087 21.0817H10.5404C8.305 21.0818 6.48633 22.9004 6.48633 25.1359ZM40.5413 25.1359V27.5684H8.10793V25.1359C8.10793 23.7948 9.19932 22.7034 10.5404 22.7034H38.1087C39.4499 22.7034 40.5413 23.7948 40.5413 25.1359Z" fill="#7776BC"/>
    <path d="M20.271 8.10829C20.271 7.66074 19.9086 7.29749 19.4602 7.29749C19.0118 7.29749 18.6494 7.66074 18.6494 8.10829C18.6494 8.55583 19.0118 8.91909 19.4602 8.91909C19.9086 8.91909 20.271 8.55592 20.271 8.10829Z" fill="#7776BC"/>
    <path d="M7.29713 14.2197C7.74467 14.2197 8.10793 13.8564 8.10793 13.4089V8.1085C8.10793 6.31492 9.0509 4.92032 10.9028 3.96841C10.9499 3.9457 15.6965 1.62191 24.3245 1.62191C34.348 1.62191 37.597 3.87444 37.6222 3.89221C37.6635 3.923 37.7073 3.95055 37.7543 3.9725C40.0579 5.0923 40.5412 6.83961 40.5412 8.1086V13.409C40.5412 13.8565 40.9044 14.2198 41.352 14.2198C41.7995 14.2198 42.1628 13.8565 42.1628 13.409V8.1086C42.1628 5.68019 40.8695 3.70578 38.5197 2.54227C37.9555 2.16343 34.2905 0.00012207 24.3246 0.00012207C15.3179 0.00012207 10.3839 2.41561 10.1699 2.52184C7.12524 4.08671 6.48633 6.42352 6.48633 8.1085V13.4089C6.48633 13.8564 6.84959 14.2197 7.29713 14.2197Z" fill="#7776BC"/>
    <path d="M15.4058 14.595C15.4058 14.1474 15.0434 13.7842 14.595 13.7842C14.1466 13.7842 13.7842 14.1474 13.7842 14.595C13.7842 15.0425 14.1466 15.4058 14.595 15.4058C15.0434 15.4058 15.4058 15.0425 15.4058 14.595Z" fill="#7776BC"/>
    <path d="M10.541 37.2983H5.67603C5.22849 37.2983 4.86523 37.6616 4.86523 38.1091C4.86523 38.5567 5.22849 38.9199 5.67603 38.9199H10.541C10.9886 38.9199 11.3518 38.5567 11.3518 38.1091C11.3518 37.6616 10.9887 37.2983 10.541 37.2983Z" fill="#7776BC"/>
    <path d="M42.9736 37.2983H38.1087C37.6611 37.2983 37.2979 37.6616 37.2979 38.1091C37.2979 38.5567 37.6611 38.9199 38.1087 38.9199H42.9736C43.4212 38.9199 43.7844 38.5567 43.7844 38.1091C43.7844 37.6616 43.4212 37.2983 42.9736 37.2983Z" fill="#7776BC"/>
    <path d="M25.1353 14.595C25.1353 14.1474 24.7729 13.7842 24.3245 13.7842C23.8761 13.7842 23.5137 14.1474 23.5137 14.595C23.5137 15.0425 23.8761 15.4058 24.3245 15.4058C24.7729 15.4058 25.1353 15.0425 25.1353 14.595Z" fill="#7776BC"/>
    <path d="M30.0005 8.10829C30.0005 7.66074 29.6381 7.29749 29.1897 7.29749C28.7413 7.29749 28.3789 7.66074 28.3789 8.10829C28.3789 8.55583 28.7413 8.91909 29.1897 8.91909C29.6381 8.91909 30.0005 8.55592 30.0005 8.10829Z" fill="#7776BC"/>
    <path d="M34.8657 14.595C34.8657 14.1474 34.5033 13.7842 34.0549 13.7842C33.6065 13.7842 33.2441 14.1474 33.2441 14.595C33.2441 15.0425 33.6065 15.4058 34.0549 15.4058C34.5033 15.4058 34.8657 15.0425 34.8657 14.595Z" fill="#7776BC"/>
    </svg>
