<svg width="52" height="40" viewBox="0 0 52 40" fill="none" xmlns="http://www.w3.org/2000/svg">
<path d="M1 14.864V35.4321" stroke="white" stroke-width="2" stroke-miterlimit="10"/>
<path d="M12.2983 14.864V36.633" stroke="white" stroke-width="2" stroke-miterlimit="10"/>
<path d="M40.2397 18.2163H12.2983" stroke="white" stroke-width="2" stroke-miterlimit="10"/>
<path d="M11.2219 13.7877H2.07617" stroke="white" stroke-width="2" stroke-miterlimit="10"/>
<path d="M29.0552 1H7.54614" stroke="white" stroke-width="2" stroke-miterlimit="10"/>
<path d="M39.7016 29.514H12.2983" stroke="white" stroke-width="2" stroke-miterlimit="10"/>
<path d="M2.07632 36.5079C1.48214 36.5079 1 36.0269 1 35.4321" stroke="white" stroke-width="2" stroke-miterlimit="10"/>
<path d="M1 14.864C1 14.2693 1.48273 13.7877 2.07632 13.7877" stroke="white" stroke-width="2" stroke-miterlimit="10"/>
<path d="M12.2985 14.864C12.2985 14.2693 11.8158 13.7877 11.2222 13.7877" stroke="white" stroke-width="2" stroke-miterlimit="10"/>
<path d="M6.46973 2.07632C6.46973 1.48214 6.95187 1 7.54545 1" stroke="white" stroke-width="2" stroke-miterlimit="10"/>
<path d="M6.46973 2.07629V13.7877" stroke="white" stroke-width="2" stroke-miterlimit="10"/>
<path d="M13.4903 37.8369H5.27783V39.0289H13.4903V37.8369Z" fill="white"/>
<path d="M5.87382 36.6216H4.68188V39.0287H5.87382V36.6216Z" fill="white"/>
<path d="M14.0862 36.6216H12.8943V39.0287H14.0862V36.6216Z" fill="white"/>
<path d="M41.4241 36.6329H40.2322V38.4304H41.4241V36.6329Z" fill="white"/>
<path d="M48.444 37.8369H40.2322V39.0289H48.444V37.8369Z" fill="white"/>
<path d="M49.0403 36.6216H47.8484V39.0287H49.0403V36.6216Z" fill="white"/>
<path d="M2.07617 36.5078H49.9236" stroke="white" stroke-width="2" stroke-miterlimit="10"/>
<path d="M28.2043 1H44.6364" stroke="white" stroke-width="2" stroke-miterlimit="10"/>
<path d="M45.5618 2.07629V14.0118" stroke="white" stroke-width="2" stroke-miterlimit="10"/>
<path d="M44.4854 1C45.0789 1 45.5617 1.48214 45.5617 2.07632" stroke="white" stroke-width="2" stroke-miterlimit="10"/>
<path d="M51 35.4316V14.8635" stroke="white" stroke-width="2" stroke-miterlimit="10"/>
<path d="M39.7014 36.6325V14.8635" stroke="white" stroke-width="2" stroke-miterlimit="10"/>
<path d="M49.9236 13.7871H40.7778" stroke="white" stroke-width="2" stroke-miterlimit="10"/>
<path d="M50.9999 35.4314C50.9999 36.0262 50.5178 36.5071 49.9236 36.5071" stroke="white" stroke-width="2" stroke-miterlimit="10"/>
<path d="M49.9236 13.7871C50.5172 13.7871 50.9999 14.2687 50.9999 14.8634" stroke="white" stroke-width="2" stroke-miterlimit="10"/>
<path d="M40.7777 13.7871C40.1842 13.7871 39.7014 14.2687 39.7014 14.8634" stroke="white" stroke-width="2" stroke-miterlimit="10"/>
<path d="M30.9827 8.42041L33.3581 10.7959" stroke="white" stroke-miterlimit="10" stroke-linecap="round" stroke-linejoin="round"/>
<path d="M30.9822 10.7959L33.3582 8.42041" stroke="white" stroke-miterlimit="10" stroke-linecap="round" stroke-linejoin="round"/>
<path d="M19.1807 8.42041L21.5562 10.7959" stroke="white" stroke-miterlimit="10" stroke-linecap="round" stroke-linejoin="round"/>
<path d="M19.1799 10.7959L21.5561 8.42041" stroke="white" stroke-miterlimit="10" stroke-linecap="round" stroke-linejoin="round"/>
</svg>
