<svg width="50" height="40" viewBox="0 0 50 40" fill="none" xmlns="http://www.w3.org/2000/svg">
<path d="M10.9187 5.47607H7.78955V6.97402H10.9187V5.47607Z" fill="white"/>
<path d="M18.7417 5.47607H15.6125V6.97402H18.7417V5.47607Z" fill="white"/>
<path d="M26.5644 5.47607H23.4353V6.97402H26.5644V5.47607Z" fill="white"/>
<path d="M34.3875 5.47607H31.2583V6.97402H34.3875V5.47607Z" fill="white"/>
<path d="M42.2105 5.47607H39.0813V6.97402H42.2105V5.47607Z" fill="white"/>
<path d="M3.91138 14.8634V32.7895H30.4427V14.8634H3.91138ZM28.9447 31.2915H5.40943V16.3615H28.9447V31.2915Z" fill="white"/>
<path d="M30.4761 11.7344H3.87817V13.2324H30.4761V11.7344Z" fill="white"/>
<path d="M20.1675 18.9939L11.5625 27.5989L12.6218 28.6581L21.2268 20.0531L20.1675 18.9939Z" fill="white"/>
<path d="M21.3409 23.2964L19.3853 25.2521L20.4445 26.3113L22.4002 24.3557L21.3409 23.2964Z" fill="white"/>
<path d="M32.0737 11.7344V32.7896H46.8707V11.7344H32.0737ZM45.3728 31.2917H33.5718V13.2324H45.3728V31.2917Z" fill="white"/>
<path d="M36.7008 20.3063H35.2029V24.2177H36.7008V20.3063Z" fill="white"/>
<path d="M13.2655 0H5.44263V1.49795H13.2655V0Z" fill="white"/>
<path d="M28.9115 0H21.0886V1.49795H28.9115V0Z" fill="white"/>
<path d="M44.5573 0H36.7344V1.49795H44.5573V0Z" fill="white"/>
<path d="M0 2.34692V30.6355C0 33.0482 1.62632 35.087 3.8399 35.7168V39.0813H5.33785V35.9189H44.7166C44.939 35.9189 45.1576 35.9035 45.3729 35.8767V39.0813H46.8709V35.4579C48.713 34.6317 50 32.7816 50 30.6356V2.34692H0ZM48.5018 30.6355C48.5019 32.7227 46.8038 34.4208 44.7166 34.4208H5.28333C3.19608 34.4208 1.49795 32.7226 1.49795 30.6354V10.1032H48.5018V30.6355ZM48.5019 8.60518H1.49805V3.84487H48.5019V8.60518Z" fill="white"/>
</svg>
