<svg width="58" height="45" viewBox="0 0 58 45" fill="none" xmlns="http://www.w3.org/2000/svg">
<path d="M2.70755 16.6177L1.91479 16.7972L2.36336 18.7779L3.15612 18.5984L2.70755 16.6177Z" fill="white"/>
<path d="M2.1016 13.9425L1.30884 14.1221L1.94834 16.9459L2.7411 16.7663L2.1016 13.9425Z" fill="white"/>
<path d="M50.074 3.07828L49.2812 3.25781L49.9208 6.08161L50.7135 5.90208L50.074 3.07828Z" fill="white"/>
<path d="M11.299 11.8592C10.999 10.5345 9.74467 9.98055 8.41997 10.2805C7.09527 10.5806 6.20201 11.6208 6.50201 12.9455" stroke="white" stroke-width="2" stroke-miterlimit="10"/>
<path d="M6.50113 12.9458C6.20113 11.6212 4.94682 11.0672 3.62212 11.3672C2.29742 11.6672 1.40415 12.7075 1.70416 14.0322" stroke="white" stroke-width="2" stroke-miterlimit="10"/>
<path d="M16.0971 10.7726C15.7971 9.44793 14.5428 8.894 13.2181 9.194C11.8934 9.494 11.0001 10.5343 11.3001 11.859" stroke="white" stroke-width="2" stroke-miterlimit="10"/>
<path d="M20.8949 9.68608C20.5949 8.36139 19.3406 7.80745 18.0159 8.10745C16.6912 8.40745 15.798 9.44775 16.098 10.7724" stroke="white" stroke-width="2" stroke-miterlimit="10"/>
<path d="M25.6906 8.60002C25.3906 7.27533 24.1363 6.72139 22.8116 7.02139C21.4869 7.3214 20.5936 8.36169 20.8936 9.68639" stroke="white" stroke-width="2" stroke-miterlimit="10"/>
<path d="M30.4888 7.51339C30.1888 6.18869 28.9345 5.63475 27.6098 5.93476C26.2851 6.23476 25.3915 7.27514 25.6915 8.59984" stroke="white" stroke-width="2" stroke-miterlimit="10"/>
<path d="M35.2841 6.42742C34.9841 5.10272 33.7298 4.54878 32.4051 4.84879C31.0804 5.14879 30.1871 6.18908 30.4871 7.51378" stroke="white" stroke-width="2" stroke-miterlimit="10"/>
<path d="M40.0819 5.34075C39.7819 4.01605 38.5276 3.46211 37.2029 3.76212C35.8782 4.06212 34.985 5.10241 35.285 6.42711" stroke="white" stroke-width="2" stroke-miterlimit="10"/>
<path d="M44.88 4.2542C44.58 2.9295 43.3257 2.37557 42.001 2.67557C40.6763 2.97557 39.7831 4.01587 40.0831 5.34056" stroke="white" stroke-width="2" stroke-miterlimit="10"/>
<path d="M49.6787 3.16747C49.3787 1.84277 48.1244 1.28884 46.7997 1.58884C45.475 1.88884 44.5809 2.92932 44.8809 4.25402" stroke="white" stroke-width="2" stroke-miterlimit="10"/>
<path d="M8.47464 42.0832L7.68188 42.2627L7.04238 39.4389L7.83514 39.2594L8.47464 42.0832Z" fill="white"/>
<path d="M56.4471 31.2189L55.6543 31.3984L55.0148 28.5746L55.8076 28.3951L56.4471 31.2189Z" fill="white"/>
<path d="M17.6722 40.0006C17.9722 41.3253 17.0789 42.3656 15.7542 42.6656C14.4295 42.9656 13.1752 42.4116 12.8752 41.0869" stroke="white" stroke-width="2" stroke-miterlimit="10"/>
<path d="M12.8743 41.0872C13.1743 42.4119 12.281 43.4522 10.9563 43.7522C9.63165 44.0522 8.37734 43.4983 8.07734 42.1736" stroke="white" stroke-width="2" stroke-miterlimit="10"/>
<path d="M22.4703 38.914C22.7703 40.2387 21.877 41.279 20.5523 41.579C19.2276 41.879 17.9733 41.3251 17.6733 40.0004" stroke="white" stroke-width="2" stroke-miterlimit="10"/>
<path d="M27.2681 37.8275C27.5681 39.1522 26.6748 40.1925 25.3501 40.4925C24.0255 40.7925 22.7711 40.2385 22.4711 38.9138" stroke="white" stroke-width="2" stroke-miterlimit="10"/>
<path d="M32.0635 36.7413C32.3635 38.066 31.4703 39.1063 30.1456 39.4063C28.8209 39.7063 27.5665 39.1523 27.2665 37.8276" stroke="white" stroke-width="2" stroke-miterlimit="10"/>
<path d="M36.862 35.6546C37.162 36.9793 36.2687 38.0196 34.944 38.3196C33.6194 38.6196 32.3646 38.0658 32.0646 36.7411" stroke="white" stroke-width="2" stroke-miterlimit="10"/>
<path d="M41.6573 34.5687C41.9573 35.8934 41.064 36.9337 39.7393 37.2337C38.4146 37.5337 37.1603 36.9797 36.8603 35.655" stroke="white" stroke-width="2" stroke-miterlimit="10"/>
<path d="M46.4551 33.4821C46.7551 34.8068 45.8619 35.8471 44.5372 36.1471C43.2125 36.4471 41.9581 35.8932 41.6581 34.5685" stroke="white" stroke-width="2" stroke-miterlimit="10"/>
<path d="M51.253 32.3956C51.553 33.7203 50.6597 34.7606 49.335 35.0606C48.0103 35.3606 46.756 34.8066 46.456 33.4819" stroke="white" stroke-width="2" stroke-miterlimit="10"/>
<path d="M56.0516 31.3087C56.3516 32.6334 55.4583 33.6737 54.1337 33.9737C52.809 34.2737 51.5539 33.72 51.2539 32.3953" stroke="white" stroke-width="2" stroke-miterlimit="10"/>
<path d="M8.20535 40.8941L7.4126 41.0736L6.77309 38.2498L7.56585 38.0703L8.20535 40.8941Z" fill="white"/>
<path d="M56.1778 30.0299L55.385 30.2095L54.7455 27.3857L55.5383 27.2061L56.1778 30.0299Z" fill="white"/>
<path d="M17.4029 38.8115C17.7029 40.1362 16.8096 41.1765 15.4849 41.4765C14.1602 41.7765 12.9059 41.2225 12.6059 39.8978" stroke="white" stroke-width="2" stroke-miterlimit="10"/>
<path d="M12.605 39.8981C12.905 41.2228 12.0118 42.2631 10.6871 42.5631C9.36236 42.8631 8.10805 42.3092 7.80805 40.9845" stroke="white" stroke-width="2" stroke-miterlimit="10"/>
<path d="M22.201 37.7249C22.501 39.0496 21.6077 40.0899 20.283 40.3899C18.9583 40.6899 17.704 40.136 17.404 38.8113" stroke="white" stroke-width="2" stroke-miterlimit="10"/>
<path d="M26.9988 36.6384C27.2988 37.9631 26.4056 39.0034 25.0809 39.3034C23.7562 39.6034 22.5019 39.0494 22.2018 37.7247" stroke="white" stroke-width="2" stroke-miterlimit="10"/>
<path d="M31.7942 35.5523C32.0942 36.877 31.201 37.9173 29.8763 38.2173C28.5516 38.5173 27.2973 37.9634 26.9973 36.6387" stroke="white" stroke-width="2" stroke-miterlimit="10"/>
<path d="M36.5927 34.4657C36.8927 35.7904 35.9995 36.8307 34.6748 37.1307C33.3501 37.4307 32.0954 36.8768 31.7954 35.5521" stroke="white" stroke-width="2" stroke-miterlimit="10"/>
<path d="M41.3877 33.3797C41.6877 34.7044 40.7945 35.7447 39.4698 36.0447C38.1451 36.3447 36.8908 35.7908 36.5908 34.4661" stroke="white" stroke-width="2" stroke-miterlimit="10"/>
<path d="M46.1856 32.2932C46.4856 33.6179 45.5923 34.6582 44.2676 34.9582C42.9429 35.2582 41.6886 34.7042 41.3886 33.3795" stroke="white" stroke-width="2" stroke-miterlimit="10"/>
<path d="M50.9837 31.2065C51.2837 32.5312 50.3904 33.5715 49.0657 33.8715C47.741 34.1715 46.4867 33.6176 46.1867 32.2929" stroke="white" stroke-width="2" stroke-miterlimit="10"/>
<path d="M55.7823 30.1198C56.0823 31.4445 55.1891 32.4848 53.8644 32.7848C52.5397 33.0848 51.2846 32.531 50.9846 31.2063" stroke="white" stroke-width="2" stroke-miterlimit="10"/>
<path d="M11.2336 14.0094L12.523 14.8229" stroke="white" stroke-miterlimit="10" stroke-linecap="round" stroke-linejoin="round"/>
<path d="M11.4718 15.061L12.2848 13.7713" stroke="white" stroke-miterlimit="10" stroke-linecap="round" stroke-linejoin="round"/>
<path d="M6.43579 15.0959L7.72514 15.9095" stroke="white" stroke-miterlimit="10" stroke-linecap="round" stroke-linejoin="round"/>
<path d="M6.67394 16.1475L7.48699 14.8579" stroke="white" stroke-miterlimit="10" stroke-linecap="round" stroke-linejoin="round"/>
<path d="M16.0317 12.9229L17.3211 13.7364" stroke="white" stroke-miterlimit="10" stroke-linecap="round" stroke-linejoin="round"/>
<path d="M16.2699 13.9744L17.0829 12.6848" stroke="white" stroke-miterlimit="10" stroke-linecap="round" stroke-linejoin="round"/>
<path d="M20.8274 11.8368L22.1167 12.6503" stroke="white" stroke-miterlimit="10" stroke-linecap="round" stroke-linejoin="round"/>
<path d="M21.0655 12.8884L21.8786 11.5987" stroke="white" stroke-miterlimit="10" stroke-linecap="round" stroke-linejoin="round"/>
<path d="M25.6255 10.7501L26.9144 11.5637" stroke="white" stroke-miterlimit="10" stroke-linecap="round" stroke-linejoin="round"/>
<path d="M25.8636 11.8017L26.6763 10.5121" stroke="white" stroke-miterlimit="10" stroke-linecap="round" stroke-linejoin="round"/>
<path d="M30.4233 9.66357L31.7131 10.477" stroke="white" stroke-miterlimit="10" stroke-linecap="round" stroke-linejoin="round"/>
<path d="M30.6615 10.7152L31.4749 9.42542" stroke="white" stroke-miterlimit="10" stroke-linecap="round" stroke-linejoin="round"/>
<path d="M35.2212 8.57703L36.5105 9.39056" stroke="white" stroke-miterlimit="10" stroke-linecap="round" stroke-linejoin="round"/>
<path d="M35.4593 9.62862L36.2724 8.33896" stroke="white" stroke-miterlimit="10" stroke-linecap="round" stroke-linejoin="round"/>
<path d="M40.0168 7.49097L41.3066 8.30441" stroke="white" stroke-miterlimit="10" stroke-linecap="round" stroke-linejoin="round"/>
<path d="M40.255 8.54256L41.0684 7.25281" stroke="white" stroke-miterlimit="10" stroke-linecap="round" stroke-linejoin="round"/>
<path d="M44.8147 6.4043L46.104 7.21783" stroke="white" stroke-miterlimit="10" stroke-linecap="round" stroke-linejoin="round"/>
<path d="M45.0529 7.45589L45.8659 6.16623" stroke="white" stroke-miterlimit="10" stroke-linecap="round" stroke-linejoin="round"/>
<path d="M12.4006 19.1622L13.69 19.9758" stroke="white" stroke-miterlimit="10" stroke-linecap="round" stroke-linejoin="round"/>
<path d="M12.6388 20.2138L13.4518 18.9242" stroke="white" stroke-miterlimit="10" stroke-linecap="round" stroke-linejoin="round"/>
<path d="M7.60278 20.2488L8.89213 21.0623" stroke="white" stroke-miterlimit="10" stroke-linecap="round" stroke-linejoin="round"/>
<path d="M7.84094 21.3004L8.65398 20.0107" stroke="white" stroke-miterlimit="10" stroke-linecap="round" stroke-linejoin="round"/>
<path d="M17.1987 18.0756L18.4881 18.8891" stroke="white" stroke-miterlimit="10" stroke-linecap="round" stroke-linejoin="round"/>
<path d="M17.4369 19.1272L18.2499 17.8375" stroke="white" stroke-miterlimit="10" stroke-linecap="round" stroke-linejoin="round"/>
<path d="M21.9941 16.9895L23.2835 17.803" stroke="white" stroke-miterlimit="10" stroke-linecap="round" stroke-linejoin="round"/>
<path d="M22.2323 18.0411L23.0453 16.7514" stroke="white" stroke-miterlimit="10" stroke-linecap="round" stroke-linejoin="round"/>
<path d="M26.7922 15.903L28.0812 16.7166" stroke="white" stroke-miterlimit="10" stroke-linecap="round" stroke-linejoin="round"/>
<path d="M27.0304 16.9545L27.843 15.665" stroke="white" stroke-miterlimit="10" stroke-linecap="round" stroke-linejoin="round"/>
<path d="M31.5901 14.8164L32.8798 15.6298" stroke="white" stroke-miterlimit="10" stroke-linecap="round" stroke-linejoin="round"/>
<path d="M31.8282 15.868L32.6417 14.5783" stroke="white" stroke-miterlimit="10" stroke-linecap="round" stroke-linejoin="round"/>
<path d="M36.3879 13.7297L37.6773 14.5433" stroke="white" stroke-miterlimit="10" stroke-linecap="round" stroke-linejoin="round"/>
<path d="M36.6261 14.7813L37.4391 13.4917" stroke="white" stroke-miterlimit="10" stroke-linecap="round" stroke-linejoin="round"/>
<path d="M41.1838 12.6438L42.4736 13.4572" stroke="white" stroke-miterlimit="10" stroke-linecap="round" stroke-linejoin="round"/>
<path d="M41.422 13.6954L42.2354 12.4056" stroke="white" stroke-miterlimit="10" stroke-linecap="round" stroke-linejoin="round"/>
<path d="M45.9817 11.5571L47.271 12.3707" stroke="white" stroke-miterlimit="10" stroke-linecap="round" stroke-linejoin="round"/>
<path d="M46.2198 12.6087L47.0329 11.3191" stroke="white" stroke-miterlimit="10" stroke-linecap="round" stroke-linejoin="round"/>
<path d="M13.5676 24.3152L14.857 25.1287" stroke="white" stroke-miterlimit="10" stroke-linecap="round" stroke-linejoin="round"/>
<path d="M13.8058 25.3668L14.6188 24.0771" stroke="white" stroke-miterlimit="10" stroke-linecap="round" stroke-linejoin="round"/>
<path d="M8.76978 25.4017L10.0591 26.2153" stroke="white" stroke-miterlimit="10" stroke-linecap="round" stroke-linejoin="round"/>
<path d="M9.00793 26.4533L9.82097 25.1637" stroke="white" stroke-miterlimit="10" stroke-linecap="round" stroke-linejoin="round"/>
<path d="M18.3657 23.2286L19.6551 24.0422" stroke="white" stroke-miterlimit="10" stroke-linecap="round" stroke-linejoin="round"/>
<path d="M18.6039 24.2802L19.4169 22.9906" stroke="white" stroke-miterlimit="10" stroke-linecap="round" stroke-linejoin="round"/>
<path d="M23.1611 22.1426L24.4505 22.9561" stroke="white" stroke-miterlimit="10" stroke-linecap="round" stroke-linejoin="round"/>
<path d="M23.3993 23.1942L24.2123 21.9045" stroke="white" stroke-miterlimit="10" stroke-linecap="round" stroke-linejoin="round"/>
<path d="M27.9592 21.0559L29.2482 21.8695" stroke="white" stroke-miterlimit="10" stroke-linecap="round" stroke-linejoin="round"/>
<path d="M28.1974 22.1075L29.01 20.8179" stroke="white" stroke-miterlimit="10" stroke-linecap="round" stroke-linejoin="round"/>
<path d="M32.7571 19.9694L34.0468 20.7828" stroke="white" stroke-miterlimit="10" stroke-linecap="round" stroke-linejoin="round"/>
<path d="M32.9952 21.021L33.8087 19.7312" stroke="white" stroke-miterlimit="10" stroke-linecap="round" stroke-linejoin="round"/>
<path d="M37.5549 18.8828L38.8443 19.6963" stroke="white" stroke-miterlimit="10" stroke-linecap="round" stroke-linejoin="round"/>
<path d="M37.7931 19.9344L38.6061 18.6447" stroke="white" stroke-miterlimit="10" stroke-linecap="round" stroke-linejoin="round"/>
<path d="M42.3508 17.7968L43.6406 18.6102" stroke="white" stroke-miterlimit="10" stroke-linecap="round" stroke-linejoin="round"/>
<path d="M42.589 18.8483L43.4024 17.5586" stroke="white" stroke-miterlimit="10" stroke-linecap="round" stroke-linejoin="round"/>
<path d="M47.1487 16.7101L48.438 17.5236" stroke="white" stroke-miterlimit="10" stroke-linecap="round" stroke-linejoin="round"/>
<path d="M47.3868 17.7617L48.1999 16.472" stroke="white" stroke-miterlimit="10" stroke-linecap="round" stroke-linejoin="round"/>
<path d="M14.7346 29.4683L16.024 30.2818" stroke="white" stroke-miterlimit="10" stroke-linecap="round" stroke-linejoin="round"/>
<path d="M14.9728 30.5199L15.7858 29.2302" stroke="white" stroke-miterlimit="10" stroke-linecap="round" stroke-linejoin="round"/>
<path d="M9.93677 30.5548L11.2261 31.3683" stroke="white" stroke-miterlimit="10" stroke-linecap="round" stroke-linejoin="round"/>
<path d="M10.1749 31.6064L10.988 30.3167" stroke="white" stroke-miterlimit="10" stroke-linecap="round" stroke-linejoin="round"/>
<path d="M19.5327 28.3816L20.8221 29.1951" stroke="white" stroke-miterlimit="10" stroke-linecap="round" stroke-linejoin="round"/>
<path d="M19.7709 29.4332L20.5839 28.1435" stroke="white" stroke-miterlimit="10" stroke-linecap="round" stroke-linejoin="round"/>
<path d="M24.3281 27.2957L25.6175 28.1092" stroke="white" stroke-miterlimit="10" stroke-linecap="round" stroke-linejoin="round"/>
<path d="M24.5663 28.3472L25.3793 27.0576" stroke="white" stroke-miterlimit="10" stroke-linecap="round" stroke-linejoin="round"/>
<path d="M29.1262 26.209L30.4152 27.0226" stroke="white" stroke-miterlimit="10" stroke-linecap="round" stroke-linejoin="round"/>
<path d="M29.3644 27.2606L30.177 25.971" stroke="white" stroke-miterlimit="10" stroke-linecap="round" stroke-linejoin="round"/>
<path d="M33.9241 25.1224L35.2138 25.9359" stroke="white" stroke-miterlimit="10" stroke-linecap="round" stroke-linejoin="round"/>
<path d="M34.1622 26.174L34.9757 24.8843" stroke="white" stroke-miterlimit="10" stroke-linecap="round" stroke-linejoin="round"/>
<path d="M38.7219 24.0359L40.0113 24.8494" stroke="white" stroke-miterlimit="10" stroke-linecap="round" stroke-linejoin="round"/>
<path d="M38.9601 25.0875L39.7731 23.7978" stroke="white" stroke-miterlimit="10" stroke-linecap="round" stroke-linejoin="round"/>
<path d="M43.5176 22.9498L44.8073 23.7633" stroke="white" stroke-miterlimit="10" stroke-linecap="round" stroke-linejoin="round"/>
<path d="M43.7557 24.0014L44.5692 22.7117" stroke="white" stroke-miterlimit="10" stroke-linecap="round" stroke-linejoin="round"/>
<path d="M48.3154 21.8633L49.6048 22.6768" stroke="white" stroke-miterlimit="10" stroke-linecap="round" stroke-linejoin="round"/>
<path d="M48.5536 22.9149L49.3666 21.6252" stroke="white" stroke-miterlimit="10" stroke-linecap="round" stroke-linejoin="round"/>
<path d="M15.9016 34.621L17.191 35.4345" stroke="white" stroke-miterlimit="10" stroke-linecap="round" stroke-linejoin="round"/>
<path d="M16.1398 35.6726L16.9528 34.3829" stroke="white" stroke-miterlimit="10" stroke-linecap="round" stroke-linejoin="round"/>
<path d="M11.1038 35.7075L12.3931 36.521" stroke="white" stroke-miterlimit="10" stroke-linecap="round" stroke-linejoin="round"/>
<path d="M11.3419 36.7591L12.155 35.4695" stroke="white" stroke-miterlimit="10" stroke-linecap="round" stroke-linejoin="round"/>
<path d="M20.6997 33.5344L21.9891 34.348" stroke="white" stroke-miterlimit="10" stroke-linecap="round" stroke-linejoin="round"/>
<path d="M20.9379 34.586L21.7509 33.2964" stroke="white" stroke-miterlimit="10" stroke-linecap="round" stroke-linejoin="round"/>
<path d="M25.4951 32.4484L26.7845 33.2619" stroke="white" stroke-miterlimit="10" stroke-linecap="round" stroke-linejoin="round"/>
<path d="M25.7333 33.5L26.5463 32.2103" stroke="white" stroke-miterlimit="10" stroke-linecap="round" stroke-linejoin="round"/>
<path d="M30.2932 31.3618L31.5822 32.1754" stroke="white" stroke-miterlimit="10" stroke-linecap="round" stroke-linejoin="round"/>
<path d="M30.5314 32.4134L31.344 31.1238" stroke="white" stroke-miterlimit="10" stroke-linecap="round" stroke-linejoin="round"/>
<path d="M35.0911 30.2751L36.3808 31.0886" stroke="white" stroke-miterlimit="10" stroke-linecap="round" stroke-linejoin="round"/>
<path d="M35.3292 31.3267L36.1427 30.037" stroke="white" stroke-miterlimit="10" stroke-linecap="round" stroke-linejoin="round"/>
<path d="M39.8889 29.1886L41.1783 30.0021" stroke="white" stroke-miterlimit="10" stroke-linecap="round" stroke-linejoin="round"/>
<path d="M40.1271 30.2402L40.9401 28.9505" stroke="white" stroke-miterlimit="10" stroke-linecap="round" stroke-linejoin="round"/>
<path d="M44.6846 28.1025L45.9743 28.916" stroke="white" stroke-miterlimit="10" stroke-linecap="round" stroke-linejoin="round"/>
<path d="M44.9227 29.1541L45.7362 27.8644" stroke="white" stroke-miterlimit="10" stroke-linecap="round" stroke-linejoin="round"/>
<path d="M49.4824 27.0159L50.7718 27.8294" stroke="white" stroke-miterlimit="10" stroke-linecap="round" stroke-linejoin="round"/>
<path d="M49.7206 28.0675L50.5336 26.7778" stroke="white" stroke-miterlimit="10" stroke-linecap="round" stroke-linejoin="round"/>
<path d="M3.4744 20.0043L2.68164 20.1838L3.02015 21.6786L3.81291 21.499L3.4744 20.0043Z" fill="white"/>
<path d="M51.4468 9.14005L50.6541 9.31958L50.9926 10.8143L51.7853 10.6348L51.4468 9.14005Z" fill="white"/>
<path d="M50.68 5.75345L49.8872 5.93298L50.3358 7.91369L51.1285 7.73415L50.68 5.75345Z" fill="white"/>
<path d="M3.63677 19.2422C3.24158 19.3317 2.8482 19.0833 2.75879 18.6885" stroke="white" stroke-width="2" stroke-miterlimit="10"/>
<path d="M50.179 8.70194C50.5746 8.61236 50.8225 8.21867 50.7331 7.82387" stroke="white" stroke-width="2" stroke-miterlimit="10"/>
<path d="M4.29351 22.1427C3.89832 22.2322 3.50494 21.9838 3.41553 21.589" stroke="white" stroke-width="2" stroke-miterlimit="10"/>
<path d="M50.8357 11.6025C51.2313 11.5129 51.4793 11.1192 51.3898 10.7244" stroke="white" stroke-width="2" stroke-miterlimit="10"/>
<path d="M3.63651 19.2422C3.24132 19.3317 2.99337 19.7254 3.08277 20.1202" stroke="white" stroke-width="2" stroke-miterlimit="10"/>
<path d="M50.1787 8.7019C50.5743 8.61232 50.9677 8.86076 51.0571 9.25555" stroke="white" stroke-width="2" stroke-miterlimit="10"/>
<path d="M4.11356 22.8272L3.3208 23.0067L3.65931 24.5015L4.45207 24.3219L4.11356 22.8272Z" fill="white"/>
<path d="M52.086 11.9629L51.2932 12.1425L51.6317 13.6372L52.4245 13.4577L52.086 11.9629Z" fill="white"/>
<path d="M4.27593 22.0648C3.88074 22.1543 3.48736 21.9059 3.39795 21.5111" stroke="white" stroke-width="2" stroke-miterlimit="10"/>
<path d="M50.8181 11.5246C51.2137 11.435 51.4617 11.0413 51.3723 10.6465" stroke="white" stroke-width="2" stroke-miterlimit="10"/>
<path d="M4.93267 24.9657C4.53748 25.0552 4.1441 24.8068 4.05469 24.412" stroke="white" stroke-width="2" stroke-miterlimit="10"/>
<path d="M51.4749 14.4253C51.8704 14.3357 52.1184 13.9421 52.029 13.5473" stroke="white" stroke-width="2" stroke-miterlimit="10"/>
<path d="M4.27567 22.0648C3.88048 22.1543 3.63253 22.548 3.72193 22.9428" stroke="white" stroke-width="2" stroke-miterlimit="10"/>
<path d="M50.8179 11.5245C51.2135 11.4349 51.6068 11.6834 51.6962 12.0782" stroke="white" stroke-width="2" stroke-miterlimit="10"/>
<path d="M4.83182 25.9981L4.03906 26.1776L4.37758 27.6724L5.17033 27.4928L4.83182 25.9981Z" fill="white"/>
<path d="M52.8042 15.1339L52.0115 15.3135L52.35 16.8082L53.1427 16.6287L52.8042 15.1339Z" fill="white"/>
<path d="M4.99395 25.2359C4.59876 25.3254 4.20538 25.0769 4.11597 24.6821" stroke="white" stroke-width="2" stroke-miterlimit="10"/>
<path d="M51.5361 14.6955C51.9317 14.6059 52.1797 14.2122 52.0903 13.8174" stroke="white" stroke-width="2" stroke-miterlimit="10"/>
<path d="M5.65093 28.1366C5.25574 28.2261 4.86236 27.9777 4.77295 27.5829" stroke="white" stroke-width="2" stroke-miterlimit="10"/>
<path d="M52.1931 17.5962C52.5887 17.5066 52.8367 17.113 52.7473 16.7182" stroke="white" stroke-width="2" stroke-miterlimit="10"/>
<path d="M4.99394 25.2358C4.59875 25.3253 4.35079 25.719 4.4402 26.1138" stroke="white" stroke-width="2" stroke-miterlimit="10"/>
<path d="M51.5361 14.6954C51.9317 14.6058 52.3251 14.8543 52.4145 15.2491" stroke="white" stroke-width="2" stroke-miterlimit="10"/>
<path d="M5.54984 29.1692L4.75708 29.3488L5.09559 30.8435L5.88835 30.664L5.54984 29.1692Z" fill="white"/>
<path d="M53.5222 18.305L52.7295 18.4845L53.068 19.9792L53.8608 19.7997L53.5222 18.305Z" fill="white"/>
<path d="M5.71221 28.4069C5.31702 28.4964 4.92364 28.2479 4.83423 27.8531" stroke="white" stroke-width="2" stroke-miterlimit="10"/>
<path d="M52.2544 17.8666C52.65 17.777 52.898 17.3833 52.8085 16.9885" stroke="white" stroke-width="2" stroke-miterlimit="10"/>
<path d="M6.36895 31.3078C5.97376 31.3973 5.58038 31.1488 5.49097 30.754" stroke="white" stroke-width="2" stroke-miterlimit="10"/>
<path d="M52.9111 20.7674C53.3067 20.6778 53.5547 20.2841 53.4653 19.8893" stroke="white" stroke-width="2" stroke-miterlimit="10"/>
<path d="M5.71195 28.4068C5.31676 28.4963 5.06881 28.89 5.15821 29.2848" stroke="white" stroke-width="2" stroke-miterlimit="10"/>
<path d="M52.2542 17.8666C52.6497 17.777 53.0431 18.0254 53.1325 18.4202" stroke="white" stroke-width="2" stroke-miterlimit="10"/>
<path d="M6.26785 32.3402L5.4751 32.5198L5.81361 34.0145L6.60637 33.835L6.26785 32.3402Z" fill="white"/>
<path d="M54.2403 21.476L53.4475 21.6555L53.786 23.1503L54.5788 22.9707L54.2403 21.476Z" fill="white"/>
<path d="M6.43023 31.5779C6.03504 31.6674 5.64165 31.419 5.55225 31.0242" stroke="white" stroke-width="2" stroke-miterlimit="10"/>
<path d="M52.9722 21.0376C53.3678 20.948 53.6157 20.5544 53.5263 20.1596" stroke="white" stroke-width="2" stroke-miterlimit="10"/>
<path d="M7.08696 34.4787C6.69177 34.5682 6.29839 34.3197 6.20898 33.9249" stroke="white" stroke-width="2" stroke-miterlimit="10"/>
<path d="M53.6292 23.9384C54.0247 23.8488 54.2727 23.4551 54.1833 23.0603" stroke="white" stroke-width="2" stroke-miterlimit="10"/>
<path d="M6.42997 31.5779C6.03478 31.6674 5.78682 32.0611 5.87623 32.4558" stroke="white" stroke-width="2" stroke-miterlimit="10"/>
<path d="M52.9722 21.0376C53.3678 20.948 53.7611 21.1965 53.8505 21.5912" stroke="white" stroke-width="2" stroke-miterlimit="10"/>
<path d="M7.34818 37.1088L6.55542 37.2883L6.21691 35.7936L7.00966 35.6141L7.34818 37.1088Z" fill="white"/>
<path d="M55.3206 26.2445L54.5278 26.4241L54.1893 24.9293L54.9821 24.7498L55.3206 26.2445Z" fill="white"/>
<path d="M7.82278 37.7266C7.42759 37.8161 7.17963 38.2098 7.26904 38.6046" stroke="white" stroke-width="2" stroke-miterlimit="10"/>
<path d="M54.365 27.1862C54.7606 27.0967 55.154 27.3451 55.2434 27.7399" stroke="white" stroke-width="2" stroke-miterlimit="10"/>
<path d="M7.1658 34.8261C6.77061 34.9156 6.52265 35.3093 6.61206 35.7041" stroke="white" stroke-width="2" stroke-miterlimit="10"/>
<path d="M53.708 24.2857C54.1036 24.1961 54.497 24.4446 54.5864 24.8394" stroke="white" stroke-width="2" stroke-miterlimit="10"/>
<path d="M7.82255 37.7267C7.42736 37.8162 7.03398 37.5677 6.94457 37.1729" stroke="white" stroke-width="2" stroke-miterlimit="10"/>
<path d="M54.3647 27.1863C54.7603 27.0967 55.0083 26.703 54.9189 26.3082" stroke="white" stroke-width="2" stroke-miterlimit="10"/>
</svg>
