<svg width="60" height="33" viewBox="0 0 60 33" fill="none" xmlns="http://www.w3.org/2000/svg">
<path d="M44.9138 24.9261H14.9814V26.0398H44.9138V24.9261Z" fill="white"/>
<path d="M59.9775 17.9659H0.572266V19.0796H59.9775V17.9659Z" fill="white"/>
<path d="M1.1361 17.9659H0.0224609V32.333H1.1361V17.9659Z" fill="white"/>
<path d="M59.9774 18.9159H58.8638V32.3603H59.9774V18.9159Z" fill="white"/>
<path d="M59.9773 31.8864H0.0224609V33H59.9773V31.8864Z" fill="white"/>
<path d="M45.6918 18.9426H44.5781V32.3575H45.6918V18.9426Z" fill="white"/>
<path d="M15.5382 18.3083H14.4246V32.3329H15.5382V18.3083Z" fill="white"/>
<path d="M30.1309 29.7287C30.5922 29.7287 30.9661 29.3547 30.9661 28.8935C30.9661 28.4322 30.5922 28.0582 30.1309 28.0582C29.6696 28.0582 29.2957 28.4322 29.2957 28.8935C29.2957 29.3547 29.6696 29.7287 30.1309 29.7287Z" stroke="white" stroke-miterlimit="10" stroke-linecap="round" stroke-linejoin="round"/>
<path d="M30.1309 22.9556C30.5922 22.9556 30.9661 22.5817 30.9661 22.1204C30.9661 21.6591 30.5922 21.2852 30.1309 21.2852C29.6696 21.2852 29.2957 21.6591 29.2957 22.1204C29.2957 22.5817 29.6696 22.9556 30.1309 22.9556Z" stroke="white" stroke-miterlimit="10" stroke-linecap="round" stroke-linejoin="round"/>
<path d="M41.8942 1.26135H18.8787" stroke="white" stroke-width="2" stroke-miterlimit="10" stroke-linecap="round" stroke-linejoin="round"/>
<path d="M41.8942 15.7386H18.8787" stroke="white" stroke-width="2" stroke-miterlimit="10" stroke-linecap="round" stroke-linejoin="round"/>
<path d="M18.8787 15.7386V1.26135" stroke="white" stroke-width="2" stroke-miterlimit="10" stroke-linecap="round" stroke-linejoin="round"/>
<path d="M27.4731 16.0059V18.1518" stroke="white" stroke-width="2" stroke-miterlimit="10" stroke-linecap="round" stroke-linejoin="round"/>
<path d="M32.7891 16.0059V18.3083" stroke="white" stroke-width="2" stroke-miterlimit="10" stroke-linecap="round" stroke-linejoin="round"/>
<path d="M2.89526 13.6589H4.16537" stroke="white" stroke-miterlimit="10" stroke-linecap="round" stroke-linejoin="round"/>
<path d="M2.89526 18.4047V13.6589" stroke="white" stroke-miterlimit="10" stroke-linecap="round" stroke-linejoin="round"/>
<path d="M4.16528 18.4047V13.6589" stroke="white" stroke-miterlimit="10" stroke-linecap="round" stroke-linejoin="round"/>
<path d="M4.16528 14.7437H5.43539" stroke="white" stroke-miterlimit="10" stroke-linecap="round" stroke-linejoin="round"/>
<path d="M4.16528 18.4047V13.6589" stroke="white" stroke-miterlimit="10" stroke-linecap="round" stroke-linejoin="round"/>
<path d="M5.4353 13.6589H6.70596" stroke="white" stroke-miterlimit="10" stroke-linecap="round" stroke-linejoin="round"/>
<path d="M5.4353 18.4047V13.6589" stroke="white" stroke-miterlimit="10" stroke-linecap="round" stroke-linejoin="round"/>
<path d="M6.70605 18.4047V13.6589" stroke="white" stroke-miterlimit="10" stroke-linecap="round" stroke-linejoin="round"/>
<path d="M6.70605 13.6589H7.97615" stroke="white" stroke-miterlimit="10" stroke-linecap="round" stroke-linejoin="round"/>
<path d="M7.97607 18.4047V13.6589" stroke="white" stroke-miterlimit="10" stroke-linecap="round" stroke-linejoin="round"/>
<path d="M41.894 15.7386V1.26135" stroke="white" stroke-width="2" stroke-miterlimit="10" stroke-linecap="round" stroke-linejoin="round"/>
<path d="M35.708 3.9491L38.9782 7.21929" stroke="white" stroke-miterlimit="10" stroke-linecap="round" stroke-linejoin="round"/>
<path d="M39.0228 5.02487L38.1375 4.13953" stroke="white" stroke-miterlimit="10" stroke-linecap="round" stroke-linejoin="round"/>
<path d="M36.7702 7.1235L35.886 6.23816" stroke="white" stroke-miterlimit="10" stroke-linecap="round" stroke-linejoin="round"/>
</svg>
