<svg width="44" height="50" viewBox="0 0 44 50" fill="none" xmlns="http://www.w3.org/2000/svg">
<path d="M8.32915 17.5001H16.6625C17.1224 17.5001 17.4958 17.1267 17.4958 16.6668V5.00005C17.4958 4.54009 17.1224 4.16675 16.6625 4.16675H8.32915C7.86919 4.16675 7.49585 4.54009 7.49585 5.00005V16.6668C7.49585 17.1267 7.86919 17.5001 8.32915 17.5001ZM9.16255 5.83335H15.8293V15.8334H9.16255V5.83335Z" fill="white"/>
<path d="M42.7594 21.7092C42.3186 21.5625 41.8511 21.8 41.706 22.2367C40.7827 25.0059 39.2035 26.3768 36.6627 26.6167V18.2808C39.9518 18.0209 42.1335 16.2225 43.286 12.7633C43.4318 12.3275 43.196 11.855 42.7594 11.7091C42.3186 11.5625 41.8511 11.8 41.706 12.2367C40.7827 15.0058 39.2035 16.3767 36.6627 16.6167V8.17994C37.6302 7.83414 38.3294 6.91832 38.3294 5.83326C38.3294 4.45493 37.2077 3.33325 35.8294 3.33325C34.4511 3.33325 33.3294 4.45493 33.3294 5.83326C33.3294 6.91822 34.0285 7.83414 34.9961 8.17906V16.6166C32.4552 16.3765 30.876 15.0057 29.9527 12.2366C29.8077 11.8 29.3385 11.5625 28.8994 11.7091C28.4628 11.8549 28.2269 12.3274 28.3727 12.7633C29.5253 16.2224 31.7069 18.0208 34.9961 18.2807V26.6166C32.4552 26.3766 30.876 25.0058 29.9527 22.2366C29.8077 21.8 29.3385 21.5624 28.8994 21.7091C28.4628 21.8549 28.2269 22.3274 28.3727 22.7633C29.5253 26.2225 31.7069 28.0208 34.9961 28.2808V48.3333H32.4961C32.0352 48.3333 31.6628 48.7067 31.6628 49.1666C31.6628 49.6266 32.0352 49.9999 32.4961 49.9999H39.1628C39.6236 49.9999 39.9961 49.6266 39.9961 49.1666C39.9961 48.7067 39.6236 48.3333 39.1628 48.3333H36.6628V28.2809C39.9519 28.0209 42.1336 26.2226 43.2861 22.7634C43.4318 22.3275 43.196 21.855 42.7594 21.7092ZM35.8293 6.66666C35.3693 6.66666 34.996 6.29254 34.996 5.83335C34.996 5.37417 35.3693 5.00005 35.8293 5.00005C36.2892 5.00005 36.6626 5.37417 36.6626 5.83335C36.6626 6.29254 36.2893 6.66666 35.8293 6.66666Z" fill="white"/>
<path d="M3.3291 19.1667C3.3291 20.5451 4.45078 21.6667 5.82911 21.6667C6.53995 21.6667 7.21407 21.3559 7.68331 20.8334H17.3083C17.7775 21.3559 18.4525 21.6667 19.1625 21.6667C20.5409 21.6667 21.6625 20.5451 21.6625 19.1667C21.6625 18.4559 21.3517 17.7818 20.8292 17.3125V4.35421C21.3517 3.88507 21.6625 3.21085 21.6625 2.5C21.6625 1.12168 20.5409 0 19.1625 0C18.4526 0 17.7776 0.31084 17.3083 0.833302H7.68331C7.21417 0.31084 6.53995 0 5.82911 0C4.45078 0 3.3291 1.12168 3.3291 2.5C3.3291 3.21085 3.63994 3.88497 4.1624 4.35421V17.3125C3.63994 17.7817 3.3291 18.4559 3.3291 19.1667ZM5.41495 3.21505C5.15244 3.06251 4.9958 2.79502 4.9958 2.5C4.9958 2.04082 5.36993 1.6667 5.82911 1.6667C6.12413 1.6667 6.39161 1.82334 6.54415 2.08584C6.69415 2.34248 6.96837 2.5 7.26495 2.5H17.7267C18.0234 2.5 18.2975 2.34248 18.4475 2.08584C18.6 1.82334 18.8675 1.6667 19.1625 1.6667C19.6217 1.6667 19.9958 2.04082 19.9958 2.5C19.9958 2.79502 19.8392 3.06251 19.5767 3.21505C19.3201 3.36505 19.1625 3.63917 19.1625 3.93585V17.7309C19.1625 18.0276 19.3201 18.3017 19.5767 18.4517C19.8392 18.6042 19.9958 18.8717 19.9958 19.1667C19.9958 19.6259 19.6217 20 19.1625 20C18.8675 20 18.6 19.8434 18.4475 19.5809C18.2975 19.3243 18.0233 19.1667 17.7267 19.1667H7.26495C6.96827 19.1667 6.69415 19.3243 6.54415 19.5809C6.39161 19.8434 6.12413 20 5.82911 20C5.36993 20 4.9958 19.6259 4.9958 19.1667C4.9958 18.8717 5.15244 18.6042 5.41495 18.4517C5.67159 18.3017 5.82911 18.0276 5.82911 17.7309V3.93585C5.82911 3.63917 5.67168 3.36505 5.41495 3.21505Z" fill="white"/>
<path d="M20.8292 33.3334H19.1625C18.5225 33.3334 17.9384 33.5751 17.4958 33.9717C17.0534 33.575 16.4692 33.3334 15.8291 33.3334H14.1625C13.5225 33.3334 12.9384 33.5751 12.4958 33.9717C12.0534 33.575 11.4692 33.3334 10.8291 33.3334H9.16253C8.52249 33.3334 7.9384 33.5751 7.49582 33.9717C7.05334 33.575 6.46916 33.3334 5.82912 33.3334H4.16252C1.86505 33.3334 -0.00419217 35.2025 7.06131e-06 37.5834L0.83331 45.9167C0.87579 46.3426 1.23409 46.6667 1.66251 46.6667V49.1667C1.66251 49.6267 2.03585 50 2.49581 50C2.95578 50 3.32912 49.6267 3.32912 49.1667V46.6667H19.1625C19.6225 46.6667 19.9958 46.2934 19.9958 45.8334C19.9958 45.3734 19.6225 45.0001 19.1625 45.0001H2.41583L1.66251 37.5001C1.66251 36.1218 2.78419 35.0001 4.16252 35.0001H5.82922C6.2884 35.0001 6.66252 35.3742 6.66252 35.8334C6.66252 36.2933 7.03586 36.6667 7.49582 36.6667C7.95579 36.6667 8.32913 36.2933 8.32913 35.8334C8.32913 35.3742 8.70325 35.0001 9.16243 35.0001H10.8291C11.2883 35.0001 11.6624 35.3742 11.6624 35.8334C11.6624 36.2933 12.0358 36.6667 12.4957 36.6667C12.9557 36.6667 13.329 36.2933 13.329 35.8334C13.329 35.3742 13.7032 35.0001 14.1623 35.0001H15.829C16.2882 35.0001 16.6623 35.3742 16.6623 35.8334C16.6623 36.2933 17.0357 36.6667 17.4956 36.6667C17.9556 36.6667 18.329 36.2933 18.329 35.8334C18.329 35.3742 18.7031 35.0001 19.1623 35.0001H20.829C22.2073 35.0001 23.329 36.1218 23.3332 37.4168L22.5749 45.0001H22.4957C22.0357 45.0001 21.6624 45.3734 21.6624 45.8334V49.1667C21.6624 49.6267 22.0357 50 22.4957 50C22.9565 50 23.329 49.6267 23.329 49.1667V46.6667C23.7573 46.6667 24.1156 46.3426 24.1582 45.9167L24.9959 37.5001C24.9959 35.2026 23.1267 33.3334 20.8292 33.3334Z" fill="white"/>
</svg>
