<svg width="50" height="33" viewBox="0 0 50 33" fill="none" xmlns="http://www.w3.org/2000/svg">
<g clip-path="url(#clip0)">
<rect y="0.510254" width="50" height="32" rx="3" fill="#5485EC"/>
<path d="M23.9716 17.3375V21.7607H22.5684V10.8374H26.2899C26.7342 10.8281 27.1758 10.9069 27.5895 11.0692C28.0031 11.2315 28.3805 11.4741 28.6998 11.7831C29.0224 12.0732 29.2791 12.4291 29.4528 12.8267C29.6264 13.2243 29.7129 13.6545 29.7065 14.0883C29.7157 14.5245 29.6305 14.9575 29.4568 15.3577C29.283 15.7578 29.0248 16.1157 28.6998 16.4067C28.0491 17.0273 27.2458 17.3373 26.2899 17.3367H23.9716V17.3375ZM23.9716 12.1822V15.9953H26.3248C26.5828 16.003 26.8395 15.9567 27.0786 15.8594C27.3177 15.7622 27.5338 15.6161 27.7132 15.4306C27.8917 15.2571 28.0335 15.0495 28.1304 14.8203C28.2272 14.591 28.2771 14.3446 28.2771 14.0958C28.2771 13.8469 28.2272 13.6005 28.1304 13.3712C28.0335 13.142 27.8917 12.9344 27.7132 12.7609C27.5361 12.5715 27.3207 12.4218 27.0813 12.3219C26.842 12.222 26.5841 12.1741 26.3248 12.1814H23.9716V12.1822Z" fill="white"/>
<path d="M32.9402 14.043C33.9773 14.043 34.796 14.3201 35.3963 14.8744C35.9965 15.4288 36.2963 16.1888 36.2957 17.1545V21.7607H34.9535V20.7235H34.8925C34.3114 21.5777 33.5387 22.0047 32.5741 22.0047C31.7508 22.0047 31.062 21.7607 30.5076 21.2726C30.2416 21.0486 30.0289 20.768 29.8851 20.4514C29.7413 20.1348 29.6699 19.79 29.6762 19.4423C29.6762 18.669 29.9684 18.0539 30.553 17.5972C31.1375 17.1405 31.9178 16.9116 32.894 16.9104C33.7272 16.9104 34.4134 17.0629 34.9526 17.368V17.0473C34.9542 16.8102 34.903 16.5758 34.8028 16.361C34.7025 16.1461 34.5557 15.9563 34.373 15.8053C34.002 15.4705 33.5184 15.2878 33.0186 15.2937C32.2348 15.2937 31.6145 15.6243 31.1578 16.2855L29.9219 15.5072C30.6018 14.531 31.6078 14.043 32.9402 14.043ZM31.1247 19.4728C31.1238 19.6514 31.1655 19.8276 31.2465 19.9868C31.3274 20.146 31.4452 20.2835 31.5901 20.388C31.9005 20.6321 32.2857 20.7614 32.6805 20.754C33.2726 20.753 33.8402 20.5173 34.2589 20.0986C34.7237 19.6611 34.9561 19.1477 34.9561 18.5586C34.5186 18.2099 33.9085 18.0356 33.1258 18.0356C32.5558 18.0356 32.0805 18.173 31.6999 18.4479C31.3156 18.7268 31.1247 19.0658 31.1247 19.4728Z" fill="white"/>
<path d="M43.9997 14.2869L39.3142 25.0551H37.8656L39.6044 21.2873L36.5234 14.2869H38.0487L40.2755 19.6557H40.306L42.4719 14.2869H43.9997Z" fill="white"/>
<path d="M18.3014 16.3839C18.3019 15.9563 18.2658 15.5294 18.1933 15.1079H12.2754V17.5248H15.6649C15.5956 17.9108 15.4487 18.2787 15.2333 18.6065C15.0179 18.9342 14.7384 19.2149 14.4116 19.4317V21.0006H16.4345C17.619 19.9085 18.3014 18.2935 18.3014 16.3839Z" fill="white"/>
<path d="M12.2748 22.5164C13.9682 22.5164 15.3941 21.9603 16.4339 21.0016L14.411 19.4328C13.8479 19.8145 13.1228 20.0324 12.2748 20.0324C10.638 20.0324 9.24868 18.929 8.75188 17.4421H6.66797V19.0589C7.19027 20.0982 7.99116 20.9719 8.98123 21.5825C9.97129 22.193 11.1116 22.5163 12.2748 22.5164Z" fill="white"/>
<path d="M8.75212 17.4421C8.48948 16.663 8.48948 15.8192 8.75212 15.0401V13.4233H6.6682C6.22883 14.2977 6 15.2626 6 16.2411C6 17.2196 6.22883 18.1846 6.6682 19.0589L8.75212 17.4421Z" fill="white"/>
<path d="M12.2748 12.4497C13.1697 12.4351 14.0344 12.7732 14.682 13.391L16.4731 11.5999C15.3374 10.5332 13.8328 9.94755 12.2748 9.96574C11.1116 9.9658 9.97129 10.2891 8.98123 10.8997C7.99116 11.5102 7.19027 12.3839 6.66797 13.4232L8.75188 15.04C9.24868 13.5531 10.638 12.4497 12.2748 12.4497Z" fill="white"/>
</g>
<defs>
<clipPath id="clip0">
<rect width="50" height="32" fill="white" transform="translate(0 0.510254)"/>
</clipPath>
</defs>
</svg>
