<svg width="50" height="33" viewBox="0 0 50 33" fill="none" xmlns="http://www.w3.org/2000/svg">
<g clip-path="url(#clip0)">
<rect y="0.510254" width="50" height="32" rx="3" fill="#0F3560"/>
<path d="M29.3635 24.3749H20.6143V8.65112H29.3635V24.3749Z" fill="#FF5F00"/>
<path d="M21.1748 16.5117C21.1748 13.3221 22.6682 10.4808 24.9938 8.64981C23.2931 7.31088 21.1468 6.51172 18.8142 6.51172C13.2919 6.51172 8.81543 10.9888 8.81543 16.5117C8.81543 22.0346 13.2919 26.5117 18.8142 26.5117C21.1468 26.5117 23.2931 25.7126 24.9938 24.3736C22.6682 22.5426 21.1748 19.7014 21.1748 16.5117Z" fill="#EB001B"/>
<path d="M41.1634 16.5117C41.1634 22.0346 36.687 26.5117 31.1647 26.5117C28.832 26.5117 26.6857 25.7126 24.9844 24.3736C27.3107 22.5426 28.8041 19.7014 28.8041 16.5117C28.8041 13.3221 27.3107 10.4808 24.9844 8.64981C26.6857 7.31088 28.832 6.51172 31.1647 6.51172C36.687 6.51172 41.1634 10.9888 41.1634 16.5117Z" fill="#F79E1B"/>
<path d="M16.3398 16.5751C16.3398 16.1383 16.6261 15.7795 17.0938 15.7795C17.5407 15.7795 17.8424 16.1228 17.8424 16.5751C17.8424 17.0274 17.5407 17.3707 17.0938 17.3707C16.6261 17.3707 16.3398 17.0119 16.3398 16.5751ZM18.3518 16.5751V15.3325H17.8115V15.6343C17.6401 15.4105 17.38 15.2701 17.0266 15.2701C16.3297 15.2701 15.7834 15.8163 15.7834 16.5751C15.7834 17.3344 16.3297 17.8801 17.0266 17.8801C17.38 17.8801 17.6401 17.7397 17.8115 17.5159V17.8176H18.3518V16.5751ZM36.6116 16.5751C36.6116 16.1383 36.8979 15.7795 37.3656 15.7795C37.8131 15.7795 38.1142 16.1228 38.1142 16.5751C38.1142 17.0274 37.8131 17.3707 37.3656 17.3707C36.8979 17.3707 36.6116 17.0119 36.6116 16.5751ZM38.6242 16.5751V14.3346H38.0833V15.6343C37.9119 15.4105 37.6518 15.2701 37.2983 15.2701C36.6015 15.2701 36.0552 15.8163 36.0552 16.5751C36.0552 17.3344 36.6015 17.8801 37.2983 17.8801C37.6518 17.8801 37.9119 17.7397 38.0833 17.5159V17.8176H38.6242V16.5751ZM25.0591 15.7539C25.4072 15.7539 25.631 15.9723 25.6881 16.3567H24.3986C24.4563 15.9979 24.6741 15.7539 25.0591 15.7539ZM25.0698 15.2701C24.3414 15.2701 23.832 15.8003 23.832 16.5751C23.832 17.3654 24.3622 17.8801 25.1061 17.8801C25.4804 17.8801 25.8232 17.7867 26.1249 17.532L25.8601 17.1315C25.6518 17.2975 25.3864 17.3916 25.1371 17.3916C24.7889 17.3916 24.4717 17.2303 24.3938 16.7828H26.2392C26.2445 16.7155 26.2499 16.6477 26.2499 16.5751C26.2445 15.8003 25.7661 15.2701 25.0698 15.2701ZM31.5944 16.5751C31.5944 16.1383 31.8806 15.7795 32.3484 15.7795C32.7953 15.7795 33.097 16.1228 33.097 16.5751C33.097 17.0274 32.7953 17.3707 32.3484 17.3707C31.8806 17.3707 31.5944 17.0119 31.5944 16.5751ZM33.6064 16.5751V15.3325H33.0661V15.6343C32.8941 15.4105 32.6346 15.2701 32.2811 15.2701C31.5843 15.2701 31.038 15.8163 31.038 16.5751C31.038 17.3344 31.5843 17.8801 32.2811 17.8801C32.6346 17.8801 32.8941 17.7397 33.0661 17.5159V17.8176H33.6064V16.5751ZM28.5428 16.5751C28.5428 17.3291 29.0676 17.8801 29.8686 17.8801C30.2429 17.8801 30.4923 17.7968 30.7625 17.5838L30.503 17.147C30.3001 17.2928 30.087 17.3707 29.8526 17.3707C29.4211 17.3654 29.1039 17.0535 29.1039 16.5751C29.1039 16.0966 29.4211 15.7848 29.8526 15.7795C30.087 15.7795 30.3001 15.8574 30.503 16.0032L30.7625 15.5664C30.4923 15.3534 30.2429 15.2701 29.8686 15.2701C29.0676 15.2701 28.5428 15.8211 28.5428 16.5751ZM35.5095 15.2701C35.1977 15.2701 34.9948 15.4159 34.8543 15.6343V15.3325H34.3187V17.8176H34.8597V16.4245C34.8597 16.0133 35.0364 15.7848 35.3899 15.7848C35.4994 15.7848 35.6136 15.8003 35.7279 15.8473L35.8945 15.3379C35.7749 15.2909 35.619 15.2701 35.5095 15.2701ZM21.0244 15.5301C20.7643 15.3587 20.4061 15.2701 20.0109 15.2701C19.3813 15.2701 18.9761 15.5718 18.9761 16.0657C18.9761 16.471 19.2778 16.7209 19.8336 16.7988L20.0889 16.8351C20.3853 16.8768 20.5251 16.9548 20.5251 17.0952C20.5251 17.2874 20.3275 17.3969 19.9586 17.3969C19.5843 17.3969 19.3141 17.2773 19.132 17.1369L18.8773 17.5576C19.1736 17.776 19.548 17.8801 19.9532 17.8801C20.6709 17.8801 21.0869 17.5421 21.0869 17.069C21.0869 16.6322 20.7596 16.4037 20.2186 16.3257L19.9639 16.2889C19.7301 16.2579 19.5426 16.2115 19.5426 16.0449C19.5426 15.8628 19.7193 15.7539 20.0157 15.7539C20.3329 15.7539 20.64 15.8735 20.7905 15.9669L21.0244 15.5301ZM27.9965 15.2701C27.6846 15.2701 27.4817 15.4159 27.3419 15.6343V15.3325H26.8063V17.8176H27.3466V16.4245C27.3466 16.0133 27.5234 15.7848 27.8769 15.7848C27.9864 15.7848 28.1006 15.8003 28.2149 15.8473L28.3815 15.3379C28.2619 15.2909 28.106 15.2701 27.9965 15.2701ZM23.3851 15.3325H22.5014V14.5786H21.9551V15.3325H21.4511V15.8265H21.9551V16.9601C21.9551 17.5368 22.1789 17.8801 22.818 17.8801C23.0525 17.8801 23.3226 17.8075 23.494 17.6879L23.3381 17.2249C23.1768 17.3184 23.0001 17.3654 22.8596 17.3654C22.5895 17.3654 22.5014 17.1987 22.5014 16.9494V15.8265H23.3851V15.3325ZM15.3056 17.8176V16.2579C15.3056 15.6706 14.9312 15.2754 14.3278 15.2701C14.0106 15.2647 13.6833 15.3635 13.4542 15.7122C13.2828 15.4367 13.0127 15.2701 12.633 15.2701C12.3676 15.2701 12.1081 15.348 11.9052 15.639V15.3325H11.3643V17.8176H11.91V16.44C11.91 16.0086 12.1492 15.7795 12.5187 15.7795C12.8776 15.7795 13.0591 16.0133 13.0591 16.4346V17.8176H13.6054V16.44C13.6054 16.0086 13.8547 15.7795 14.2136 15.7795C14.5825 15.7795 14.7593 16.0133 14.7593 16.4346V17.8176H15.3056Z" fill="white"/>
</g>
<defs>
<clipPath id="clip0">
<rect width="50" height="32" fill="white" transform="translate(0 0.510254)"/>
</clipPath>
</defs>
</svg>
