<?xml version="1.0" encoding="utf-8"?><svg viewBox="0 0 167 107" xmlns="http://www.w3.org/2000/svg" xmlns:xlink="http://www.w3.org/1999/xlink"><style>:root>svg{display:none}:root>svg:target{display:block}</style><svg fill="none" viewBox="0 0 24 24" id="cart" xmlns="http://www.w3.org/2000/svg"><path d="M9 22a1 1 0 100-2 1 1 0 000 2zM20 22a1 1 0 100-2 1 1 0 000 2zM1 1h4l2.68 13.39a2 2 0 002 1.61h9.72a2 2 0 002-1.61L23 6H6" stroke="currentcolor" stroke-width="2" stroke-linecap="round" stroke-linejoin="round"/></svg><svg fill="none" viewBox="0 0 28 28" id="catalog" xmlns="http://www.w3.org/2000/svg"><path d="M4.5 14c0 .83.67 1.5 1.5 1.5s1.5-.67 1.5-1.5-.67-1.5-1.5-1.5-1.5.67-1.5 1.5zm0-6c0 .83.67 1.5 1.5 1.5S7.5 8.83 7.5 8 6.83 6.5 6 6.5 4.5 7.17 4.5 8zm0 12c0 .823.677 1.5 1.5 1.5s1.5-.677 1.5-1.5a1.5 1.5 0 10-3 0zM25 20a1 1 0 00-1-1H10a1 1 0 100 2h14a1 1 0 001-1zm0-6a1 1 0 00-1-1H10a1 1 0 100 2h14a1 1 0 001-1zM10 9h14a1 1 0 100-2H10a1 1 0 000 2z" fill="currentColor"/></svg><svg fill="none" viewBox="0 0 28 28" id="filter" xmlns="http://www.w3.org/2000/svg"><path d="M18.5 15a3.501 3.501 0 013.355 2.5H24a1 1 0 110 2h-2.145a3.501 3.501 0 01-6.71 0H4a1 1 0 110-2h11.145A3.501 3.501 0 0118.5 15zm0 1.75a1.75 1.75 0 100 3.5 1.75 1.75 0 000-3.5zM10.5 6a3.501 3.501 0 013.355 2.5H24a1 1 0 110 2H13.855a3.501 3.501 0 01-6.71 0H4a1 1 0 110-2h3.145A3.502 3.502 0 0110.5 6zm0 1.75a1.75 1.75 0 100 3.5 1.75 1.75 0 000-3.5z" fill="#7776BC"/></svg><svg fill="none" viewBox="0 0 50 33" id="googlepay" xmlns="http://www.w3.org/2000/svg"><g clip-path="url(#dclip0)"><rect y=".51" width="50" height="32" rx="3" fill="#5485EC"/><path d="M23.972 17.337v4.424h-1.404V10.837h3.722a3.365 3.365 0 012.41.946 3.04 3.04 0 011.006 2.305 3.028 3.028 0 01-1.006 2.319c-.65.62-1.454.93-2.41.93h-2.318zm0-5.155v3.813h2.353a1.853 1.853 0 001.388-.564 1.862 1.862 0 000-2.67 1.83 1.83 0 00-1.388-.58h-2.353v.001zM32.94 14.043c1.037 0 1.856.277 2.456.831.6.555.9 1.315.9 2.28v4.607h-1.343v-1.037h-.06c-.582.854-1.354 1.28-2.319 1.28-.823 0-1.512-.243-2.066-.731a2.337 2.337 0 01-.832-1.83c0-.774.292-1.39.877-1.846.584-.457 1.365-.685 2.341-.687.833 0 1.52.153 2.059.458v-.32a1.598 1.598 0 00-.58-1.243 1.987 1.987 0 00-1.354-.511c-.784 0-1.404.33-1.861.991l-1.236-.778c.68-.976 1.686-1.464 3.018-1.464zm-1.815 5.43a1.12 1.12 0 00.465.915c.31.244.696.373 1.09.366a2.238 2.238 0 001.579-.655c.465-.438.697-.951.697-1.54-.437-.35-1.048-.523-1.83-.523-.57 0-1.045.137-1.426.412-.384.279-.575.618-.575 1.025zM44 14.287l-4.686 10.768h-1.448l1.738-3.768-3.08-7h1.525l2.227 5.369h.03l2.166-5.37H44zM18.301 16.384c0-.428-.035-.855-.108-1.276h-5.918v2.417h3.39a2.904 2.904 0 01-1.253 1.907V21h2.022c1.185-1.093 1.867-2.707 1.867-4.617z" fill="#fff"/><path d="M12.275 22.516c1.693 0 3.12-.556 4.159-1.514l-2.023-1.57c-.563.383-1.288.6-2.136.6-1.637 0-3.026-1.103-3.523-2.59H6.668v1.617a6.276 6.276 0 005.607 3.457z" fill="#fff"/><path d="M8.752 17.442a3.76 3.76 0 010-2.402v-1.617H6.668a6.276 6.276 0 000 5.636l2.084-1.617z" fill="#fff"/><path d="M12.275 12.45a3.407 3.407 0 012.407.941l1.791-1.791a6.03 6.03 0 00-4.198-1.634 6.275 6.275 0 00-5.607 3.457l2.084 1.617c.497-1.487 1.886-2.59 3.523-2.59z" fill="#fff"/></g><defs><clipPath id="dclip0"><path fill="#fff" transform="translate(0 .51)" d="M0 0h50v32H0z"/></clipPath></defs></svg><svg fill="none" viewBox="0 0 137 107" id="logo" xmlns="http://www.w3.org/2000/svg"><path d="M64 21.5c.8-.8.667-1.333.5-1.5h8c-.167.333-.4 1.1 0 1.5.5.5 1.5 1.5 2 2.5.4.8.167 3 0 4h-13v-3c0-1 1.5-2.5 2.5-3.5z" fill="#E60000"/><path d="M74 1H62l-3 19h18.5L74 1zM65 3.5l-1 14M71 3.5l1 14M68 3.5v14" stroke="#E60000" stroke-width="2"/><path fill="#E60000" d="M39 27h57v10H39zM39 38h57v10H39zM39 49h57v10H39z"/><path fill="#E60000" d="M42 52h9v10h-9zM84 52h9v10h-9z"/><path fill="#fff" d="M44 31h10v2H44zM44 42h10v2H44zM44 53h10v2H44zM81 31h10v2H81zM81 42h10v2H81zM81 53h10v2H81z"/><path d="M19.107 70.541l-4.236 12.85L19.511 99h-7.646L8.877 86.8V99h-7.4V70.541h7.4v11.057l3.287-11.057h6.943zm17.561 13.324v5.713c0 2.098-.105 3.639-.316 4.623-.211.973-.662 1.887-1.354 2.742-.691.844-1.582 1.471-2.672 1.881-1.078.399-2.32.598-3.726.598-1.57 0-2.9-.17-3.99-.51-1.09-.352-1.94-.873-2.55-1.564-.597-.704-1.025-1.547-1.283-2.532-.258-.996-.386-2.484-.386-4.464v-5.977c0-2.168.234-3.861.703-5.08.468-1.219 1.312-2.197 2.531-2.936 1.219-.738 2.777-1.107 4.676-1.107 1.594 0 2.959.24 4.096.72 1.148.47 2.033 1.085 2.654 1.846.62.762 1.043 1.547 1.265 2.356.235.808.352 2.039.352 3.691zm-7.102-1.758c0-1.195-.064-1.945-.193-2.25-.129-.316-.404-.474-.826-.474-.422 0-.703.158-.844.474-.14.305-.21 1.055-.21 2.25v10.53c0 1.101.07 1.822.21 2.162.14.328.416.492.826.492.422 0 .698-.152.826-.457.141-.305.211-.961.211-1.969V82.107zm16.471-6.433l-.123 2.215c.55-.88 1.207-1.535 1.969-1.97.761-.444 1.629-.667 2.601-.667 1.899 0 3.393.879 4.483 2.637.598-.88 1.271-1.535 2.021-1.97a4.797 4.797 0 012.496-.667c1.207 0 2.203.293 2.989.879.797.586 1.306 1.306 1.529 2.162.223.844.334 2.22.334 4.13V99h-6.89V83.795c0-1.992-.071-3.223-.212-3.692-.129-.48-.44-.72-.931-.72-.504 0-.832.234-.985.703-.14.469-.21 1.705-.21 3.709V99h-6.891V84.182c0-2.285-.059-3.657-.176-4.114-.105-.457-.41-.685-.914-.685-.317 0-.586.123-.809.369a1.365 1.365 0 00-.369.879c-.023.34-.035 1.072-.035 2.197V99h-6.89V75.674h7.013zm36.826 8.191v5.713c0 2.098-.105 3.639-.316 4.623-.211.973-.662 1.887-1.354 2.742-.691.844-1.582 1.471-2.671 1.881-1.079.399-2.32.598-3.727.598-1.57 0-2.9-.17-3.99-.51-1.09-.352-1.94-.873-2.55-1.564-.597-.704-1.024-1.547-1.282-2.532-.258-.996-.387-2.484-.387-4.464v-5.977c0-2.168.234-3.861.703-5.08.469-1.219 1.313-2.197 2.531-2.936 1.22-.738 2.778-1.107 4.676-1.107 1.594 0 2.96.24 4.096.72 1.148.47 2.033 1.085 2.654 1.846.621.762 1.043 1.547 1.266 2.356.234.808.351 2.039.351 3.691zm-7.101-1.758c0-1.195-.065-1.945-.194-2.25-.129-.316-.404-.474-.826-.474-.422 0-.703.158-.844.474-.14.305-.21 1.055-.21 2.25v10.53c0 1.101.07 1.822.21 2.162.141.328.416.492.827.492.422 0 .697-.152.826-.457.14-.305.21-.961.21-1.969V82.107zm25.611-11.566V99h-7.102v-1.688c-.68.704-1.394 1.231-2.144 1.582a5.485 5.485 0 01-2.355.528c-1.102 0-2.057-.287-2.866-.861-.808-.586-1.33-1.26-1.564-2.022-.223-.762-.334-2.004-.334-3.727V81.898c0-1.794.111-3.065.334-3.815.234-.75.761-1.406 1.582-1.969.82-.574 1.799-.861 2.935-.861.88 0 1.682.158 2.409.475a5.997 5.997 0 012.004 1.423v-6.609h7.101zm-7.102 11.004c0-.856-.076-1.43-.228-1.723-.14-.293-.428-.44-.861-.44-.422 0-.71.136-.862.405-.14.258-.21.844-.21 1.758V92.97c0 .949.07 1.576.21 1.88.14.293.41.44.809.44.457 0 .762-.164.914-.492.152-.34.228-1.16.228-2.461V81.545z" fill="#000"/><path d="M116.781 70.541v6.205L112.246 99h-7.066l5.045-23.344h-7.014v-5.115h13.57zm15.135 12.322c1.043.422 1.846 1.055 2.408 1.899.563.832.844 2.824.844 5.976 0 2.297-.223 3.99-.668 5.08-.445 1.09-1.312 1.987-2.602 2.69-1.289.691-3.017 1.037-5.185 1.037-2.109 0-3.779-.334-5.01-1.002-1.23-.668-2.115-1.553-2.654-2.654-.528-1.102-.791-2.936-.791-5.502 0-1.723.129-3.217.387-4.483.269-1.265 1.101-2.279 2.496-3.04-.879-.423-1.541-1.09-1.987-2.005-.433-.925-.65-2.097-.65-3.515 0-2.45.68-4.283 2.039-5.502 1.359-1.23 3.393-1.846 6.1-1.846 3.128 0 5.291.65 6.486 1.951 1.195 1.301 1.793 3.159 1.793 5.572 0 1.536-.199 2.643-.598 3.323-.386.68-1.189 1.353-2.408 2.021zm-3.99-6.117c0-.96-.088-1.594-.264-1.898-.164-.317-.486-.475-.967-.475-.468 0-.785.17-.949.51-.164.328-.246.949-.246 1.863v2.162c0 .856.094 1.448.281 1.776.188.328.504.492.949.492.469 0 .786-.158.95-.475.164-.328.246-.996.246-2.004v-1.95zm.14 11.83c0-1.09-.111-1.81-.334-2.162-.222-.363-.574-.545-1.054-.545-.469 0-.809.176-1.02.528-.199.34-.299 1.066-.299 2.18v3.69c0 1.231.112 2.022.334 2.374.235.351.598.527 1.09.527.504 0 .844-.176 1.02-.527.176-.364.263-1.172.263-2.426v-3.639z" fill="#E60000"/></svg><svg fill="none" viewBox="0 0 167 51" id="logo_mobile" xmlns="http://www.w3.org/2000/svg"><path d="M21.08 17.313c.666-.7.555-1.167.416-1.313h6.656c-.139.292-.333.962 0 1.313.416.437 1.248 1.312 1.664 2.187.333.7.139 2.625 0 3.5H19v-2.625c0-.875 1.248-2.188 2.08-3.063z" fill="#E60000"/><path fill-rule="evenodd" clip-rule="evenodd" d="M18.7 0h11.15L33 17H16l2.7-17zm1.393 1.619l-2.187 13.762h13.138L28.492 1.619h-8.4z" fill="#E60000"/><path fill-rule="evenodd" clip-rule="evenodd" d="M20 13.89L21.002 3 23 3.11 21.998 14 20 13.89zM28 13.89L27.332 3 26 3.11 26.668 14 28 13.89zM25 14V3h-2v11h2z" fill="#E60000"/><path d="M0 22h47v8H0v-8zM0 31h47v9H0v-9zM0 40h47v9H0v-9z" fill="#E60000"/><path d="M3 43h7v8H3v-8zM37 43h8v8h-8v-8z" fill="#E60000"/><path d="M5 26h8v1H5v-1zM5 35h8v1H5v-1zM5 44h8v1H5v-1zM35 26h8v1h-8v-1zM35 35h8v1h-8v-1zM35 44h8v1h-8v-1z" fill="#fff"/><path d="M70.649 13l-3.52 10.678 3.856 12.971h-6.353l-2.483-10.137v10.137H56V13h6.149v9.188L64.879 13h5.77zM85.24 24.072v4.748c0 1.743-.088 3.024-.264 3.842-.175.808-.55 1.568-1.124 2.278-.575.702-1.315 1.223-2.22 1.563-.896.331-1.928.497-3.097.497-1.304 0-2.41-.141-3.315-.424-.905-.292-1.611-.725-2.118-1.3-.496-.584-.852-1.285-1.066-2.103-.214-.828-.321-2.065-.321-3.71v-4.967c0-1.801.195-3.209.584-4.221.39-1.013 1.09-1.826 2.103-2.44 1.013-.614 2.308-.92 3.885-.92 1.324 0 2.459.2 3.403.599.954.39 1.69.9 2.206 1.534.516.633.866 1.285 1.051 1.957.195.672.292 1.694.292 3.067zm-5.901-1.46c0-.994-.054-1.617-.16-1.87-.108-.263-.337-.395-.687-.395-.35 0-.585.132-.701.395-.117.253-.176.876-.176 1.87v8.75c0 .915.059 1.514.176 1.796.116.273.345.41.686.41.35 0 .58-.127.686-.38.117-.254.176-.8.176-1.637v-8.94zM93.024 17.265l-.103 1.84c.458-.73 1.003-1.275 1.636-1.635.633-.37 1.353-.555 2.162-.555 1.577 0 2.818.73 3.724 2.19.496-.73 1.056-1.275 1.679-1.635a3.989 3.989 0 012.074-.555c1.003 0 1.831.243 2.483.73.662.487 1.086 1.086 1.271 1.797.185.701.277 1.845.277 3.433v13.774h-5.725V24.014c0-1.655-.058-2.678-.175-3.068-.107-.399-.365-.599-.774-.599-.419 0-.691.195-.818.585-.117.39-.175 1.417-.175 3.082v12.635h-5.725V24.335c0-1.899-.05-3.038-.146-3.418-.088-.38-.341-.57-.76-.57a.873.873 0 00-.672.307 1.134 1.134 0 00-.306.73c-.02.283-.03.892-.03 1.827v13.438h-5.725V17.265h5.828zM123.621 24.072v4.748c0 1.743-.088 3.024-.263 3.842-.175.808-.55 1.568-1.124 2.278-.575.702-1.315 1.223-2.22 1.563-.896.331-1.928.497-3.097.497-1.304 0-2.41-.141-3.315-.424-.906-.292-1.611-.725-2.118-1.3-.496-.584-.852-1.285-1.066-2.103-.214-.828-.321-2.065-.321-3.71v-4.967c0-1.801.195-3.209.584-4.221.389-1.013 1.09-1.826 2.103-2.44 1.013-.614 2.308-.92 3.885-.92 1.324 0 2.459.2 3.403.599.954.39 1.689.9 2.205 1.534.516.633.867 1.285 1.052 1.957.195.672.292 1.694.292 3.067zm-5.9-1.46c0-.994-.054-1.617-.161-1.87-.107-.263-.336-.395-.687-.395-.35 0-.584.132-.701.395-.116.253-.175.876-.175 1.87v8.75c0 .915.059 1.514.175 1.796.117.273.346.41.687.41.35 0 .579-.127.686-.38.117-.254.176-.8.176-1.637v-8.94zM139 13v23.65h-5.9v-1.403c-.565.584-1.159 1.023-1.782 1.315a4.559 4.559 0 01-1.957.438c-.916 0-1.709-.239-2.381-.716-.672-.487-1.105-1.047-1.3-1.68-.185-.633-.277-1.665-.277-3.096v-9.072c0-1.49.092-2.546.277-3.17.195-.623.633-1.168 1.315-1.635.681-.478 1.494-.716 2.439-.716.73 0 1.397.131 2.001.394a4.99 4.99 0 011.665 1.183V13h5.9zm-5.9 9.144c0-.71-.064-1.188-.19-1.431-.117-.244-.356-.366-.716-.366-.35 0-.589.112-.716.336-.116.215-.175.702-.175 1.461v9.495c0 .789.059 1.31.175 1.563.117.244.341.365.672.365.38 0 .633-.136.76-.409.126-.282.19-.964.19-2.045v-8.969z" fill="#000"/><path d="M151.465 13.443v5.04l-3.831 18.074h-5.971l4.263-18.96H140v-4.154h11.465zM164.252 23.45c.882.344 1.56.858 2.035 1.543.475.676.713 2.294.713 4.854 0 1.866-.188 3.241-.564 4.126-.377.885-1.109 1.614-2.198 2.185-1.089.561-2.55.842-4.382.842-1.782 0-3.193-.271-4.232-.814-1.04-.542-1.787-1.261-2.243-2.156-.445-.894-.668-2.384-.668-4.468 0-1.4.109-2.613.327-3.641.227-1.028.93-1.851 2.109-2.47a3.466 3.466 0 01-1.679-1.628c-.366-.752-.549-1.703-.549-2.855 0-1.99.574-3.479 1.723-4.469 1.148-1 2.866-1.499 5.153-1.499 2.644 0 4.47.528 5.48 1.585 1.01 1.056 1.515 2.565 1.515 4.526 0 1.247-.168 2.146-.505 2.698-.327.552-1.005 1.1-2.035 1.642zm-3.371-4.967c0-.781-.074-1.295-.223-1.543-.138-.257-.41-.385-.816-.385-.396 0-.664.138-.802.414-.139.267-.208.771-.208 1.514v1.755c0 .695.079 1.176.237 1.442.159.267.426.4.802.4.396 0 .664-.128.802-.385.139-.267.208-.81.208-1.628v-1.584zM161 28.09c0-.885-.094-1.47-.282-1.756-.188-.295-.485-.443-.891-.443-.396 0-.683.143-.862.429-.168.276-.252.866-.252 1.77v2.998c0 1 .094 1.642.282 1.928.198.285.505.428.921.428.426 0 .713-.143.861-.428.149-.295.223-.952.223-1.97V28.09z" fill="#E60000"/></svg><svg fill="none" viewBox="0 0 50 33" id="mastercard" xmlns="http://www.w3.org/2000/svg"><g clip-path="url(#gclip0)"><rect y=".51" width="50" height="32" rx="3" fill="#0F3560"/><path d="M29.363 24.375h-8.749V8.65h8.75v15.724z" fill="#FF5F00"/><path d="M21.175 16.512c0-3.19 1.493-6.031 3.819-7.862a9.956 9.956 0 00-6.18-2.138c-5.522 0-9.999 4.477-9.999 10s4.477 10 10 10c2.332 0 4.478-.8 6.179-2.138a9.983 9.983 0 01-3.82-7.862z" fill="#EB001B"/><path d="M41.163 16.512c0 5.523-4.476 10-9.998 10-2.333 0-4.48-.8-6.18-2.138a9.982 9.982 0 003.82-7.862c0-3.19-1.494-6.031-3.82-7.862a9.959 9.959 0 016.18-2.138c5.522 0 9.998 4.477 9.998 10z" fill="#F79E1B"/><path d="M16.34 16.575c0-.437.286-.795.754-.795.447 0 .748.343.748.795s-.301.796-.748.796c-.468 0-.754-.36-.754-.796zm2.012 0v-1.242h-.54v.301c-.172-.223-.432-.364-.785-.364-.697 0-1.244.546-1.244 1.305 0 .76.547 1.305 1.244 1.305.353 0 .613-.14.784-.364v.302h.54v-1.243zm18.26 0c0-.437.286-.795.754-.795.447 0 .748.343.748.795s-.3.796-.748.796c-.468 0-.754-.36-.754-.796zm2.012 0v-2.24h-.54v1.3c-.172-.224-.432-.365-.786-.365-.697 0-1.243.546-1.243 1.305 0 .76.547 1.305 1.243 1.305.354 0 .614-.14.785-.364v.302h.541v-1.243zm-13.565-.821c.348 0 .572.218.63.603h-1.29c.057-.36.275-.603.66-.603zm.01-.484c-.728 0-1.237.53-1.237 1.305 0 .79.53 1.305 1.274 1.305.374 0 .717-.093 1.019-.348l-.265-.4c-.208.165-.474.26-.723.26-.348 0-.665-.162-.743-.61h1.845c.005-.067.01-.134.01-.207-.005-.775-.483-1.305-1.18-1.305zm6.525 1.305c0-.437.287-.795.754-.795.447 0 .749.343.749.795s-.302.796-.749.796c-.467 0-.754-.36-.754-.796zm2.012 0v-1.242h-.54v.301c-.172-.223-.431-.364-.785-.364-.697 0-1.243.546-1.243 1.305 0 .76.546 1.305 1.243 1.305.354 0 .613-.14.785-.364v.302h.54v-1.243zm-5.063 0c0 .754.525 1.305 1.326 1.305.374 0 .623-.083.893-.296l-.259-.437a1.092 1.092 0 01-.65.224c-.432-.006-.75-.317-.75-.796 0-.478.318-.79.75-.795.234 0 .447.077.65.223l.26-.437c-.27-.213-.52-.296-.894-.296-.801 0-1.326.551-1.326 1.305zm6.967-1.305a.734.734 0 00-.656.364v-.302h-.535v2.486h.54v-1.394c0-.41.177-.64.53-.64.11 0 .225.016.339.063l.166-.51a1.15 1.15 0 00-.384-.067zm-14.486.26c-.26-.171-.618-.26-1.013-.26-.63 0-1.035.302-1.035.796 0 .405.302.655.858.733l.255.036c.296.042.436.12.436.26 0 .192-.197.302-.566.302-.375 0-.645-.12-.827-.26l-.255.42c.297.219.671.323 1.076.323.718 0 1.134-.338 1.134-.811 0-.437-.327-.665-.868-.743l-.255-.037c-.234-.031-.421-.078-.421-.244 0-.182.176-.291.473-.291.317 0 .624.12.775.213l.233-.437zm6.973-.26a.732.732 0 00-.655.364v-.302h-.536v2.486h.54v-1.394c0-.41.177-.64.53-.64.11 0 .225.016.339.063l.166-.51a1.15 1.15 0 00-.384-.067zm-4.612.063h-.884v-.754h-.546v.753h-.504v.494h.504v1.134c0 .577.224.92.863.92.234 0 .505-.072.676-.192l-.156-.463a1 1 0 01-.478.14c-.27 0-.359-.166-.359-.416v-1.123h.884v-.494zm-8.08 2.485v-1.56c0-.587-.374-.983-.977-.988-.317-.005-.645.094-.874.442-.171-.275-.441-.442-.821-.442-.265 0-.525.078-.728.369v-.306h-.54v2.485h.545V16.44c0-.431.24-.66.609-.66.359 0 .54.233.54.655v1.383h.546V16.44c0-.431.25-.66.609-.66.368 0 .545.233.545.655v1.383h.547z" fill="#fff"/></g><defs><clipPath id="gclip0"><path fill="#fff" transform="translate(0 .51)" d="M0 0h50v32H0z"/></clipPath></defs></svg><svg fill="none" viewBox="0 0 74 25" id="pay-halva" xmlns="http://www.w3.org/2000/svg"><g clip-path="url(#hclip0)"><path d="M0 12.491c0-3.313 1.355-6.49 3.767-8.832C6.18 1.316 9.451 0 12.863 0h48.274c3.414 0 6.688 1.317 9.102 3.661 2.414 2.344 3.77 5.524 3.77 8.839 0 3.315-1.356 6.495-3.77 8.839C67.825 23.683 64.55 25 61.137 25H12.863c-1.691 0-3.365-.324-4.927-.953a12.895 12.895 0 01-4.175-2.712 12.474 12.474 0 01-2.787-4.058A12.18 12.18 0 010 12.491zm21.508 5.57l-3-5.518a5.346 5.346 0 002.833-1.447 5.09 5.09 0 001.455-2.768 2.32 2.32 0 00-.172-1.032 2.382 2.382 0 00-.611-.86 2.47 2.47 0 00-.932-.524 2.522 2.522 0 00-1.072-.086c-1.606.154-2.03 1.2-1.924 1.302.37.309 1.341 2.605-.37 3.65l-1.835-4.42a.101.101 0 00-.031-.074.107.107 0 00-.075-.03h-4.358c-.159 0-.106.103-.106.103l2.805 5.415c-1.079.2-2.074.7-2.867 1.44a5.48 5.48 0 00-1.597 2.724c-.026.33.018.664.13.978.111.314.289.602.52.847.233.244.514.44.827.574.313.134.651.204.994.205a2.416 2.416 0 001.452-.393c.427-.282.747-.691.912-1.166a2.291 2.291 0 01-.436-.805 2.25 2.25 0 01.2-1.774c.153-.268.36-.504.607-.694l1.87 4.37a.1.1 0 00.03.072c.02.02.048.03.076.03h4.605c.123 0 .07-.103.07-.103v-.017zm10.128-3.428l.759-4.952h-3.529l-.159 1.2a2.393 2.393 0 00-.924-1.149 2.506 2.506 0 00-1.44-.41c-1.12.099-2.16.607-2.91 1.42a4.245 4.245 0 00-1.13 2.966c-.265 2.245.582 4.746 2.787 4.746a3.792 3.792 0 001.74-.607c.518-.342.94-.805 1.224-1.346 0 .262.055.522.162.763.107.241.263.458.46.638s.43.319.684.408c.254.09.524.127.794.11.441-.007.874-.12 1.259-.33.385-.209.71-.508.947-.87.194-.445-1.041.12-.724-2.535v-.052zm-4.834 1.457c-.812 0-1.13-1.045-.97-2.245.158-1.2.705-2.296 1.552-2.296.847 0 1.182 1.045 1.023 2.296-.159 1.251-.74 2.296-1.588 2.296l-.017-.051zm16.62-6.255a18.157 18.157 0 00-7.498 0 19.865 19.865 0 01-.865 3.959 6.313 6.313 0 01-2.1 2.861c.028.491.248.953.615 1.291.368.338.855.526 1.362.526 1.394 0 2.364-.892 2.893-2.862.343-1.417.538-2.863.583-4.318h1.394l-.865 6.854h3.405v-.103l1.077-8.207zm4.5 1.868l.106-.308c7.057-.788 5.893-5.723 2.364-5.672-3.97.103-6.228 4.9-6.228 8.568a3.734 3.734 0 00.204 1.585c.182.509.472.975.851 1.367.38.393.84.704 1.351.913.511.208 1.062.31 1.617.298.622.055 1.25-.02 1.839-.222a4.382 4.382 0 001.577-.944c.45-.42.802-.93 1.032-1.495.229-.565.33-1.17.298-1.777-.282-2.399-3.017-2.878-4.993-2.244l-.018-.069zm1.87-3.804c.424 0 .424.206.424.463-.16 1.045-1.765 1.713-1.765 1.713.141-.445.618-2.107 1.359-2.107l-.018-.069zm0 6.854c0 .514-.476 1.868-1.34 1.868-1.289 0-.918-2.656-.76-3.427.309-.117.644-.153.97-.103.865.154 1.183.737 1.077 1.61l.053.052zm13.357 0l.758-5.003h-3.634l-.283 1.182a2.341 2.341 0 00-.917-1.159 2.452 2.452 0 00-1.447-.4c-1.09.12-2.094.63-2.816 1.433a4.193 4.193 0 00-1.083 2.902c-.318 2.245.582 4.746 2.735 4.746a3.6 3.6 0 001.73-.551 3.463 3.463 0 001.216-1.316c.004.265.064.527.176.77.112.242.274.46.475.64a2.067 2.067 0 001.502.51c.432-.015.855-.132 1.23-.34.375-.21.692-.505.922-.86.265-.463-.97.102-.635-2.554h.07zm-4.923 1.388c-.864 0-1.13-1.045-1.023-2.244.106-1.2.758-2.297 1.605-2.297s1.13 1.046.97 2.296c-.158 1.251-.634 2.245-1.552 2.245z" fill="#FF4E50"/></g><defs><clipPath id="hclip0"><path fill="#fff" d="M0 0h74v25H0z"/></clipPath></defs></svg><svg fill="none" viewBox="0 0 47 37" id="pay-mastercard" xmlns="http://www.w3.org/2000/svg"><g clip-path="url(#iclip0)"><path d="M45.818 36.505h.241v.247h-.24v-.247zm0 .495h.241a.253.253 0 000-.248.238.238 0 00.17-.072.25.25 0 000-.35.238.238 0 00-.17-.072h-.24v.247a.238.238 0 00-.171.072.25.25 0 000 .35.238.238 0 00.17.073zm0-.742a.337.337 0 01.482 0 .354.354 0 010 .494h-.24a.472.472 0 01-.483 0v-.247a.508.508 0 010-.248h.482-.24zM10.61 34.772c.023-.32.157-.622.378-.849.222-.227.516-.365.828-.388.723 0 .965.495.965 1.238a1.16 1.16 0 01-.238.819c-.18.23-.441.38-.727.418a1.288 1.288 0 01-.828-.388 1.352 1.352 0 01-.378-.85zm3.135 0v-1.98h-.964v.496a1.448 1.448 0 00-.546-.395 1.414 1.414 0 00-.66-.1 1.862 1.862 0 00-.742.144 1.9 1.9 0 00-.63.428 1.96 1.96 0 00-.417.646 2 2 0 00-.14.761 2.212 2.212 0 00.535 1.506c.358.414.857.672 1.394.722a1.3 1.3 0 00.707-.194c.213-.131.386-.321.499-.548v.494h.964v-1.98zm27.732 0c.023-.32.157-.622.379-.849.221-.227.515-.365.827-.388.239 0 .472.073.67.209.198.136.353.329.444.555a1.269 1.269 0 01-.261 1.349c-.169.173-.384.29-.618.338a1.178 1.178 0 01-.696-.07 1.213 1.213 0 01-.541-.456 1.262 1.262 0 01-.204-.688zm3.135 0v-3.464h-.964v1.98a1.448 1.448 0 00-.546-.395 1.414 1.414 0 00-.66-.1 1.861 1.861 0 00-.742.144 1.9 1.9 0 00-.63.428 1.96 1.96 0 00-.417.646c-.096.242-.143.5-.14.761a2.213 2.213 0 00.535 1.506c.358.414.857.672 1.394.722.254.038.512-.015.732-.15.22-.136.387-.345.474-.593v.495h.964v-1.98zm-20.739-1.237a.872.872 0 01.707.265.918.918 0 01.258.725h-1.93a.938.938 0 01.26-.725.888.888 0 01.706-.265zm0-.742a1.742 1.742 0 00-.763.104 1.779 1.779 0 00-.65.425 1.839 1.839 0 00-.414.667c-.089.25-.124.518-.102.784a2.212 2.212 0 00.536 1.505c.358.414.856.672 1.393.722.317.009.633-.053.924-.181.291-.129.552-.32.765-.562l-.483-.494-1.206.247c-.482 0-.964 0-.964-.742h2.411v-.495a1.8 1.8 0 00-.41-1.38 1.716 1.716 0 00-.576-.441 1.675 1.675 0 00-.702-.16h.241zm9.646 1.98c.023-.321.157-.623.379-.85.221-.227.515-.365.827-.388.239 0 .472.073.67.209.198.136.353.329.444.555a1.267 1.267 0 01-.261 1.349 1.178 1.178 0 01-1.314.268 1.214 1.214 0 01-.541-.456 1.26 1.26 0 01-.203-.688zm3.136 0v-1.98h-.724v.495a1.448 1.448 0 00-.546-.395 1.414 1.414 0 00-.66-.1 1.743 1.743 0 00-.763.104 1.78 1.78 0 00-.65.425 1.839 1.839 0 00-.414.667c-.09.25-.124.518-.102.784-.027.278.003.56.087.825.085.267.222.512.403.721.181.21.403.378.65.495.248.117.517.18.79.186a1.3 1.3 0 00.706-.194c.213-.131.386-.321.499-.548v.494h.724v-1.98zm-7.717 0c-.027.278.003.56.087.825.084.267.222.512.403.721.18.21.402.378.65.495.248.117.516.18.789.186l1.447-.495-.483-.742-.964.247a1.226 1.226 0 01-.71-.438 1.283 1.283 0 010-1.6c.18-.225.431-.38.71-.437.482 0 .723 0 .964.495l.483-.742a2.134 2.134 0 00-1.447-.495 1.742 1.742 0 00-.764.104 1.78 1.78 0 00-.65.425 1.837 1.837 0 00-.413.667c-.09.25-.124.518-.102.784zm10.61-1.98c-.482 0-.723 0-.964.495v-.495h-.724v3.96h.724v-2.104c0-.495.24-.99.723-.99h.482l.483-.743h-.483l-.24-.123zm-21.944.618l-1.447-.495c-.965 0-1.447.495-1.447 1.238 0 .742.241.99 1.206 1.237h.482c.241 0 .482 0 .482.495a.909.909 0 01-.299.344.877.877 0 01-.424.151l-1.447-.495-.241.495c.212.242.473.433.764.561.292.129.607.19.924.182a1.59 1.59 0 001.132-.397c.314-.277.513-.666.556-1.088 0-.743-.482-.99-1.447-.99h-.241c-.482 0-.724-.248-.724-.495 0-.248.242-.495.724-.495l1.206.247.24-.495zm10.851-.495c-.482 0-.964 0-1.205.495v-.495h-.724v3.96h.724V34.65c.017-.257.124-.499.301-.68.177-.183.413-.293.663-.31h.483v-.743h-.242zm-7.234 0h-1.206v-.99h-.964v.99h-.724v.743h.724v1.98a1.467 1.467 0 00.408 1.065c.136.14.298.248.477.32.178.073.37.107.561.1a.944.944 0 00.556-.096.977.977 0 00.41-.4v-.494l-.966.247c-.482 0-.482 0-.482-.495V33.66h1.206v-.743zm-12.058 3.96v-2.475a1.672 1.672 0 00-.555-1.088 1.59 1.59 0 00-1.133-.397c-.482 0-.964 0-1.205.743a1.464 1.464 0 00-.613-.598 1.415 1.415 0 00-.834-.145.943.943 0 00-.556.097.976.976 0 00-.409.398v-.495h-.964v3.96h.964V34.65a.938.938 0 01.258-.725.89.89 0 01.707-.265c.482 0 .723.495.723.99v2.475h.965v-2.475c0-.495.24-.99.723-.99a.872.872 0 01.707.265.919.919 0 01.258.725v2.475h.723l.241-.248z" fill="#231F20"/><path d="M46.276 23.635v-.495l-.242.495v-.495h-.217v.743h.483l-.024-.248z" fill="#F79410"/><path d="M30.119 26.11H17.338V3.59h12.78V26.11z" fill="#FF5F00"/><path d="M18.061 14.85c.045-2.201.566-4.365 1.525-6.334a14.777 14.777 0 014.022-5.051A14.281 14.281 0 0016.2.23 14.141 14.141 0 008.257 1.56a14.598 14.598 0 00-6.023 5.48 15.138 15.138 0 00-2.239 7.934c0 2.81.776 5.56 2.239 7.935a14.599 14.599 0 006.023 5.479 14.142 14.142 0 007.944 1.328 14.28 14.28 0 007.407-3.233 14.805 14.805 0 01-3.942-5.197 15.18 15.18 0 01-1.363-6.436" fill="#EB001B"/><path d="M46.758 14.85a15.132 15.132 0 01-2.255 7.717 14.603 14.603 0 01-5.85 5.373 14.148 14.148 0 01-7.723 1.447 14.255 14.255 0 01-7.323-2.905 14.8 14.8 0 003.927-5.139 15.175 15.175 0 001.399-6.37c0-2.203-.478-4.38-1.4-6.37a14.799 14.799 0 00-3.926-5.138 14.27 14.27 0 017.324-3.07 14.142 14.142 0 017.802 1.34 14.592 14.592 0 015.949 5.352 15.129 15.129 0 012.317 7.762" fill="#F79E1B"/></g><defs><clipPath id="iclip0"><path fill="#fff" d="M0 0h47v37H0z"/></clipPath></defs></svg><svg fill="none" viewBox="0 0 48 16" id="pay-visa" xmlns="http://www.w3.org/2000/svg"><g clip-path="url(#jclip0)"><path d="M30.704 0h-.307c-2.528.221-4.606 1.602-5.271 3.5-.768 2.234 0 4.026 2.487 5.438l.706.358c1.392.728 1.852 1.139 1.934 1.719.082.58-.41 1.264-1.31 1.538a7.312 7.312 0 01-4.165-.485l-.41-.168-.266-.137c-.133-.053-.133-.074-.163.095-.076.38-.157.755-.246 1.127l-.133.728-.113.485-.174.874v.074c0 .074.614.222.768.274l.256.074c1.28.357 2.606.5 3.93.422h.542a8.998 8.998 0 002.436-.643 4.763 4.763 0 002.233-1.797c.549-.82.84-1.793.837-2.788 0-1.74-.88-2.93-3.07-4.1l-.338-.18-.409-.21c-1.228-.685-1.637-1.054-1.637-1.613 0-1.286 2.18-1.729 4.574-.949.233.068.459.156.676.264.205.084.205.084.245-.137l.082-.358.4-1.392.214-1.254V.675h-.092A10.323 10.323 0 0030.704 0zM0 .443v.316l.205.053c.368.084.92.232 1.453.39.85.235 1.668.579 2.436 1.022.366.283.608.704.675 1.17.205.878.417 1.757.635 2.635l.286 1.138.584 2.32.348 1.412.174.685.174.706c.3 1.16.593 2.315.88 3.468h4.094l.05-.137a243.135 243.135 0 011.587-3.9l.379-.949.174-.421.41-1.055.173-.421.42-1.054.215-.337.593-1.434.348-.875c.1-.326.216-.646.348-.959.164-.429.335-.857.512-1.286l.594-1.433.204-.527.277-.654h-4.094L14 .696l-.174.358c-.178.429-.345.86-.502 1.296l-.716 1.866-.164.432c-.15.373-.293.745-.43 1.118-.382.955-.75 1.918-1.105 2.888l-.675 1.886-.093.232v-.169a30.943 30.943 0 00-.286-1.591c-.13-.745-.266-1.49-.41-2.235l-.235-.959a43.975 43.975 0 01-.297-1.602l-.071-.348-.215-1.222v-.222c0-.07-.038-.175-.113-.316a1.974 1.974 0 00-.406-1.095 1.881 1.881 0 00-.945-.655L7.072.295H.052L0 .443zM19.855.369V.59a32.775 32.775 0 00-.665 3.015l-.266 1.222c-.048.24-.092.475-.133.707l-.082.39c-.13.702-.27 1.384-.42 2.044l-.594 2.836-.153.77c-.075.4-.16.793-.256 1.18l-.112.558-.072.317c-.116.484-.218.973-.307 1.465l-.123.6 1.955.053h1.934v-.18l.051-.22c0-.074.533-2.52.553-2.688l.072-.316.225-1.118.072-.305.317-1.434.123-.558.368-1.813.051-.253c.11-.471.208-.945.297-1.423.13-.598.256-1.198.379-1.803v-.2c.116-.632.245-1.265.389-1.897l.317-1.223h-3.91V.37h-.01zm21.38-.053c-.31.06-.6.202-.841.413-.24.21-.423.483-.53.789-.314.787-.638 1.574-.973 2.36l-.174.422-.112.274-.174.433-.113.263c-.123.337-.26.689-.41 1.054l-.112.274-.174.443a34.51 34.51 0 00-.45 1.054l-.123.337c-.047.088-.089.18-.123.274l-.174.443c-.205.478-.402.956-.593 1.433-.314.76-.621 1.518-.922 2.277l-.43 1.054-.716 1.802h4.094l.051-.158.502-1.433.153-.422.051-.158v-.116h4.954v.074c.068.372.143.745.225 1.117l.195.917v.2H48v-.22a27.867 27.867 0 01-.328-1.54l-.112-.558-.225-1.128-.113-.559-.143-.474-.072-.316a2.657 2.657 0 00-.071-.39l-.154-.728c-.211-.962-.41-1.928-.593-2.898l-.134-.875-.174-.896a19.5 19.5 0 01-.266-1.286l-.112-.558-.113-.559-.112-.506A83.265 83.265 0 0145.022.98c-.041-.182-.079-.369-.113-.558V.285h-3.694l.02.031zm1.003 4.543c.136.703.28 1.426.43 2.171l.071.317.072.347c.157.83.328 1.655.512 2.477h-3.204a88.27 88.27 0 001.024-3.035l.174-.506c.184-.471.355-.949.512-1.434l.204-.6v-.127.084l.072.296" fill="#0E1A65"/></g><defs><clipPath id="jclip0"><path fill="#fff" d="M0 0h48v16H0z"/></clipPath></defs></svg><svg fill="none" viewBox="0 0 56 16" id="pay-world" xmlns="http://www.w3.org/2000/svg"><g clip-path="url(#kclip0)"><path d="M15.092 0a2.908 2.908 0 00-1.727.59A2.954 2.954 0 0012.32 2.1c-.69 2.465-1.383 4.93-2.08 7.394h-.406S8.294 4.063 7.7 2.1A2.954 2.954 0 006.677.607 2.909 2.909 0 004.983 0H0v16h4.983V6.495H5.4L8.305 16h3.465l2.904-9.493h.418V16h4.983V0h-4.983zm18.204 0a2.78 2.78 0 00-1.319.545c-.385.294-.689.684-.88 1.132l-3.532 7.772h-.418V0H22.22v16h4.707c.477-.07.928-.261 1.313-.554.384-.293.69-.68.888-1.123l3.464-7.772H33v9.504h4.983V0h-4.686zm6.92 7.262V16h4.982v-5.097H50.6a5.355 5.355 0 003.12-.996 5.436 5.436 0 001.973-2.634l-15.477-.011z" fill="#4DB45E"/><path d="M50.6 0H39.521a8.055 8.055 0 002.718 4.698 7.92 7.92 0 005.06 1.875h8.546a5.503 5.503 0 00-1.08-4.542A5.41 5.41 0 0052.91.542 5.36 5.36 0 0050.6 0z" fill="url(#kpaint0_linear)"/></g><defs><linearGradient id="kpaint0_linear" x1="38.793" y1="1.764" x2="55.281" y2="1.764" gradientUnits="userSpaceOnUse"><stop offset=".3" stop-color="#00B4E6"/><stop offset="1" stop-color="#088CCB"/></linearGradient><clipPath id="kclip0"><path fill="#fff" d="M0 0h56v16H0z"/></clipPath></defs></svg><svg fill="none" viewBox="0 0 28 28" id="point" xmlns="http://www.w3.org/2000/svg"><path d="M23 12.015C23 7.036 18.971 3 14 3s-9 4.037-9 9.015c0 3.548 2.18 7.83 6.48 12.915a3.3 3.3 0 005.04 0c4.3-5.085 6.48-9.367 6.48-12.915zm-8.16 11.777a1.3 1.3 0 01-1.833-.153C8.983 18.88 7 14.983 7 12.015 7 8.14 10.134 5 14 5s7 3.14 7 7.015c0 2.968-1.983 6.866-6.007 11.624a1.302 1.302 0 01-.154.153zM10 12a4 4 0 118.001.001A4 4 0 0110 12zm2 0a2 2 0 104.001-.001A2 2 0 0012 12z" fill="#7776BC"/></svg><svg fill="none" viewBox="0 0 35 35" id="remove" xmlns="http://www.w3.org/2000/svg"><path d="M.5 5A4.5 4.5 0 015 .5h25A4.5 4.5 0 0134.5 5v25a4.5 4.5 0 01-4.5 4.5H5A4.5 4.5 0 01.5 30V5z" stroke="currentcolor"/><path d="M23.094 27.667H10.907a1.954 1.954 0 01-1.906-2v-13.18h1.333v13.18a.62.62 0 00.573.666h12.187a.619.619 0 00.573-.666v-13.18h1.334v13.18a1.953 1.953 0 01-1.907 2zM25.52 11H8.334a.666.666 0 110-1.333H25.52a.667.667 0 110 1.333z" fill="currentcolor"/><path d="M19 13.667h1.333v10H19v-10zM13.667 13.667H15v10h-1.333v-10zM20.334 8.907h-1.267v-1.24h-4.133v1.24h-1.267v-1.24a1.334 1.334 0 011.267-1.334h4.133a1.333 1.333 0 011.267 1.334v1.24z" fill="currentcolor"/></svg><svg fill="none" viewBox="0 0 50 33" id="visa" xmlns="http://www.w3.org/2000/svg"><g clip-path="url(#nclip0)"><rect y=".51" width="50" height="32" rx="3" fill="#00579F"/><path d="M22.467 22.046h-3.078l1.925-11.036h3.078l-1.925 11.036zM33.626 11.28a8.113 8.113 0 00-2.761-.47c-3.04 0-5.181 1.503-5.194 3.651-.025 1.585 1.533 2.466 2.698 2.994 1.19.54 1.596.893 1.596 1.374-.013.74-.963 1.08-1.85 1.08-1.228 0-1.887-.176-2.887-.587l-.406-.176-.43 2.477c.722.305 2.052.575 3.433.587 3.23 0 5.332-1.48 5.357-3.768.013-1.257-.81-2.22-2.584-3.006-1.076-.505-1.735-.845-1.735-1.362.012-.47.557-.95 1.773-.95 1-.024 1.735.199 2.293.422l.278.117.419-2.383zM37.717 18.136l1.229-3.087c-.013.023.253-.646.405-1.057l.215.951s.583 2.641.71 3.193h-2.56zm3.8-7.126h-2.382c-.734 0-1.292.2-1.608.916l-4.573 10.12h3.23l.646-1.656h3.952c.089.388.368 1.656.368 1.656H44L41.516 11.01zM16.817 11.01l-3.015 7.525-.33-1.526c-.557-1.76-2.305-3.674-4.255-4.626l2.761 9.651h3.255l4.839-11.024h-3.255z" fill="#fff"/><path d="M11.003 11.01H6.051L6 11.233c3.863.916 6.422 3.123 7.473 5.777l-1.076-5.072c-.178-.705-.722-.905-1.394-.928z" fill="#FAA61A"/></g><defs><clipPath id="nclip0"><path fill="#fff" transform="translate(0 .51)" d="M0 0h50v32H0z"/></clipPath></defs></svg><svg fill="none" viewBox="0 0 50 33" id="webmoney" xmlns="http://www.w3.org/2000/svg"><g clip-path="url(#oclip0)"><rect y=".51" width="50" height="32" rx="3" fill="#036CB5"/><path d="M25.058 5.51c1.073 0 2.093.244 3.01.68.143.065.287.142.43.22l-.627.552-.942-.964-1.622 1.413-.955-1.015-2.983 2.634 1.91 2.068-.746.641 1.884 2.068-.745.642 2.695 2.942 1.595-1.439 1.388 1.542a7.754 7.754 0 01-.903.59 6.936 6.936 0 01-3.376.873c-3.781 0-6.855-3.017-6.855-6.729-.014-3.686 3.061-6.718 6.842-6.718zm-1.256 6.307l1.635-1.439 1.466 1.606-1.636 1.438-1.465-1.605zm1.165 2.774l1.622-1.451 1.478 1.605-1.635 1.439-1.465-1.593zm-2.329-5.51l1.635-1.439 1.465 1.606-1.635 1.439-1.465-1.606zm2.996-.77l1.216-1.08 1.1 1.195-1.217 1.091-1.1-1.207zm2.172 4.944l1.216-1.079 1.1 1.207-1.218 1.08-1.098-1.208zm1.072 2.428l1.217-1.08 1.099 1.195-1.217 1.092-1.099-1.207zm.498-5.549l.81-.72.733.797-.81.72-.733-.797zm-1.047-2.376l.811-.732.733.809-.812.72-.732-.797zm2.08 4.752l.811-.719.746.796-.824.72-.733-.797zm-3.65-1.785l1.217-1.079 1.099 1.194-1.217 1.08-1.099-1.195zM14.38 23.742h-.039l-.714 2.713h-.584l-.876-3.854h.606l.605 2.876h.038l.703-2.876h.482l.751 2.876h.038l.552-2.876h.633l-.877 3.854h-.584l-.735-2.713zM17.343 24.814h1.239c-.027-.57-.303-.799-.595-.799-.33 0-.584.256-.644.8zm1.671 1.022v.414a1.9 1.9 0 01-.957.25c-.909 0-1.282-.566-1.282-1.424 0-.827.417-1.425 1.228-1.425.676 0 1.093.44 1.093 1.326v.202h-1.764c0 .652.265.94.823.94.292 0 .562-.104.86-.283zM20.354 26.064c.173.076.363.087.498.087.4 0 .703-.25.703-1.13 0-.69-.25-.914-.611-.914-.217 0-.374.06-.59.18v1.777zm.006-2.18c.162-.086.437-.2.73-.2.67 0 1.032.467 1.032 1.336 0 1.017-.486 1.512-1.27 1.512-.287 0-.73-.093-1.055-.267V22.47l.563-.136v1.55zM24.556 25.637h.027l1.158-3.038h.67v3.854h-.584v-2.794h-.048l-1.104 2.794h-.346l-1.103-2.729h-.049v2.729h-.487v-3.854h.655l1.211 3.038zM28.798 25.075c0-.733-.297-1.043-.665-1.043-.356 0-.665.31-.665 1.043 0 .745.282 1.044.665 1.044.384 0 .665-.299.665-1.044zm-1.898 0c0-.951.52-1.424 1.233-1.424.715 0 1.234.473 1.234 1.424 0 .93-.492 1.425-1.234 1.425-.74 0-1.233-.495-1.233-1.425zM29.794 24.054c.243-.147.757-.403 1.38-.403.648 0 .891.256.891.815v1.968h-.562v-1.842c0-.43-.21-.506-.487-.506-.216 0-.492.098-.66.196v2.152h-.562v-2.38zM33.255 24.814h1.239c-.027-.57-.303-.799-.595-.799-.33 0-.584.256-.644.8zm1.671 1.022v.414a1.9 1.9 0 01-.957.25c-.908 0-1.282-.566-1.282-1.424 0-.827.417-1.425 1.228-1.425.676 0 1.093.44 1.093 1.326v.202h-1.763c0 .652.265.94.822.94.291 0 .562-.104.86-.283zM37.255 23.651h.58l-.98 2.718c-.27.75-.6 1.141-1.222 1.141v-.445c.368 0 .595-.294.725-.696l-1.039-2.718h.595l.693 2h.032l.616-2z" fill="#fff"/></g><defs><clipPath id="oclip0"><path fill="#fff" transform="translate(0 .51)" d="M0 0h50v32H0z"/></clipPath></defs></svg><svg fill="none" viewBox="0 0 49 39" id="whyus1" xmlns="http://www.w3.org/2000/svg"><path d="M44.596 14.595c-2.274 0-4.054 1.78-4.054 4.054v1.216a.811.811 0 001.621 0V18.65c0-1.386 1.046-2.432 2.433-2.432 1.386 0 2.432 1.046 2.432 2.432v12.973a2.435 2.435 0 01-2.432 2.433H4.054a2.435 2.435 0 01-2.432-2.433V18.65c0-1.386 1.046-2.432 2.432-2.432 1.387 0 2.433 1.046 2.433 2.432v1.216a.811.811 0 001.621 0V18.65c0-2.273-1.78-4.054-4.054-4.054-2.273 0-4.054 1.78-4.054 4.054v12.973a4.059 4.059 0 004.054 4.055h40.542a4.059 4.059 0 004.054-4.055V18.65c0-2.274-1.78-4.054-4.054-4.054z" fill="#7776BC"/><path d="M6.486 25.136v3.243c0 .448.364.81.811.81h34.055c.448 0 .81-.362.81-.81v-3.243a4.059 4.059 0 00-4.053-4.054H10.54a4.059 4.059 0 00-4.054 4.054zm34.055 0v2.432H8.108v-2.432a2.435 2.435 0 012.432-2.433H38.11a2.436 2.436 0 012.432 2.433zM20.271 8.108a.81.81 0 10-1.621 0 .81.81 0 001.621 0z" fill="#7776BC"/><path d="M7.297 14.22c.448 0 .81-.364.81-.811v-5.3c0-1.794.944-3.189 2.796-4.14.047-.023 4.793-2.347 13.421-2.347 10.024 0 13.273 2.252 13.298 2.27a.76.76 0 00.132.08c2.304 1.12 2.787 2.868 2.787 4.137v5.3a.811.811 0 001.622 0v-5.3c0-2.429-1.293-4.403-3.643-5.567C37.955 2.163 34.29 0 24.325 0 15.318 0 10.384 2.416 10.17 2.522 7.125 4.087 6.486 6.424 6.486 8.108v5.3c0 .448.364.812.811.812z" fill="#7776BC"/><path d="M15.406 14.595a.81.81 0 10-1.621 0 .81.81 0 001.62 0zM10.541 37.298H5.676a.811.811 0 000 1.622h4.865a.811.811 0 000-1.622zM42.974 37.298h-4.865a.811.811 0 000 1.622h4.865a.811.811 0 000-1.622zM25.135 14.595a.81.81 0 10-1.62 0 .81.81 0 001.62 0zM30 8.108a.81.81 0 10-1.62 0 .81.81 0 001.62 0zM34.866 14.595a.81.81 0 10-1.621 0 .81.81 0 001.62 0z" fill="#7776BC"/></svg><svg fill="none" viewBox="0 0 45 45" id="whyus2" xmlns="http://www.w3.org/2000/svg"><path d="M38.03 17.281a25.418 25.418 0 00-15.53-5.328 25.418 25.418 0 00-15.53 5.328L.975 21.945a.703.703 0 000 1.11l5.995 4.664a25.418 25.418 0 0015.53 5.328 25.418 25.418 0 0015.53-5.328l5.995-4.664a.703.703 0 000-1.11l-5.995-4.664zM2.552 22.5l5.282-4.11a23.889 23.889 0 016.421-3.55 11.22 11.22 0 00-3.005 7.66c0 2.898 1.1 5.614 3.005 7.66a23.9 23.9 0 01-6.421-3.552L2.552 22.5zm15.298 8.675a9.82 9.82 0 01-5.194-8.675 9.818 9.818 0 015.195-8.675 23.727 23.727 0 014.649-.466c1.565 0 3.123.16 4.65.466a9.818 9.818 0 015.194 8.675 9.816 9.816 0 01-5.197 8.676 23.759 23.759 0 01-4.647.465c-1.565 0-3.123-.16-4.65-.466zm19.316-4.566a23.896 23.896 0 01-6.42 3.551 11.218 11.218 0 003.004-7.66c0-2.898-1.1-5.614-3.005-7.66a23.9 23.9 0 016.42 3.55l5.283 4.11-5.282 4.11z" fill="#7776BC"/><path d="M.963 18.439l.887 1.092 3.61-2.934a27.096 27.096 0 0117.04-6.05 27.1 27.1 0 0117.04 6.05l3.61 2.933.888-1.092-3.61-2.933A28.516 28.516 0 0022.5 9.14c-6.51 0-12.875 2.26-17.927 6.364L.963 18.44zM39.54 28.403a27.1 27.1 0 01-17.04 6.05v1.406c6.51 0 12.876-2.26 17.927-6.364l-.888-1.092z" fill="#7776BC"/><path d="M28.828 22.5a6.335 6.335 0 00-6.328-6.328 6.335 6.335 0 00-6.328 6.328 6.335 6.335 0 006.328 6.328 6.335 6.335 0 006.328-6.328zM22.5 27.422a4.928 4.928 0 01-4.922-4.922 4.928 4.928 0 014.922-4.922 4.928 4.928 0 014.922 4.922 4.928 4.928 0 01-4.922 4.922z" fill="#7776BC"/><path d="M22.5 19.688a2.815 2.815 0 00-2.813 2.812 2.815 2.815 0 002.813 2.813 2.815 2.815 0 002.813-2.813 2.815 2.815 0 00-2.813-2.813zm0 4.218c-.776 0-1.406-.63-1.406-1.406 0-.776.63-1.406 1.406-1.406.776 0 1.406.63 1.406 1.406 0 .776-.63 1.406-1.406 1.406zM2.11 2.11h8.437V.702h-9.14a.702.702 0 00-.704.703v9.14H2.11V2.11zM43.594.703h-9.14V2.11h8.437v8.438h1.406v-9.14a.702.702 0 00-.703-.704zM11.953.703h1.406V2.11h-1.406V.703zM31.64.703h1.407V2.11H31.64V.703zM2.11 34.453H.702v9.14c0 .39.314.704.703.704h9.14V42.89H2.11v-8.438zM42.89 42.89h-8.437v1.407h9.14a.702.702 0 00.704-.703v-9.14H42.89v8.437zM11.953 42.89h1.406v1.407h-1.406V42.89zM31.64 42.89h1.407v1.407H31.64V42.89z" fill="#7776BC"/></svg><svg fill="none" viewBox="0 0 45 45" id="whyus3" xmlns="http://www.w3.org/2000/svg"><path d="M43.462 19.976H41.84v-5.063a4.62 4.62 0 00-4.615-4.615h-5.581L19.418 4.357a.66.66 0 10-.577 1.186l9.787 4.755h-1.08l-15.69-4.621 1.098-2.261a.655.655 0 01.881-.305l1.983.963a.66.66 0 10.576-1.185l-1.983-.964a1.964 1.964 0 00-1.51-.09c-.5.173-.902.53-1.133 1.005l-1.195 2.459-3.51-1.034a1.965 1.965 0 00-1.505.16 1.965 1.965 0 00-.951 1.178l-1.453 4.933A4.622 4.622 0 000 14.913v4.9a.66.66 0 101.319 0v-4.9a3.3 3.3 0 013.296-3.296h32.611a3.3 3.3 0 013.297 3.296v.517h-.658a.66.66 0 100 1.319h.658v3.227H30.012a6.14 6.14 0 00-6.134 6.134 6.14 6.14 0 006.134 6.133h5.456a.66.66 0 100-1.319h-5.456a4.82 4.82 0 01-4.815-4.814 4.82 4.82 0 014.815-4.815h13.45a.22.22 0 01.22.22v9.19a.22.22 0 01-.22.22h-4.494a.66.66 0 100 1.318h1.555v4.632h-.658a.66.66 0 000 1.319h.658v.466a3.3 3.3 0 01-3.297 3.296H4.615a3.3 3.3 0 01-3.297-3.296V23.24a.66.66 0 10-1.318 0v15.42a4.62 4.62 0 004.615 4.615h32.611a4.62 4.62 0 004.615-4.615v-6.417h1.62A1.54 1.54 0 0045 30.704v-9.19a1.54 1.54 0 00-1.538-1.538zM4.6 10.3l1.274-4.323a.66.66 0 01.818-.446l16.189 4.768H4.6z" fill="#7776BC"/><path d="M27.067 26.11a3.152 3.152 0 003.148 3.148 3.152 3.152 0 003.149-3.148 3.152 3.152 0 00-3.149-3.148 3.152 3.152 0 00-3.148 3.148zm4.978 0c0 1.008-.82 1.83-1.83 1.83-1.008 0-1.829-.822-1.829-1.83 0-1.01.82-1.83 1.83-1.83 1.008 0 1.83.82 1.83 1.83zM11.886 15.43H9.343a.66.66 0 100 1.319h2.543a.66.66 0 100-1.319zM16.973 15.43H14.43a.66.66 0 100 1.319h2.543a.66.66 0 100-1.319zM22.06 15.43h-2.543a.66.66 0 100 1.319h2.543a.66.66 0 100-1.319zM32.235 16.749a.66.66 0 100-1.319h-2.543a.66.66 0 100 1.319h2.543zM27.148 16.749a.66.66 0 100-1.319h-2.543a.66.66 0 100 1.319h2.543zM37.322 16.749a.66.66 0 100-1.319h-2.544a.66.66 0 100 1.319h2.544zM5.483 18.065a.66.66 0 00.659-.66v-.524c0-.073.059-.132.132-.132h.525a.66.66 0 100-1.319h-.525c-.8 0-1.45.651-1.45 1.45v.526c0 .364.294.66.659.66zM4.823 28.156a.66.66 0 101.319 0v-2.688a.66.66 0 10-1.319 0v2.688zM4.823 33.53a.66.66 0 101.319 0v-2.687a.66.66 0 10-1.319 0v2.688zM4.823 22.78a.66.66 0 101.319 0v-2.687a.66.66 0 10-1.319 0v2.688zM4.823 36.743c0 .8.65 1.45 1.45 1.45H6.8a.66.66 0 100-1.318h-.525a.132.132 0 01-.132-.132v-.525a.66.66 0 10-1.319 0v.525zM9.343 36.875a.66.66 0 000 1.319h2.543a.66.66 0 100-1.319H9.343zM32.235 38.194a.66.66 0 100-1.319h-2.543a.66.66 0 000 1.319h2.543zM19.517 36.875a.66.66 0 000 1.319h2.543a.66.66 0 100-1.319h-2.543zM27.148 38.194a.66.66 0 100-1.319h-2.543a.66.66 0 100 1.319h2.543zM37.322 38.194a.66.66 0 000-1.319h-2.544a.66.66 0 000 1.319h2.544zM14.43 36.875a.66.66 0 100 1.319h2.543a.66.66 0 100-1.319H14.43z" fill="#7776BC"/></svg><svg fill="none" viewBox="0 0 45 45" id="whyus4" xmlns="http://www.w3.org/2000/svg"><path d="M43.55 34.313l-2.98-2.989a.702.702 0 00-.996.004l-.497.497-.36-.36-.945-3.784a.71.71 0 00-.184-.327l-7.353-7.36V11.25a.702.702 0 00-.1-.362l-2.01-3.348V7.03h.703a.703.703 0 00.704-.703V2.11a.703.703 0 00-.704-.703h-11.25a.703.703 0 00-.703.703v4.22a.703.703 0 00.703.702v.412l-2.606 2.607a.703.703 0 00-.206.497v8.437c.001.287.062.57.177.833l-7.53 7.535a.709.709 0 00-.185.326l-.944 3.786-.362.362-.496-.497a.703.703 0 00-.995 0l-2.983 2.983a.703.703 0 000 .995l7.955 7.954a.703.703 0 00.994 0l2.983-2.983a.703.703 0 000-.992l.29-.29h3.69a.703.703 0 00.498-.207l4.642-4.648 4.64 4.648c.133.132.312.206.498.206h3.689l.291.292a.703.703 0 000 .99L34.6 43.26a.703.703 0 00.994 0l7.952-7.952a.703.703 0 00.005-.995zm-25.268-31.5h9.843v2.812h-9.843V2.812zm.497 5.418a.703.703 0 00.206-.497v-.703h7.734v.703c0 .128.035.253.1.362l2.01 3.349v7.47a2.198 2.198 0 00-1.407.008v-1.345h-1.406v2.18l-.36-.36a2.1 2.1 0 00-1.046-.573v-1.247h-1.407v1.432a1.998 1.998 0 00-.936.976l-.092-.093a2.063 2.063 0 00-.378-.294v-2.02h-1.406v1.723a2.102 2.102 0 00-1.2.591 2.07 2.07 0 00-.313.412 2.067 2.067 0 00-.14-.352c.16-.297.245-.63.247-.969v-4.218h-1.407v4.148a2.115 2.115 0 00-1.406 0v-8.076l2.607-2.607zM9.9 41.77l-6.96-6.961 1.989-1.988 6.96 6.96L9.9 41.77zm7.169-4.18H13.38a.703.703 0 00-.497.205l-.496.492-5.471-5.467.5-.5a.707.707 0 00.184-.326l.944-3.784 7.805-7.815a.71.71 0 01.99-.017l.035.04a.697.697 0 01-.023.966l-3.48 3.48.994.995 3.48-3.48c.121-.125.227-.264.314-.415.094.345.275.66.526.914l.088.088c-.217.102-.416.24-.587.409a2.098 2.098 0 00-.595 1.25l-.305.304-1.926 1.926.994.994 1.675-1.675c.05.064.101.126.157.185l.826.823-1.663 1.663.995.994 1.664-1.664.093.092a.633.633 0 00.054.06l.844.844-3.65 3.646.995.994 1.828-1.828c.1.315.272.601.504.836l.326.326-4.434 4.444zm10.863 0l-5.757-5.767a.702.702 0 010-.995.627.627 0 01.325-.179.688.688 0 00.17-.02.692.692 0 01.485.186l2.994 2.994.994-.994-7.467-7.46a.676.676 0 01-.196-.463.701.701 0 01.672-.734.754.754 0 00.08.006.72.72 0 01.447.202l5.47 5.47.994-.994-6.96-6.96a.705.705 0 010-.996.696.696 0 01.711-.167c.107.03.204.088.282.167l6.96 6.96.995-.994-5.472-5.477a.675.675 0 01-.196-.464.703.703 0 01.202-.52.757.757 0 01.495-.21.706.706 0 01.501.212l5.47 5.47.994-.994-3.48-3.48a.704.704 0 010-.996.719.719 0 01.996 0l7.814 7.817.945 3.782a.708.708 0 00.184.327l.498.498-5.47 5.472-.493-.492a.703.703 0 00-.497-.206l-3.69-.002zm7.172 4.18l-1.99-1.99 6.96-6.962 1.986 1.992-6.956 6.96z" fill="#7776BC"/><path d="M13.816 12.348l-.914-1.07A14.788 14.788 0 007.9 24.715l1.39-.21a13.35 13.35 0 014.527-12.156zM23.238 37.248l-.07-1.406c-.443.022-.894.022-1.336 0l-.07 1.406a16.017 16.017 0 001.476 0zM37.195 23.977c.049-.486.07-.985.07-1.477a14.755 14.755 0 00-5.167-11.221l-.914 1.069a13.349 13.349 0 014.61 11.488l1.401.14z" fill="#7776BC"/><path d="M6.68 25.87a16.2 16.2 0 019.082-18.076l-.586-1.277a17.608 17.608 0 00-9.872 19.645l1.376-.293zM19.805 38.448l-.234 1.387c1.94.324 3.92.324 5.859 0l-.234-1.387a16.435 16.435 0 01-5.391 0zM38.672 22.5c0 1.132-.117 2.262-.352 3.37l1.376.292A17.609 17.609 0 0031.29 7.274l-.703 1.218A16.232 16.232 0 0138.672 22.5z" fill="#7776BC"/></svg><svg fill="none" viewBox="0 0 45 45" id="whyus5" xmlns="http://www.w3.org/2000/svg"><path d="M37.886 20.548c0-8.5-6.89-15.39-15.389-15.39-8.5 0-15.389 6.89-15.389 15.39 0 8.498 6.89 15.388 15.39 15.388 8.494-.01 15.378-6.893 15.388-15.388zM22.497 34.47c-7.69 0-13.923-6.234-13.923-13.923 0-7.69 6.233-13.924 13.923-13.924S36.42 12.858 36.42 20.548c-.008 7.685-6.237 13.914-13.923 13.923z" fill="#7776BC"/><path d="M44.78 36.004l-4.804-4.799c.12-.114.225-.243.312-.383.325-.76.377-1.607.147-2.4a3.279 3.279 0 01-.062-1.369c.232-.386.543-.72.912-.98a3.59 3.59 0 001.448-1.959 3.54 3.54 0 00-.681-2.285 3.303 3.303 0 01-.531-1.281c.084-.46.266-.897.532-1.282.485-.66.726-1.468.682-2.286a3.592 3.592 0 00-1.449-1.957 3.257 3.257 0 01-.908-.981 3.274 3.274 0 01.062-1.368 3.567 3.567 0 00-.146-2.4 3.585 3.585 0 00-2.02-1.33 3.24 3.24 0 01-1.204-.619 3.265 3.265 0 01-.404-1.297 3.58 3.58 0 00-.96-2.214 3.57 3.57 0 00-2.342-.563 3.275 3.275 0 01-1.353-.176 3.257 3.257 0 01-.813-1.074 3.587 3.587 0 00-1.667-1.763 3.55 3.55 0 00-2.38.272c-.422.195-.88.298-1.345.302a3.209 3.209 0 01-1.117-.723A3.607 3.607 0 0022.497 0a3.61 3.61 0 00-2.186 1.089 3.21 3.21 0 01-1.117.723 3.237 3.237 0 01-1.344-.302 3.551 3.551 0 00-2.381-.272A3.59 3.59 0 0013.802 3c-.193.41-.47.777-.813 1.074a3.274 3.274 0 01-1.353.176 3.572 3.572 0 00-2.341.563 3.576 3.576 0 00-.961 2.214 3.255 3.255 0 01-.403 1.296c-.354.289-.764.5-1.205.62a3.58 3.58 0 00-2.019 1.33 3.562 3.562 0 00-.147 2.399c.116.447.135.913.057 1.369-.231.387-.54.72-.909.981A3.596 3.596 0 002.26 16.98a3.552 3.552 0 00.68 2.286c.268.384.45.821.534 1.282a3.3 3.3 0 01-.533 1.281 3.55 3.55 0 00-.681 2.285c.24.802.753 1.495 1.448 1.958.369.26.678.595.91.981a3.27 3.27 0 01-.063 1.369 3.57 3.57 0 00.146 2.4c.088.14.193.27.314.384l-4.8 4.798a.733.733 0 00.326 1.226l5.297 1.443 1.443 5.297a.732.732 0 001.225.322l5.643-5.638c.298.534.763.956 1.324 1.2a3.552 3.552 0 002.38-.272c.422-.196.88-.299 1.345-.301.419.16.799.406 1.117.722.578.607 1.35.993 2.182 1.093a3.606 3.606 0 002.187-1.09 3.214 3.214 0 011.117-.722 3.22 3.22 0 011.344.301c.739.364 1.58.46 2.381.273a2.8 2.8 0 001.326-1.201l5.642 5.638a.733.733 0 001.225-.322l1.443-5.297 5.297-1.443a.734.734 0 00.326-1.227l-.005-.002zM8.363 42.366l-1.221-4.483a.733.733 0 00-.513-.513l-4.483-1.222 4.163-4.158c.14.055.28.111.417.162.44.118.85.33 1.204.618.224.4.362.842.404 1.298a3.58 3.58 0 00.96 2.213 3.57 3.57 0 002.346.563c.458-.037.919.023 1.352.176.142.097.264.22.359.362l-4.988 4.984zm21.566-5.012c-.293.498-.594 1.012-.905 1.126-.48.033-.96-.063-1.393-.277a4.185 4.185 0 00-2.086-.366 4.087 4.087 0 00-1.797 1.036c-.449.371-.913.754-1.254.754-.34 0-.805-.383-1.253-.754a4.085 4.085 0 00-1.793-1.031 2.229 2.229 0 00-.392-.034 5.207 5.207 0 00-1.695.397 2.74 2.74 0 01-1.389.277c-.312-.114-.614-.629-.906-1.126a4.103 4.103 0 00-1.342-1.603 4.143 4.143 0 00-2.074-.373 2.74 2.74 0 01-1.412-.22 2.747 2.747 0 01-.462-1.357 4.14 4.14 0 00-.724-1.974 4.11 4.11 0 00-1.817-1.05c-.512-.191-1.099-.408-1.26-.691-.116-.47-.106-.96.029-1.425.18-.692.177-1.42-.008-2.11a4.107 4.107 0 00-1.337-1.595c-.44-.376-.898-.764-.952-1.099.054-.474.23-.925.513-1.31a4.186 4.186 0 00.72-2.001 4.186 4.186 0 00-.723-2.004 2.75 2.75 0 01-.513-1.31c.057-.331.513-.72.952-1.1a4.101 4.101 0 001.337-1.593 4.154 4.154 0 00.008-2.111 2.747 2.747 0 01-.029-1.425c.165-.284.748-.5 1.262-.692A4.122 4.122 0 009.05 9.264a4.134 4.134 0 00.722-1.974c.032-.486.192-.954.463-1.358.443-.196.93-.272 1.413-.22a4.145 4.145 0 002.073-.372 4.108 4.108 0 001.342-1.603c.293-.498.594-1.012.905-1.126.48-.033.961.063 1.393.277a4.16 4.16 0 002.087.366 4.08 4.08 0 001.796-1.035c.447-.37.913-.753 1.253-.753.34 0 .807.382 1.253.753.5.493 1.12.85 1.798 1.035a4.19 4.19 0 002.086-.367 2.72 2.72 0 011.393-.277c.312.115.614.629.905 1.127.302.64.765 1.193 1.343 1.602.648.3 1.362.43 2.074.373.482-.052.969.023 1.412.22.271.403.43.872.462 1.357.066.711.316 1.393.724 1.979.504.5 1.13.862 1.816 1.05.513.19 1.1.406 1.262.69.115.47.105.96-.03 1.424-.18.693-.177 1.42.007 2.112a4.106 4.106 0 001.338 1.594c.44.376.897.764.952 1.099a2.75 2.75 0 01-.512 1.31 4.188 4.188 0 00-.725 2c.065.72.314 1.41.724 2.004.281.385.458.837.513 1.31-.058.332-.514.72-.953 1.1a4.106 4.106 0 00-1.337 1.593 4.153 4.153 0 00-.008 2.112c.135.464.145.955.029 1.424-.165.284-.748.5-1.262.692a4.123 4.123 0 00-1.816 1.05 4.128 4.128 0 00-.722 1.973 2.76 2.76 0 01-.463 1.357c-.443.197-.93.273-1.413.22a4.145 4.145 0 00-2.073.373 4.11 4.11 0 00-1.345 1.6zm8.439.015a.733.733 0 00-.513.513l-1.222 4.483-4.983-4.984c.096-.142.217-.265.359-.361a3.269 3.269 0 011.352-.177c.823.09 1.653-.109 2.345-.563a3.573 3.573 0 00.96-2.213c.043-.456.18-.898.404-1.297a3.262 3.262 0 011.205-.619c.137-.05.278-.106.417-.162l4.163 4.158-4.487 1.222z" fill="#7776BC"/></svg><svg fill="none" viewBox="0 0 46 45" id="whyus6" xmlns="http://www.w3.org/2000/svg"><g clip-path="url(#uclip0)" fill="#7776BC"><path d="M38.728 10.49a.722.722 0 00-.425-.657l-15.3-6.95a.736.736 0 00-.608 0l-15.3 6.95a.722.722 0 00-.425.657v11.607c.013 7.352 4.336 14.025 11.074 17.098l4.654 2.114a.736.736 0 00.608 0l4.648-2.114c6.738-3.073 11.06-9.747 11.074-17.098V10.49zM37.27 22.097c-.01 6.787-4 12.949-10.22 15.786l-4.351 1.977-4.35-1.977c-6.22-2.837-10.21-9-10.222-15.786V10.954l14.572-6.62 14.571 6.62v11.144z"/><path d="M45.188 36.215l-5.974-5.925a20.724 20.724 0 001.7-8.193V9.099a.722.722 0 00-.425-.656L23.003.5a.735.735 0 00-.608 0L4.909 8.443a.723.723 0 00-.425.656v12.998a20.73 20.73 0 001.704 8.193L.214 36.215a.717.717 0 00-.19.696.726.726 0 00.513.512l5.267 1.422 1.435 5.22a.725.725 0 00.702.529.733.733 0 00.516-.212l5.123-5.078a21.109 21.109 0 003.254 1.86L22.4 43.69a.733.733 0 00.608 0l5.564-2.527a21.11 21.11 0 003.254-1.859l5.124 5.078a.732.732 0 001.218-.318l1.434-5.22 5.268-1.421a.726.726 0 00.512-.512.717.717 0 00-.19-.696h-.003zM8.311 42.484l-1.215-4.417a.726.726 0 00-.51-.505l-4.458-1.206 4.718-4.676a21.103 21.103 0 005.553 6.752l-4.088 4.052zm19.65-2.63l-5.262 2.389-5.261-2.39C10.442 36.661 5.955 29.73 5.942 22.097V9.562L22.699 1.95l16.757 7.612v12.535c-.012 7.633-4.5 14.564-11.496 17.756zm10.855-2.294a.728.728 0 00-.51.505l-1.214 4.418-4.089-4.052a21.088 21.088 0 005.553-6.753l4.718 4.677-4.458 1.205z"/><path d="M17.316 28a.39.39 0 01-.288-.108.454.454 0 01-.108-.306V17.434l-3.024 2.322a.408.408 0 01-.27.108c-.108 0-.21-.06-.306-.18l-.432-.558a.432.432 0 01-.09-.252c0-.132.06-.24.18-.324l3.906-3.024a.853.853 0 01.468-.126h.846a.36.36 0 01.288.126.36.36 0 01.126.288v11.772c0 .12-.042.222-.126.306a.39.39 0 01-.288.108h-.882zm8.634.18c-.912 0-1.728-.15-2.448-.45-.708-.312-1.26-.756-1.656-1.332-.396-.576-.594-1.248-.594-2.016 0-.708.174-1.326.522-1.854.36-.54.84-.954 1.44-1.242a3.017 3.017 0 01-1.116-1.08c-.264-.456-.396-.99-.396-1.602 0-1.044.39-1.866 1.17-2.466.78-.612 1.806-.918 3.078-.918 1.272 0 2.292.3 3.06.9.78.6 1.17 1.428 1.17 2.484 0 .6-.132 1.128-.396 1.584-.264.444-.63.81-1.098 1.098.6.288 1.074.702 1.422 1.242.36.528.54 1.152.54 1.872 0 .768-.198 1.44-.594 2.016-.396.564-.954 1.002-1.674 1.314-.708.3-1.518.45-2.43.45zm0-7.524c.732-.024 1.35-.216 1.854-.576s.756-.84.756-1.44c0-.612-.252-1.098-.756-1.458-.492-.372-1.11-.558-1.854-.558-.756 0-1.38.186-1.872.558-.492.36-.738.846-.738 1.458s.246 1.104.738 1.476c.492.36 1.116.54 1.872.54zm0 6.12c.852 0 1.56-.216 2.124-.648.576-.432.864-1.008.864-1.728s-.288-1.296-.864-1.728c-.564-.432-1.272-.648-2.124-.648-.864 0-1.584.216-2.16.648-.564.432-.846 1.008-.846 1.728s.282 1.296.846 1.728c.576.432 1.296.648 2.16.648z"/></g><defs><clipPath id="uclip0"><path fill="#fff" d="M0 0h45.405v45H0z"/></clipPath></defs></svg><svg fill="none" viewBox="0 0 50 33" id="yandex.money" xmlns="http://www.w3.org/2000/svg"><g clip-path="url(#vclip0)"><rect y=".51" width="50" height="32" rx="3" fill="#F7C700"/><path d="M6.927 16.73l-1.114 2.502H5l1.224-2.676a1.737 1.737 0 01-.694-.644c-.177-.283-.265-.668-.265-1.155 0-.341.05-.64.15-.9a1.686 1.686 0 011.019-1.027c.234-.086.481-.13.73-.128h1.05v6.53h-.702v-2.503h-.585zm.585-3.443h-.375c-.14 0-.277.026-.41.078a.941.941 0 00-.357.247 1.263 1.263 0 00-.251.449 2.146 2.146 0 00-.096.692c0 .262.029.482.087.66.058.176.137.32.237.43.1.11.22.188.356.234.14.046.287.069.434.068h.375v-2.858zm4.09 1.342v4.603H10.9v-2.064H9.84v2.064h-.712v-4.603h.712v1.954h1.06V14.63h.703zm3.663 5.507h-.64v-.904h-1.972v.904h-.64v-1.489h.284c.103-.243.185-.512.246-.808.061-.295.108-.6.142-.913.033-.314.055-.633.064-.959.01-.326.014-.64.014-.946v-.392H14.9v4.018h.365v1.489zm-1.069-4.923h-.794v.082c0 .243-.005.51-.014.797-.01.294-.03.587-.06.88-.03.294-.072.587-.127.878-.05.273-.127.54-.229.797h1.225v-3.434zm4.165 3.708c-.151.119-.32.211-.502.274-.189.067-.4.1-.63.1-.476 0-.85-.183-1.124-.552-.274-.368-.41-.909-.41-1.621 0-.371.025-.712.077-1.023.052-.31.134-.58.246-.808a1.41 1.41 0 01.434-.534c.177-.128.387-.192.63-.192.189 0 .363.038.521.114a.99.99 0 01.402.37c.11.17.194.391.256.662.06.271.09.601.09.991v.392h-1.917c0 .524.071.92.215 1.188.143.268.357.402.643.402.201 0 .38-.035.535-.105.155-.07.278-.139.37-.206l.164.548zm-1.279-3.771c-.219 0-.374.123-.465.37-.092.246-.15.576-.174.99h1.178c0-.195-.009-.376-.027-.543a2.198 2.198 0 00-.087-.434.672.672 0 00-.164-.283.36.36 0 00-.26-.1zm2.712 1.79v2.292h-.711v-4.603h.712v2.128l1.105-2.128h.721l-1.141 2.164 1.306 2.439h-.776l-1.215-2.293zm3.663 2.355c-.494 0-.88-.196-1.16-.589-.28-.392-.42-.984-.42-1.776 0-.359.035-.684.105-.977.07-.292.173-.54.31-.744.13-.197.305-.36.512-.475a1.44 1.44 0 01.708-.169c.206 0 .374.023.502.069a1.7 1.7 0 01.347.168l-.1.676a1.559 1.559 0 00-.343-.23.914.914 0 00-.416-.098c-.255 0-.465.143-.63.431-.164.288-.246.725-.246 1.313 0 .581.069 1.03.205 1.344.137.316.352.473.644.473.176 0 .33-.03.457-.09.128-.059.234-.127.32-.202l.164.53c-.124.104-.262.189-.411.25a1.413 1.413 0 01-.548.096zM29.256 19.232H26.46l-.064 1.087h-.356v-1.453h.192c.158-.134.28-.371.365-.713.085-.341.152-.747.201-1.216.049-.488.082-1.087.1-1.798.019-.71.034-1.523.046-2.437h2.283v6.164h.448v1.453h-.357l-.063-1.087zm-.484-6.165h-1.416a95.78 95.78 0 01-.055 2.204 45.731 45.731 0 01-.09 1.662 8.749 8.749 0 01-.179 1.224c-.076.32-.175.557-.297.71h2.037v-5.8zm1.78 3.936c.012.636.1 1.121.265 1.455.165.333.414.5.75.5.151 0 .285-.025.4-.075a1.12 1.12 0 00.293-.177c.092-.067.17-.151.238-.25l.137.346a1.098 1.098 0 01-.265.265 1.32 1.32 0 01-.813.256c-.487 0-.846-.21-1.078-.63-.23-.42-.346-1.008-.346-1.763 0-.377.033-.714.1-1.009.067-.295.16-.546.278-.753a1.34 1.34 0 01.425-.47.973.973 0 01.539-.16c.2 0 .38.051.538.155.159.104.29.258.393.466.104.207.177.464.22.771.042.308.045.666.009 1.073h-2.082zm.923-2.1c-.244 0-.452.15-.626.45-.173.3-.27.737-.288 1.313h1.672c.037-.613-.023-1.059-.178-1.34-.155-.282-.349-.423-.58-.423zm3.972 2.128h-1.57v2.2h-.43V14.63h.43v2.037h1.57v-2.037h.43v4.603h-.43V17.03zm1.443-2.402h.43v1.708h.337c.438 0 .789.119 1.05.356.262.237.393.597.393 1.077 0 .488-.137.853-.411 1.096-.274.244-.627.366-1.06.366h-.74v-4.603zm.43 2.045v2.22h.273c.323 0 .584-.087.786-.26.2-.174.301-.459.301-.855 0-.39-.091-.67-.274-.844-.182-.174-.438-.26-.767-.26h-.32zm2.94-1.68v4.238h-.42v-4.603h1.945v.365H40.26zm4.329 1.032a5.37 5.37 0 01.036-.63h-.027c-.03.104-.067.202-.11.297-.042.094-.088.193-.137.297l-1.497 3.242h-.366v-4.603h.402v3.196c0 .217-.011.434-.036.649h.027c.03-.104.067-.206.11-.306.042-.1.088-.203.136-.306l1.498-3.233H45v4.603h-.411v-3.206z" fill="#000"/></g><defs><clipPath id="vclip0"><path fill="#fff" transform="translate(0 .51)" d="M0 0h50v32H0z"/></clipPath></defs></svg><svg fill="none" viewBox="0 0 28 28" id="zoom" xmlns="http://www.w3.org/2000/svg"><path d="M13 4.5a8.5 8.5 0 016.676 13.762l4.531 4.53a1 1 0 01-1.414 1.415l-4.53-4.531A8.5 8.5 0 1113 4.5zm0 2a6.5 6.5 0 100 13 6.5 6.5 0 000-13z" fill="currentColor"/></svg></svg>