<svg width="50" height="33" viewBox="0 0 50 33" fill="none" xmlns="http://www.w3.org/2000/svg">
<g clip-path="url(#clip0)">
<rect y="0.510254" width="50" height="32" rx="3" fill="#036CB5"/>
<path d="M25.0581 5.51025C26.1308 5.51025 27.1515 5.75432 28.0673 6.19092C28.211 6.25527 28.3555 6.33229 28.4987 6.40938L27.8707 6.9618L26.9293 5.99846L25.307 7.4112L24.3517 6.39638L21.3687 9.02953L23.2786 11.0975L22.533 11.7395L24.4172 13.8074L23.6716 14.4492L26.3669 17.3906L27.9621 15.952L29.3496 17.4937C29.0746 17.6992 28.7737 17.9051 28.447 18.0846C27.4525 18.6369 26.301 18.9574 25.0713 18.9574C21.2899 18.9574 18.2159 15.9396 18.2159 12.228C18.2025 8.54152 21.2771 5.51025 25.0581 5.51025ZM23.8019 11.8167L25.4374 10.3781L26.903 11.9836L25.2672 13.422L23.8019 11.8167ZM24.9667 14.5911L26.5888 13.1398L28.0673 14.7451L26.4318 16.1838L24.9667 14.5911ZM22.6382 9.08108L24.2732 7.64246L25.7385 9.24792L24.103 10.6865L22.6382 9.08108ZM25.6337 8.31019L26.8505 7.23135L27.9497 8.42589L26.7329 9.51747L25.6337 8.31019ZM27.8057 13.2551L29.0221 12.1762L30.1213 13.3832L28.9044 14.4628L27.8057 13.2551ZM28.8784 15.6829L30.0953 14.6038L31.1936 15.7983L29.9772 16.8897L28.8784 15.6829ZM29.3756 10.134L30.1867 9.4147L30.9191 10.2113L30.1082 10.9304L29.3756 10.134ZM28.3289 7.75789L29.1401 7.02595L29.873 7.83498L29.0613 8.55426L28.3289 7.75789ZM30.4091 12.5104L31.2201 11.7911L31.9658 12.5875L31.1419 13.3066L30.4091 12.5104ZM26.759 10.725L27.9759 9.6461L29.0746 10.8404L27.8582 11.9195L26.759 10.725Z" fill="white"/>
<path d="M14.3791 23.7422H14.3411L13.6269 26.4549H13.0432L12.167 22.6011H12.7726L13.3784 25.4767H13.4163L14.1192 22.6011H14.6007L15.3525 25.4767H15.3904L15.9421 22.6011H16.575L15.6985 26.4549H15.1144L14.3791 23.7422Z" fill="white"/>
<path d="M17.3433 24.8142H18.5816C18.5547 24.2436 18.2787 24.0155 17.9868 24.0155C17.6569 24.0155 17.4025 24.271 17.3433 24.8142ZM19.0142 25.8364V26.2496C18.7709 26.3909 18.4466 26.4996 18.0569 26.4996C17.1485 26.4996 16.7754 25.9343 16.7754 25.0756C16.7754 24.2491 17.1917 23.6511 18.003 23.6511C18.6789 23.6511 19.0956 24.0917 19.0956 24.9775V25.1786H17.3325C17.3325 25.8307 17.5973 26.1189 18.1546 26.1189C18.4466 26.1189 18.717 26.0154 19.0142 25.8364Z" fill="white"/>
<path d="M20.3539 26.0638C20.527 26.1399 20.7165 26.1512 20.8519 26.1512C21.252 26.1512 21.5546 25.9008 21.5546 25.0204C21.5546 24.3301 21.3058 24.1072 20.9436 24.1072C20.7271 24.1072 20.5703 24.1672 20.3539 24.2865V26.0638H20.3539ZM20.3596 23.8844C20.5215 23.7977 20.7972 23.6832 21.0894 23.6832C21.7601 23.6832 22.1225 24.1506 22.1225 25.0204C22.1225 26.0369 21.6357 26.5316 20.8519 26.5316C20.565 26.5316 20.1216 26.4391 19.7969 26.2648V22.4711L20.3596 22.3354V23.8844H20.3596Z" fill="white"/>
<path d="M24.5563 25.6372H24.5834L25.7406 22.5986H26.4116V26.4528H25.8275V23.6587H25.7787L24.6753 26.4528H24.3294L23.2257 23.724H23.1772V26.4528H22.6904V22.5986H23.345L24.5563 25.6372Z" fill="white"/>
<path d="M28.7984 25.0754C28.7984 24.3417 28.5012 24.032 28.1334 24.032C27.7766 24.032 27.4681 24.3417 27.4681 25.0754C27.4681 25.8202 27.7496 26.1189 28.1334 26.1189C28.5172 26.1189 28.7984 25.8202 28.7984 25.0754ZM26.9004 25.0754C26.9004 24.1239 27.4197 23.6511 28.1334 23.6511C28.8476 23.6511 29.3666 24.1239 29.3666 25.0754C29.3666 26.0048 28.8745 26.4996 28.1334 26.4996C27.3925 26.4996 26.9004 26.0048 26.9004 25.0754Z" fill="white"/>
<path d="M29.7939 24.0537C30.0373 23.9067 30.5513 23.6511 31.1731 23.6511C31.8221 23.6511 32.065 23.9067 32.065 24.4664V26.4344H31.5029V24.5916C31.5029 24.1622 31.2924 24.0862 31.0162 24.0862C30.8001 24.0862 30.524 24.1841 30.3564 24.282V26.4344H29.7939V24.0537H29.7939Z" fill="white"/>
<path d="M33.2552 24.8142H34.4936C34.467 24.2436 34.1909 24.0155 33.8988 24.0155C33.5688 24.0155 33.315 24.271 33.2552 24.8142ZM34.9262 25.8364V26.2496C34.683 26.3909 34.3585 26.4996 33.969 26.4996C33.0609 26.4996 32.6875 25.9343 32.6875 25.0756C32.6875 24.2491 33.1037 23.6511 33.915 23.6511C34.5913 23.6511 35.008 24.0917 35.008 24.9775V25.1786H33.2446C33.2446 25.8307 33.5096 26.1189 34.0667 26.1189C34.3585 26.1189 34.6293 26.0154 34.9262 25.8364Z" fill="white"/>
<path d="M37.2552 23.6511H37.8341L36.8551 26.3686C36.5843 27.1188 36.2548 27.5102 35.6329 27.5102V27.0647C36.0009 27.0647 36.2277 26.7711 36.3578 26.3686L35.3193 23.6511H35.9144L36.6066 25.6514H36.639L37.2552 23.6511Z" fill="white"/>
</g>
<defs>
<clipPath id="clip0">
<rect width="50" height="32" fill="white" transform="translate(0 0.510254)"/>
</clipPath>
</defs>
</svg>
