<svg width="50" height="33" viewBox="0 0 50 33" fill="none" xmlns="http://www.w3.org/2000/svg">
<g clip-path="url(#clip0)">
<rect y="0.510254" width="50" height="32" rx="3" fill="#F7C700"/>
<path d="M6.927 16.7292L5.8128 19.2318H5L6.22383 16.5559C5.93766 16.4099 5.70617 16.1952 5.5299 15.9121C5.35308 15.6289 5.26495 15.244 5.26495 14.7568C5.26495 14.4159 5.315 14.1162 5.41565 13.8572C5.51603 13.5988 5.65312 13.3839 5.8264 13.2133C5.99968 13.0428 6.20234 12.9152 6.43437 12.8298C6.66821 12.7441 6.91544 12.7008 7.16448 12.7019H8.21448V19.2318H7.51158V16.7292H6.92673H6.927ZM7.51158 13.2868H7.137C6.99691 13.2868 6.85981 13.3126 6.72625 13.3646C6.59269 13.4165 6.47327 13.4989 6.3699 13.6121C6.26653 13.725 6.18275 13.8746 6.11883 14.0609C6.05463 14.2473 6.02307 14.4777 6.02307 14.7527C6.02307 15.0152 6.05164 15.2353 6.10958 15.4124C6.16752 15.5894 6.24668 15.7333 6.34705 15.843C6.4477 15.9529 6.5663 16.0307 6.7034 16.0766C6.84328 16.1228 6.98971 16.1459 7.137 16.1452H7.51158V13.2865V13.2868ZM11.6028 14.6289V19.2315H10.8993V17.1677H9.84008V19.2318H9.12793V14.6292H9.84008V16.5834H10.8993V14.6289H11.6028ZM15.265 20.1357H14.6258V19.2318H12.6531V20.1357H12.0138V18.6472H12.2967C12.4004 18.4038 12.4825 18.1345 12.5434 17.8391C12.6041 17.5439 12.6514 17.2395 12.6849 16.9256C12.7183 16.6122 12.7396 16.2926 12.7491 15.967C12.7581 15.6411 12.7627 15.3261 12.7627 15.0215V14.6289H14.8997V18.6472H15.265V20.1357ZM14.1965 15.2132H13.4022V15.2954C13.4022 15.5383 13.3973 15.8041 13.3881 16.0924C13.3786 16.386 13.3589 16.6791 13.3288 16.9713C13.2985 17.2659 13.2559 17.5592 13.2009 17.8502C13.1506 18.1226 13.0741 18.3896 12.9724 18.6472H14.1965V15.2132ZM18.3609 18.9212C18.2098 19.0396 18.0401 19.1322 17.8587 19.1951C17.67 19.262 17.4597 19.2957 17.2285 19.2957C16.7535 19.2957 16.3792 19.1116 16.105 18.7433C15.8311 18.3749 15.6943 17.8344 15.6943 17.122C15.6943 16.751 15.7198 16.4099 15.7718 16.0992C15.8237 15.7886 15.9056 15.5193 16.0185 15.291C16.1309 15.0625 16.2756 14.8846 16.4524 14.7568C16.6287 14.6289 16.8387 14.565 17.0821 14.565C17.2709 14.565 17.4445 14.6031 17.603 14.6793C17.7611 14.7554 17.8949 14.8786 18.0048 15.0492C18.1142 15.2195 18.1993 15.4401 18.2605 15.711C18.3212 15.982 18.3516 16.3122 18.3516 16.702V17.0945H16.4339C16.4339 17.6184 16.5054 18.014 16.6488 18.2819C16.7916 18.5499 17.0062 18.6837 17.2924 18.6837C17.4931 18.6837 17.6713 18.6489 17.8266 18.5787C17.9817 18.5088 18.1052 18.4402 18.1966 18.3733L18.3609 18.9212ZM17.0824 15.1496C16.8631 15.1496 16.7081 15.2728 16.6167 15.5195C16.525 15.766 16.4671 16.0962 16.4429 16.5102H17.6213C17.6213 16.3155 17.612 16.1343 17.5938 15.967C17.5795 15.8198 17.5505 15.6745 17.507 15.5331C17.4673 15.4113 17.4126 15.3169 17.3427 15.25C17.3081 15.2168 17.2672 15.1908 17.2225 15.1736C17.1778 15.1563 17.1301 15.148 17.0821 15.1493L17.0824 15.1496ZM19.7945 16.9395V19.2318H19.0826V14.6292H19.795V16.7567L20.8999 14.6289H21.6213L20.4799 16.7934L21.7859 19.2318H21.0098L19.795 16.9395H19.7945ZM23.457 19.2955C22.9635 19.2955 22.577 19.0993 22.2971 18.7065C22.0169 18.3137 21.8768 17.7218 21.8768 16.9302C21.8768 16.5712 21.9121 16.2456 21.9821 15.9531C22.0517 15.661 22.1553 15.4129 22.2922 15.2089C22.4219 15.0116 22.5975 14.8487 22.8038 14.7339C23.0078 14.6213 23.2437 14.565 23.5116 14.565C23.7184 14.565 23.8862 14.5879 24.0138 14.6336C24.1419 14.6793 24.2572 14.7356 24.3612 14.8022L24.2605 15.4782C24.157 15.3866 24.0417 15.3092 23.9178 15.248C23.789 15.1829 23.6467 15.1491 23.5024 15.1496C23.2467 15.1496 23.0367 15.2935 22.8724 15.581C22.7078 15.8688 22.6257 16.3062 22.6257 16.8935C22.6257 17.4751 22.6945 17.9234 22.831 18.2384C22.9681 18.5539 23.1828 18.7112 23.4752 18.7112C23.6514 18.7112 23.8041 18.6812 23.9316 18.6214C24.0595 18.5621 24.1661 18.4944 24.2513 18.419L24.4156 18.9486C24.2924 19.053 24.1538 19.1377 24.0048 19.1997C23.8525 19.2636 23.6697 19.2955 23.457 19.2955Z" fill="black"/>
<path d="M29.2558 19.2318H26.461L26.3974 20.3185H26.041V18.8665H26.2328C26.3911 18.7324 26.5127 18.4946 26.5981 18.1529C26.6835 17.8116 26.7502 17.406 26.7991 16.9365C26.8478 16.4487 26.8813 15.8497 26.8995 15.1392C26.9177 14.429 26.933 13.6164 26.9449 12.7019H29.228V18.8665H29.6758V20.3185H29.3194L29.2558 19.2318ZM28.7716 13.0672H27.356C27.3462 13.8019 27.328 14.5364 27.3013 15.2706C27.2768 15.9028 27.2463 16.4569 27.2102 16.9332C27.1672 17.4283 27.1079 17.8358 27.032 18.1565C26.9558 18.4772 26.8568 18.7139 26.7352 18.8665H28.7716V13.0672ZM30.5525 17.0034C30.5645 17.6394 30.6529 18.1241 30.8172 18.4576C30.9818 18.7911 31.2312 18.9576 31.5661 18.9576C31.7184 18.9576 31.8522 18.9331 31.9678 18.8833C32.0834 18.8338 32.1811 18.7748 32.2603 18.7065C32.3516 18.6385 32.4305 18.5547 32.4977 18.4554L32.6346 18.8025C32.5614 18.9059 32.4732 18.9943 32.3699 19.0672C32.2785 19.1344 32.1659 19.1937 32.032 19.2454C31.8976 19.2971 31.7396 19.3229 31.5571 19.3229C31.0699 19.3229 30.7108 19.1129 30.4793 18.6929C30.2481 18.2726 30.1325 17.6853 30.1325 16.9302C30.1325 16.5529 30.166 16.2164 30.2329 15.921C30.2998 15.6259 30.3926 15.3748 30.5114 15.1675C30.63 14.9608 30.7715 14.8038 30.9358 14.6972C31.0959 14.5921 31.2834 14.5365 31.4749 14.5375C31.6757 14.5375 31.8552 14.5892 32.0135 14.6926C32.1718 14.7965 32.3027 14.9515 32.4063 15.1585C32.5097 15.3655 32.5829 15.6229 32.6256 15.9303C32.668 16.2376 32.6713 16.5956 32.6346 17.0034H30.5525ZM31.4749 14.9028C31.2312 14.9028 31.0228 15.0527 30.8493 15.3528C30.6757 15.6525 30.5797 16.0899 30.5615 16.6655H32.2328C32.2695 16.0535 32.2102 15.6071 32.0549 15.3253C31.8996 15.0437 31.7061 14.9028 31.4749 14.9028ZM35.4475 17.0309H33.8763V19.2315H33.4474V14.6292H33.8763V16.6658H35.4475V14.6289H35.8765V19.2315H35.4475V17.0309ZM36.8898 14.6289H37.3193V16.3367H37.6572C38.0954 16.3367 38.4455 16.4555 38.7072 16.693C38.9691 16.9302 39.1002 17.2896 39.1002 17.7705C39.1002 18.2577 38.9631 18.623 38.6889 18.8665C38.415 19.1099 38.0619 19.2318 37.6297 19.2318H36.8898V14.6292V14.6289ZM37.3193 16.6745V18.8939H37.5932C37.9159 18.8939 38.1775 18.8069 38.3786 18.6336C38.5799 18.4601 38.68 18.1755 38.68 17.7795C38.68 17.3899 38.5886 17.1084 38.406 16.9348C38.2235 16.7613 37.9678 16.6745 37.6389 16.6745H37.3193ZM40.2601 14.9942V19.2318H39.8401V14.6292H41.7851V14.9942H40.2601ZM44.5886 16.026C44.5886 15.9044 44.5915 15.7932 44.5978 15.6928C44.6038 15.5924 44.6128 15.4934 44.625 15.3963H44.5978C44.5671 15.4996 44.5306 15.5984 44.4882 15.6928C44.4457 15.7872 44.3998 15.8859 44.3511 15.9896L42.8536 19.2318H42.488V14.6292H42.8901V17.8254C42.8907 18.0421 42.8785 18.2587 42.8536 18.4739H42.8808C42.9113 18.3703 42.9477 18.2683 42.9904 18.1679C43.0329 18.0673 43.0786 17.9653 43.1275 17.8619L44.625 14.6289H44.9996V19.2315H44.5886V16.0266V16.026Z" fill="black"/>
</g>
<defs>
<clipPath id="clip0">
<rect width="50" height="32" fill="white" transform="translate(0 0.510254)"/>
</clipPath>
</defs>
</svg>
