<svg width="54" height="52" viewBox="0 0 54 52" fill="none" xmlns="http://www.w3.org/2000/svg">
<path d="M26.8522 47.5908H1.8562V48.7272H26.8522V47.5908Z" fill="white"/>
<path d="M26.8523 3.27271H1.80737V4.40907H26.8523V3.27271Z" fill="white"/>
<path d="M52.3846 1H1.24365V2.13636H52.3846V1Z" fill="white"/>
<path d="M2.38002 1.59204H1.24365V50.3193H2.38002V1.59204Z" fill="white"/>
<path d="M52.3851 1.59204H51.2488V50.3193H52.3851V1.59204Z" fill="white"/>
<path d="M52.3851 49.8635H1.24365V50.9999H52.3851V49.8635Z" fill="white"/>
<path d="M27.4205 1.68921H26.2842V50.3102H27.4205V1.68921Z" fill="white"/>
<path d="M47.9229 5.61768L44.5859 8.95461" stroke="white" stroke-width="2" stroke-miterlimit="10" stroke-linecap="round" stroke-linejoin="round"/>
<path d="M44.5403 6.71485L45.4437 5.81201" stroke="white" stroke-width="2" stroke-miterlimit="10" stroke-linecap="round" stroke-linejoin="round"/>
<path d="M5.04834 25.9557V23.5415" stroke="white" stroke-width="2" stroke-miterlimit="10" stroke-linecap="round" stroke-linejoin="round"/>
<path d="M46.8381 8.85678L47.741 7.95337" stroke="white" stroke-width="2" stroke-miterlimit="10" stroke-linecap="round" stroke-linejoin="round"/>
<path d="M1 1H53V51H1V1Z" stroke="white"/>
</svg>
