<svg width="38" height="50" viewBox="0 0 38 50" fill="none" xmlns="http://www.w3.org/2000/svg">
<path d="M4.71228 14.1365C5.23246 14.1365 5.65468 13.7143 5.65468 13.1941V10.3668C5.65468 5.69049 9.46027 1.8849 14.1366 1.8849H23.5609C28.2372 1.8849 32.0428 5.69049 32.0428 10.3668V13.1941C32.0428 13.7143 32.465 14.1365 32.9852 14.1365C33.5053 14.1365 33.9276 13.7143 33.9276 13.1941V10.3668C33.9276 4.65091 29.2767 0 23.5608 0H14.1366C8.42068 0 3.76978 4.65091 3.76978 10.3668V13.1941C3.76978 13.7143 4.19199 14.1365 4.71228 14.1365Z" fill="white"/>
<path d="M4.71228 50C5.23246 50 5.65468 49.5778 5.65468 49.0576V46.2303C5.65468 41.554 9.46027 37.7484 14.1366 37.7484H23.5609C28.2372 37.7484 32.0428 41.554 32.0428 46.2303V49.0576C32.0428 49.5778 32.465 50 32.9852 50C33.5053 50 33.9276 49.5778 33.9276 49.0576V46.2303C33.9276 40.5144 29.2767 35.8635 23.5608 35.8635H14.1366C8.42068 35.8635 3.76978 40.5144 3.76978 46.2303V49.0576C3.76978 49.5778 4.19199 50 4.71228 50Z" fill="white"/>
<path d="M34.87 15.0789C33.3112 15.0789 32.0427 16.3474 32.0427 17.9062V23.5608C32.0427 25.1195 30.7742 26.3881 29.2154 26.3881H8.4819C6.92313 26.3881 5.6546 25.1195 5.6546 23.5608V17.9062C5.6546 16.3474 4.38607 15.0789 2.8273 15.0789C1.26853 15.0789 0 16.3474 0 17.9062V25.4457C0 31.1615 4.65091 35.8125 10.3668 35.8125H27.3306C33.0465 35.8125 37.6974 31.1615 37.6974 25.4457V17.9062C37.6973 16.3474 36.4288 15.0789 34.87 15.0789ZM35.8125 25.4457C35.8125 30.122 32.0069 33.9276 27.3306 33.9276H10.3668C5.69049 33.9276 1.8849 30.122 1.8849 25.4457V17.9062C1.8849 17.3869 2.308 16.9638 2.8273 16.9638C3.34659 16.9638 3.7697 17.3869 3.7697 17.9062V23.5608C3.7697 26.159 5.88354 28.273 8.4819 28.273H29.2154C31.8136 28.273 33.9276 26.1591 33.9276 23.5608V17.9062C33.9276 17.3869 34.3507 16.9638 34.87 16.9638C35.3893 16.9638 35.8124 17.3869 35.8124 17.9062V25.4457H35.8125Z" fill="white"/>
<line x1="7.31201" y1="4.2229" x2="30.6407" y2="4.2229" stroke="white" stroke-width="2"/>
<line x1="7.31201" y1="40.0864" x2="30.6407" y2="40.0864" stroke="white" stroke-width="2"/>
<line x1="5.57105" y1="8.05298" x2="32.0334" y2="8.05298" stroke="white" stroke-width="2"/>
<line x1="5.57105" y1="43.9165" x2="32.0334" y2="43.9165" stroke="white" stroke-width="2"/>
<line x1="4.17822" y1="11.8831" x2="33.4261" y2="11.8831" stroke="white" stroke-width="2"/>
<line x1="4.17822" y1="48.791" x2="33.4261" y2="48.791" stroke="white" stroke-width="2"/>
<line x1="3.83008" y1="16.4094" x2="33.078" y2="16.4094" stroke="white" stroke-width="2"/>
<line x1="4.17822" y1="20.936" x2="32.7298" y2="20.936" stroke="white" stroke-width="2"/>
<line x1="4.17822" y1="24.4177" x2="32.3816" y2="24.4177" stroke="white" stroke-width="2"/>
</svg>
