<svg width="50" height="40" viewBox="0 0 50 40" fill="none" xmlns="http://www.w3.org/2000/svg">
<g clip-path="url(#clip0)">
<path d="M29.1826 30.1829H0.88623V31.4024H29.1826V30.1829Z" fill="white"/>
<path d="M29.1819 22.561H0.830078V23.7805H29.1819V22.561Z" fill="white"/>
<path d="M48.9222 15.1044H1.47461V16.3239H48.9222V15.1044Z" fill="white"/>
<path d="M49.5297 37.8049H0.46875V39.0244H49.5297V37.8049Z" fill="white"/>
<path d="M29.8914 15.1074H28.6719V38.3141H29.8914V15.1074Z" fill="white"/>
<path d="M49.5301 15.1074H48.3105V38.3141H49.5301V15.1074Z" fill="white"/>
<path d="M1.68826 15.0946H0.46875V38.305H1.68826V15.0946Z" fill="white"/>
<path d="M16.477 19.2074H13.8867" stroke="white" stroke-miterlimit="10" stroke-linecap="round" stroke-linejoin="round"/>
<path d="M17.8866 0.853638H12.4756" stroke="white" stroke-width="2" stroke-miterlimit="10" stroke-linecap="round" stroke-linejoin="round"/>
<path d="M17.8866 13.3414H12.4756" stroke="white" stroke-width="2" stroke-miterlimit="10" stroke-linecap="round" stroke-linejoin="round"/>
<path d="M15.1831 13.3413V9.80896" stroke="white" stroke-miterlimit="10" stroke-linecap="round" stroke-linejoin="round"/>
<path d="M12.4756 15.1073V13.3414" stroke="white" stroke-width="2" stroke-miterlimit="10" stroke-linecap="round" stroke-linejoin="round"/>
<path d="M17.8882 15.1073V13.3414" stroke="white" stroke-width="2" stroke-miterlimit="10" stroke-linecap="round" stroke-linejoin="round"/>
<path d="M12.4775 0.853638L10.1025 9.80974" stroke="white" stroke-width="2" stroke-miterlimit="10" stroke-linecap="round" stroke-linejoin="round"/>
<path d="M17.8882 0.853638L20.2626 9.80974" stroke="white" stroke-width="2" stroke-miterlimit="10" stroke-linecap="round" stroke-linejoin="round"/>
<path d="M20.2629 9.80957H10.1025" stroke="white" stroke-width="2" stroke-miterlimit="10" stroke-linecap="round" stroke-linejoin="round"/>
<path d="M16.477 26.9635H13.8867" stroke="white" stroke-miterlimit="10" stroke-linecap="round" stroke-linejoin="round"/>
<path d="M16.477 34.6427H13.8867" stroke="white" stroke-miterlimit="10" stroke-linecap="round" stroke-linejoin="round"/>
<path d="M34.6166 19.2074H32.0264" stroke="white" stroke-miterlimit="10" stroke-linecap="round" stroke-linejoin="round"/>
</g>
<defs>
<clipPath id="clip0">
<rect width="50" height="39.0244" fill="white"/>
</clipPath>
</defs>
</svg>
