<svg width="52" height="36" viewBox="0 0 52 36" fill="none" xmlns="http://www.w3.org/2000/svg">
<path d="M1 18.6733V31.4074" stroke="white" stroke-width="2" stroke-miterlimit="10"/>
<path d="M25.4223 32.4492H2.04297" stroke="white" stroke-width="2" stroke-miterlimit="10"/>
<path d="M25.4223 17.6311H2.04297" stroke="white" stroke-width="2" stroke-miterlimit="10"/>
<path d="M2.04293 32.4492C1.46718 32.4492 1 31.9832 1 31.4069" stroke="white" stroke-width="2" stroke-miterlimit="10"/>
<path d="M1 18.6735C1 18.0977 1.46776 17.6311 2.04293 17.6311" stroke="white" stroke-width="2" stroke-miterlimit="10"/>
<path d="M25.4223 14.377H5.62622" stroke="white" stroke-width="2" stroke-miterlimit="10"/>
<path d="M4.58325 17.7246V15.4193" stroke="white" stroke-width="2" stroke-miterlimit="10"/>
<path d="M8.122 0H6.96704V14.377H8.122V0Z" fill="white"/>
<path d="M25.4223 0H7.54468V1.15496H25.4223V0Z" fill="white"/>
<path d="M4.58325 15.4193C4.58325 14.8435 5.05101 14.3763 5.62618 14.3763" stroke="white" stroke-width="2" stroke-miterlimit="10"/>
<path d="M35.713 4.57935H16.2871" stroke="white" stroke-width="2" stroke-miterlimit="10"/>
<path d="M15.2437 14.3769V5.6217" stroke="white" stroke-width="2" stroke-miterlimit="10"/>
<path d="M15.2437 5.6217C15.2437 5.04537 15.7114 4.57935 16.2872 4.57935" stroke="white" stroke-width="2" stroke-miterlimit="10"/>
<path d="M36.7554 14.3769V5.6217" stroke="white" stroke-width="2" stroke-miterlimit="10"/>
<path d="M36.7559 5.6217C36.7559 5.04537 36.2882 4.57935 35.7124 4.57935" stroke="white" stroke-width="2" stroke-miterlimit="10"/>
<path d="M5.16082 32.5709H4.00586V34.3126H5.16082V32.5709Z" fill="white"/>
<path d="M10.2414 32.5709H9.08643V34.3126H10.2414V32.5709Z" fill="white"/>
<path d="M10.2415 33.9998H4.00586V35.1547H10.2415V33.9998Z" fill="white"/>
<path d="M50.9995 18.6733V31.4074" stroke="white" stroke-width="2" stroke-miterlimit="10"/>
<path d="M25.4224 32.4492H49.9572" stroke="white" stroke-width="2" stroke-miterlimit="10"/>
<path d="M25.4224 17.6311H49.9572" stroke="white" stroke-width="2" stroke-miterlimit="10"/>
<path d="M49.957 32.4492C50.5328 32.4492 51 31.9832 51 31.4069" stroke="white" stroke-width="2" stroke-miterlimit="10"/>
<path d="M50.9995 18.6735C50.9995 18.0977 50.5323 17.6311 49.9565 17.6311" stroke="white" stroke-width="2" stroke-miterlimit="10"/>
<path d="M25.4224 14.377H46.3739" stroke="white" stroke-width="2" stroke-miterlimit="10"/>
<path d="M47.416 17.7246V15.4193" stroke="white" stroke-width="2" stroke-miterlimit="10"/>
<path d="M45.0324 0H43.8774V14.377H45.0324V0Z" fill="white"/>
<path d="M44.455 0H25.4224V1.15496H44.455V0Z" fill="white"/>
<path d="M47.4162 15.4193C47.4162 14.8435 46.949 14.3763 46.3733 14.3763" stroke="white" stroke-width="2" stroke-miterlimit="10"/>
<path d="M47.9936 32.5709H46.8386V34.3126H47.9936V32.5709Z" fill="white"/>
<path d="M42.913 32.5709H41.7581V34.3126H42.913V32.5709Z" fill="white"/>
<path d="M47.9937 33.9998H41.7581V35.1547H47.9937V33.9998Z" fill="white"/>
<path d="M17.0869 8.71654V7.41317C17.0869 6.83742 17.5541 6.37024 18.1293 6.37024H19.4332" stroke="white" stroke-miterlimit="10" stroke-linecap="round" stroke-linejoin="round"/>
</svg>
