<svg width="40" height="40" viewBox="0 0 40 40" fill="none" xmlns="http://www.w3.org/2000/svg">
<path d="M35.2892 19.0087H29.6221C30.1715 18.2382 30.4962 17.2969 30.4962 16.2805V4.71078C30.4962 2.1132 28.383 0 25.7854 0C25.2379 0 24.7941 0.443828 24.7941 0.991328C24.7941 1.53883 25.2379 1.98266 25.7854 1.98266C27.2898 1.98266 28.5135 3.20648 28.5135 4.71078V16.2805C28.5135 17.7848 27.2898 19.0087 25.7854 19.0087H14.2146C12.7109 19.0087 11.4875 17.7848 11.4875 16.2805V4.71078C11.4875 3.20648 12.7109 1.98266 14.2146 1.98266H19.6034C20.1509 1.98266 20.5948 1.53883 20.5948 0.991328C20.5948 0.443828 20.151 0 19.6034 0H14.2146C11.6177 0 9.50484 2.1132 9.50484 4.71078V16.2805C9.50484 17.2969 9.82938 18.2382 10.3787 19.0087H4.71078C2.1132 19.0087 0 21.1219 0 23.7195V35.2892C0 37.8868 2.1132 40 4.71078 40H16.2805C17.7913 40 19.1373 39.2844 19.9999 38.1751C20.8623 39.2843 22.208 40 23.7184 40H35.2892C37.8868 40 40 37.8868 40 35.2892V23.7195C40 21.1219 37.8868 19.0087 35.2892 19.0087ZM19.0087 35.2892C19.0087 36.7935 17.7848 38.0173 16.2805 38.0173H4.71078C3.20648 38.0173 1.98266 36.7935 1.98266 35.2892V23.7195C1.98266 22.2152 3.20648 20.9913 4.71078 20.9913H14.2146H16.2805C17.7848 20.9913 19.0087 22.2152 19.0087 23.7195V35.2892ZM38.0173 35.2892C38.0173 36.7935 36.7935 38.0173 35.2892 38.0173H23.7184C22.2147 38.0173 20.9913 36.7935 20.9913 35.2892V23.7195C20.9913 22.2152 22.2147 20.9913 23.7184 20.9913H25.7853H35.2891C36.7935 20.9913 38.0173 22.2152 38.0173 23.7195V35.2892H38.0173Z" fill="white"/>
<path d="M22.85 0H22.4535C21.906 0 21.4622 0.443828 21.4622 0.991328C21.4622 1.53883 21.906 1.98266 22.4535 1.98266H22.85C23.3975 1.98266 23.8414 1.53883 23.8414 0.991328C23.8414 0.443828 23.3975 0 22.85 0Z" fill="white"/>
<path d="M24.8558 15.1833L20.9233 5.08862C20.9208 5.0823 20.9176 5.07651 20.9151 5.07026C20.9083 5.05401 20.901 5.03792 20.8934 5.02206C20.8867 5.00776 20.8798 4.9937 20.8725 4.97995C20.865 4.96589 20.8568 4.95222 20.8486 4.93855C20.84 4.92409 20.8312 4.90956 20.8219 4.89573C20.8136 4.88323 20.8046 4.87128 20.7957 4.85917C20.7854 4.84542 20.7753 4.83151 20.7644 4.81831C20.7547 4.80651 20.7444 4.79534 20.7341 4.78394C20.723 4.77167 20.712 4.75933 20.7003 4.74769C20.6891 4.7362 20.677 4.72526 20.6649 4.7144C20.6533 4.70401 20.6419 4.69339 20.6299 4.68355C20.6169 4.67284 20.6033 4.66284 20.5897 4.65284C20.5773 4.6437 20.5651 4.63456 20.5524 4.62597C20.5387 4.61683 20.5245 4.60831 20.5104 4.59979C20.4964 4.59144 20.4824 4.58315 20.4681 4.57542C20.4546 4.56815 20.4408 4.56151 20.4268 4.55487C20.4105 4.54714 20.3943 4.53972 20.3776 4.53276C20.3716 4.53026 20.3659 4.52714 20.3598 4.52472C20.3522 4.52175 20.3444 4.51987 20.3368 4.51706C20.3197 4.51081 20.3025 4.50503 20.285 4.4998C20.2705 4.49542 20.256 4.49136 20.2415 4.48769C20.2249 4.48355 20.2083 4.47987 20.1914 4.47651C20.1759 4.47347 20.1604 4.47065 20.145 4.46839C20.1287 4.46605 20.1125 4.46409 20.0961 4.46245C20.0801 4.46089 20.0643 4.45956 20.0484 4.45878C20.0322 4.458 20.0159 4.45776 19.9995 4.45776C19.9836 4.45776 19.9677 4.458 19.9518 4.45878C19.9356 4.45956 19.9193 4.46097 19.9029 4.46253C19.887 4.46409 19.871 4.46589 19.8551 4.46831C19.8393 4.47065 19.8236 4.47347 19.8079 4.47667C19.7913 4.47995 19.775 4.48362 19.7586 4.48769C19.7439 4.49136 19.7292 4.49542 19.7147 4.49987C19.6972 4.50511 19.6801 4.51089 19.6629 4.51714C19.6553 4.51995 19.6476 4.52183 19.64 4.5248C19.6338 4.52714 19.6282 4.53026 19.6222 4.53284C19.6055 4.53972 19.5891 4.54722 19.5729 4.55495C19.559 4.56159 19.5451 4.56823 19.5316 4.5755C19.5172 4.58323 19.5033 4.59144 19.4893 4.59987C19.4751 4.60839 19.4609 4.6169 19.4472 4.62605C19.4346 4.63456 19.4222 4.6437 19.41 4.65292C19.3964 4.663 19.3828 4.67292 19.3698 4.68362C19.3578 4.69347 19.3463 4.70401 19.3348 4.71448C19.3227 4.7255 19.3105 4.73628 19.299 4.74776C19.2875 4.75933 19.2765 4.77167 19.2654 4.78394C19.2551 4.79534 19.2447 4.80651 19.2351 4.81847C19.2241 4.83167 19.214 4.8455 19.2038 4.85933C19.1949 4.87144 19.1858 4.88339 19.1776 4.89589C19.1683 4.9098 19.1596 4.92417 19.151 4.93862C19.1428 4.95237 19.1345 4.96612 19.127 4.98019C19.1197 4.99394 19.1129 5.00808 19.1061 5.02222C19.0984 5.03815 19.0912 5.05417 19.0843 5.0705C19.0818 5.07675 19.0786 5.08253 19.0761 5.08886L15.1436 15.1835C14.9448 15.6937 15.1973 16.2683 15.7075 16.4671C15.8258 16.5132 15.9474 16.535 16.067 16.535C16.4636 16.535 16.8383 16.2953 16.9909 15.9032L17.9262 13.5022H22.0733L23.0086 15.9032C23.1612 16.2952 23.5358 16.535 23.9325 16.535C24.0522 16.535 24.1739 16.5132 24.292 16.4671C24.8021 16.2681 25.0546 15.6934 24.8558 15.1833ZM18.6988 11.5192L19.9999 8.17925L21.301 11.5192H18.6988Z" fill="white"/>
<path d="M13.1326 29.5057C13.1463 29.4925 13.1603 29.4799 13.1738 29.4664C13.838 28.8024 14.2037 27.9196 14.2037 26.9811C14.2037 25.0427 12.6268 23.4658 10.6885 23.4658H7.77893C7.23143 23.4658 6.7876 23.9096 6.7876 24.4571V29.505V34.5518C6.7876 35.0993 7.23143 35.5432 7.77893 35.5432H10.6885C11.6271 35.5432 12.5097 35.1775 13.173 34.5141C13.8377 33.8509 14.2037 32.968 14.2037 32.0279C14.2038 31.039 13.7924 30.1449 13.1326 29.5057ZM11.7719 33.1113C11.4822 33.401 11.0975 33.5604 10.6885 33.5604H8.77025V30.4962H10.6885C11.5335 30.4962 12.221 31.1833 12.221 32.0278C12.2211 32.4375 12.0619 32.822 11.7719 33.1113ZM11.7719 28.0645C11.4822 28.3542 11.0975 28.5136 10.6885 28.5136H8.77025V25.4485H10.6885C11.5335 25.4485 12.221 26.1361 12.221 26.9811C12.2211 27.39 12.0616 27.7748 11.7719 28.0645Z" fill="white"/>
<path d="M32.2876 30.7779C31.7401 30.7779 31.2963 31.2217 31.2963 31.7692C31.2963 32.7569 30.4927 33.5605 29.505 33.5605C28.5167 33.5605 27.7126 32.7569 27.7126 31.7692V27.2398C27.7126 26.2521 28.5167 25.4485 29.505 25.4485C30.4927 25.4485 31.2963 26.2521 31.2963 27.2398C31.2963 27.7873 31.7401 28.2311 32.2876 28.2311C32.8351 28.2311 33.279 27.7873 33.279 27.2398C33.279 25.1588 31.586 23.4658 29.505 23.4658C27.4234 23.4658 25.73 25.1588 25.73 27.2398V31.7692C25.73 33.8502 27.4235 35.5432 29.505 35.5432C31.586 35.5432 33.279 33.8502 33.279 31.7692C33.279 31.2216 32.8351 30.7779 32.2876 30.7779Z" fill="white"/>
</svg>
