<svg width="53" height="53" viewBox="0 0 53 53" fill="none" xmlns="http://www.w3.org/2000/svg">
<path d="M26.084 51.168C39.9375 51.168 51.168 39.9375 51.168 26.084C51.168 12.2305 39.9375 1 26.084 1C12.2305 1 1 12.2305 1 26.084C1 39.9375 12.2305 51.168 26.084 51.168Z" stroke="white" stroke-width="2" stroke-miterlimit="10"/>
<path d="M20.3579 17C21.6549 17 24.2949 17.84 24.2949 21.801C24.2949 23.529 23.5509 26.6 20.3579 26.6C17.1669 26.6 16.4219 23.529 16.4219 21.801C16.4229 17.84 19.0619 17 20.3579 17ZM20.3579 25.328C22.4469 25.328 22.7579 22.904 22.7579 21.801C22.7579 19.016 21.3189 18.273 20.3579 18.273C19.3979 18.273 17.9589 19.016 17.9589 21.801C17.9589 22.904 18.2699 25.328 20.3579 25.328ZM30.7269 17.192H32.4319L21.5349 33.992H19.8309L30.7269 17.192ZM31.8069 24.584C33.1039 24.584 35.7449 25.424 35.7449 29.385C35.7449 31.114 35.0009 34.186 31.8069 34.186C28.6159 34.186 27.8709 31.114 27.8709 29.385C27.8709 25.424 30.5119 24.584 31.8069 24.584ZM31.8069 32.912C33.8969 32.912 34.2069 30.488 34.2069 29.385C34.2069 26.6 32.7679 25.857 31.8069 25.857C30.8479 25.857 29.4069 26.6 29.4069 29.385C29.4069 30.488 29.7189 32.912 31.8069 32.912Z" fill="white"/>
</svg>
