<?xml version="1.0" encoding="utf-8"?><svg viewBox="0 0 50 33" xmlns="http://www.w3.org/2000/svg" xmlns:xlink="http://www.w3.org/1999/xlink"><style>:root>svg{display:none}:root>svg:target{display:block}</style><svg fill="none" viewBox="0 0 24 24" id="cart" xmlns="http://www.w3.org/2000/svg"><path d="M9 22a1 1 0 100-2 1 1 0 000 2zM20 22a1 1 0 100-2 1 1 0 000 2zM1 1h4l2.68 13.39a2 2 0 002 1.61h9.72a2 2 0 002-1.61L23 6H6" stroke="#2F2C35" stroke-width="2" stroke-linecap="round" stroke-linejoin="round"/></svg><svg fill="none" viewBox="0 0 50 33" id="googlepay" xmlns="http://www.w3.org/2000/svg"><g clip-path="url(#bclip0)"><rect y=".51" width="50" height="32" rx="3" fill="#5485EC"/><path d="M23.972 17.337v4.424h-1.404V10.837h3.722a3.365 3.365 0 012.41.946 3.04 3.04 0 011.006 2.305 3.028 3.028 0 01-1.006 2.319c-.65.62-1.454.93-2.41.93h-2.318zm0-5.155v3.813h2.353a1.853 1.853 0 001.388-.564 1.862 1.862 0 000-2.67 1.83 1.83 0 00-1.388-.58h-2.353v.001zM32.94 14.043c1.037 0 1.856.277 2.456.831.6.555.9 1.315.9 2.28v4.607h-1.343v-1.037h-.06c-.582.854-1.354 1.28-2.319 1.28-.823 0-1.512-.243-2.066-.731a2.337 2.337 0 01-.832-1.83c0-.774.292-1.39.877-1.846.584-.457 1.365-.685 2.341-.687.833 0 1.52.153 2.059.458v-.32a1.598 1.598 0 00-.58-1.243 1.987 1.987 0 00-1.354-.511c-.784 0-1.404.33-1.861.991l-1.236-.778c.68-.976 1.686-1.464 3.018-1.464zm-1.815 5.43a1.12 1.12 0 00.465.915c.31.244.696.373 1.09.366a2.238 2.238 0 001.579-.655c.465-.438.697-.951.697-1.54-.437-.35-1.048-.523-1.83-.523-.57 0-1.045.137-1.426.412-.384.279-.575.618-.575 1.025zM44 14.287l-4.686 10.768h-1.448l1.738-3.768-3.08-7h1.525l2.227 5.369h.03l2.166-5.37H44zM18.301 16.384c0-.428-.035-.855-.108-1.276h-5.918v2.417h3.39a2.904 2.904 0 01-1.253 1.907V21h2.022c1.185-1.093 1.867-2.707 1.867-4.617z" fill="#fff"/><path d="M12.275 22.516c1.693 0 3.12-.556 4.159-1.514l-2.023-1.57c-.563.383-1.288.6-2.136.6-1.637 0-3.026-1.103-3.523-2.59H6.668v1.617a6.276 6.276 0 005.607 3.457z" fill="#fff"/><path d="M8.752 17.442a3.76 3.76 0 010-2.402v-1.617H6.668a6.276 6.276 0 000 5.636l2.084-1.617z" fill="#fff"/><path d="M12.275 12.45a3.407 3.407 0 012.407.941l1.791-1.791a6.03 6.03 0 00-4.198-1.634 6.275 6.275 0 00-5.607 3.457l2.084 1.617c.497-1.487 1.886-2.59 3.523-2.59z" fill="#fff"/></g><defs><clipPath id="bclip0"><path fill="#fff" transform="translate(0 .51)" d="M0 0h50v32H0z"/></clipPath></defs></svg><svg fill="none" viewBox="0 0 50 33" id="mastercard" xmlns="http://www.w3.org/2000/svg"><g clip-path="url(#cclip0)"><rect y=".51" width="50" height="32" rx="3" fill="#0F3560"/><path d="M29.363 24.375h-8.749V8.65h8.75v15.724z" fill="#FF5F00"/><path d="M21.175 16.512c0-3.19 1.493-6.031 3.819-7.862a9.956 9.956 0 00-6.18-2.138c-5.522 0-9.999 4.477-9.999 10s4.477 10 10 10c2.332 0 4.478-.8 6.179-2.138a9.983 9.983 0 01-3.82-7.862z" fill="#EB001B"/><path d="M41.163 16.512c0 5.523-4.476 10-9.998 10-2.333 0-4.48-.8-6.18-2.138a9.982 9.982 0 003.82-7.862c0-3.19-1.494-6.031-3.82-7.862a9.959 9.959 0 016.18-2.138c5.522 0 9.998 4.477 9.998 10z" fill="#F79E1B"/><path d="M16.34 16.575c0-.437.286-.795.754-.795.447 0 .748.343.748.795s-.301.796-.748.796c-.468 0-.754-.36-.754-.796zm2.012 0v-1.242h-.54v.301c-.172-.223-.432-.364-.785-.364-.697 0-1.244.546-1.244 1.305 0 .76.547 1.305 1.244 1.305.353 0 .613-.14.784-.364v.302h.54v-1.243zm18.26 0c0-.437.286-.795.754-.795.447 0 .748.343.748.795s-.3.796-.748.796c-.468 0-.754-.36-.754-.796zm2.012 0v-2.24h-.54v1.3c-.172-.224-.432-.365-.786-.365-.697 0-1.243.546-1.243 1.305 0 .76.547 1.305 1.243 1.305.354 0 .614-.14.785-.364v.302h.541v-1.243zm-13.565-.821c.348 0 .572.218.63.603h-1.29c.057-.36.275-.603.66-.603zm.01-.484c-.728 0-1.237.53-1.237 1.305 0 .79.53 1.305 1.274 1.305.374 0 .717-.093 1.019-.348l-.265-.4c-.208.165-.474.26-.723.26-.348 0-.665-.162-.743-.61h1.845c.005-.067.01-.134.01-.207-.005-.775-.483-1.305-1.18-1.305zm6.525 1.305c0-.437.287-.795.754-.795.447 0 .749.343.749.795s-.302.796-.749.796c-.467 0-.754-.36-.754-.796zm2.012 0v-1.242h-.54v.301c-.172-.223-.431-.364-.785-.364-.697 0-1.243.546-1.243 1.305 0 .76.546 1.305 1.243 1.305.354 0 .613-.14.785-.364v.302h.54v-1.243zm-5.063 0c0 .754.525 1.305 1.326 1.305.374 0 .623-.083.893-.296l-.259-.437a1.092 1.092 0 01-.65.224c-.432-.006-.75-.317-.75-.796 0-.478.318-.79.75-.795.234 0 .447.077.65.223l.26-.437c-.27-.213-.52-.296-.894-.296-.801 0-1.326.551-1.326 1.305zm6.967-1.305a.734.734 0 00-.656.364v-.302h-.535v2.486h.54v-1.394c0-.41.177-.64.53-.64.11 0 .225.016.339.063l.166-.51a1.15 1.15 0 00-.384-.067zm-14.486.26c-.26-.171-.618-.26-1.013-.26-.63 0-1.035.302-1.035.796 0 .405.302.655.858.733l.255.036c.296.042.436.12.436.26 0 .192-.197.302-.566.302-.375 0-.645-.12-.827-.26l-.255.42c.297.219.671.323 1.076.323.718 0 1.134-.338 1.134-.811 0-.437-.327-.665-.868-.743l-.255-.037c-.234-.031-.421-.078-.421-.244 0-.182.176-.291.473-.291.317 0 .624.12.775.213l.233-.437zm6.973-.26a.732.732 0 00-.655.364v-.302h-.536v2.486h.54v-1.394c0-.41.177-.64.53-.64.11 0 .225.016.339.063l.166-.51a1.15 1.15 0 00-.384-.067zm-4.612.063h-.884v-.754h-.546v.753h-.504v.494h.504v1.134c0 .577.224.92.863.92.234 0 .505-.072.676-.192l-.156-.463a1 1 0 01-.478.14c-.27 0-.359-.166-.359-.416v-1.123h.884v-.494zm-8.08 2.485v-1.56c0-.587-.374-.983-.977-.988-.317-.005-.645.094-.874.442-.171-.275-.441-.442-.821-.442-.265 0-.525.078-.728.369v-.306h-.54v2.485h.545V16.44c0-.431.24-.66.609-.66.359 0 .54.233.54.655v1.383h.546V16.44c0-.431.25-.66.609-.66.368 0 .545.233.545.655v1.383h.547z" fill="#fff"/></g><defs><clipPath id="cclip0"><path fill="#fff" transform="translate(0 .51)" d="M0 0h50v32H0z"/></clipPath></defs></svg><svg fill="none" viewBox="0 0 50 33" id="visa" xmlns="http://www.w3.org/2000/svg"><g clip-path="url(#dclip0)"><rect y=".51" width="50" height="32" rx="3" fill="#00579F"/><path d="M22.467 22.046h-3.078l1.925-11.036h3.078l-1.925 11.036zM33.626 11.28a8.113 8.113 0 00-2.761-.47c-3.04 0-5.181 1.503-5.194 3.651-.025 1.585 1.533 2.466 2.698 2.994 1.19.54 1.596.893 1.596 1.374-.013.74-.963 1.08-1.85 1.08-1.228 0-1.887-.176-2.887-.587l-.406-.176-.43 2.477c.722.305 2.052.575 3.433.587 3.23 0 5.332-1.48 5.357-3.768.013-1.257-.81-2.22-2.584-3.006-1.076-.505-1.735-.845-1.735-1.362.012-.47.557-.95 1.773-.95 1-.024 1.735.199 2.293.422l.278.117.419-2.383zM37.717 18.136l1.229-3.087c-.013.023.253-.646.405-1.057l.215.951s.583 2.641.71 3.193h-2.56zm3.8-7.126h-2.382c-.734 0-1.292.2-1.608.916l-4.573 10.12h3.23l.646-1.656h3.952c.089.388.368 1.656.368 1.656H44L41.516 11.01zM16.817 11.01l-3.015 7.525-.33-1.526c-.557-1.76-2.305-3.674-4.255-4.626l2.761 9.651h3.255l4.839-11.024h-3.255z" fill="#fff"/><path d="M11.003 11.01H6.051L6 11.233c3.863.916 6.422 3.123 7.473 5.777l-1.076-5.072c-.178-.705-.722-.905-1.394-.928z" fill="#FAA61A"/></g><defs><clipPath id="dclip0"><path fill="#fff" transform="translate(0 .51)" d="M0 0h50v32H0z"/></clipPath></defs></svg><svg fill="none" viewBox="0 0 50 33" id="webmoney" xmlns="http://www.w3.org/2000/svg"><g clip-path="url(#eclip0)"><rect y=".51" width="50" height="32" rx="3" fill="#036CB5"/><path d="M25.058 5.51c1.073 0 2.093.244 3.01.68.143.065.287.142.43.22l-.627.552-.942-.964-1.622 1.413-.955-1.015-2.983 2.634 1.91 2.068-.746.641 1.884 2.068-.745.642 2.695 2.942 1.595-1.439 1.388 1.542a7.754 7.754 0 01-.903.59 6.936 6.936 0 01-3.376.873c-3.781 0-6.855-3.017-6.855-6.729-.014-3.686 3.061-6.718 6.842-6.718zm-1.256 6.307l1.635-1.439 1.466 1.606-1.636 1.438-1.465-1.605zm1.165 2.774l1.622-1.451 1.478 1.605-1.635 1.439-1.465-1.593zm-2.329-5.51l1.635-1.439 1.465 1.606-1.635 1.439-1.465-1.606zm2.996-.77l1.216-1.08 1.1 1.195-1.217 1.091-1.1-1.207zm2.172 4.944l1.216-1.079 1.1 1.207-1.218 1.08-1.098-1.208zm1.072 2.428l1.217-1.08 1.099 1.195-1.217 1.092-1.099-1.207zm.498-5.549l.81-.72.733.797-.81.72-.733-.797zm-1.047-2.376l.811-.732.733.809-.812.72-.732-.797zm2.08 4.752l.811-.719.746.796-.824.72-.733-.797zm-3.65-1.785l1.217-1.079 1.099 1.194-1.217 1.08-1.099-1.195zM14.38 23.742h-.039l-.714 2.713h-.584l-.876-3.854h.606l.605 2.876h.038l.703-2.876h.482l.751 2.876h.038l.552-2.876h.633l-.877 3.854h-.584l-.735-2.713zM17.343 24.814h1.239c-.027-.57-.303-.799-.595-.799-.33 0-.584.256-.644.8zm1.671 1.022v.414a1.9 1.9 0 01-.957.25c-.909 0-1.282-.566-1.282-1.424 0-.827.417-1.425 1.228-1.425.676 0 1.093.44 1.093 1.326v.202h-1.764c0 .652.265.94.823.94.292 0 .562-.104.86-.283zM20.354 26.064c.173.076.363.087.498.087.4 0 .703-.25.703-1.13 0-.69-.25-.914-.611-.914-.217 0-.374.06-.59.18v1.777zm.006-2.18c.162-.086.437-.2.73-.2.67 0 1.032.467 1.032 1.336 0 1.017-.486 1.512-1.27 1.512-.287 0-.73-.093-1.055-.267V22.47l.563-.136v1.55zM24.556 25.637h.027l1.158-3.038h.67v3.854h-.584v-2.794h-.048l-1.104 2.794h-.346l-1.103-2.729h-.049v2.729h-.487v-3.854h.655l1.211 3.038zM28.798 25.075c0-.733-.297-1.043-.665-1.043-.356 0-.665.31-.665 1.043 0 .745.282 1.044.665 1.044.384 0 .665-.299.665-1.044zm-1.898 0c0-.951.52-1.424 1.233-1.424.715 0 1.234.473 1.234 1.424 0 .93-.492 1.425-1.234 1.425-.74 0-1.233-.495-1.233-1.425zM29.794 24.054c.243-.147.757-.403 1.38-.403.648 0 .891.256.891.815v1.968h-.562v-1.842c0-.43-.21-.506-.487-.506-.216 0-.492.098-.66.196v2.152h-.562v-2.38zM33.255 24.814h1.239c-.027-.57-.303-.799-.595-.799-.33 0-.584.256-.644.8zm1.671 1.022v.414a1.9 1.9 0 01-.957.25c-.908 0-1.282-.566-1.282-1.424 0-.827.417-1.425 1.228-1.425.676 0 1.093.44 1.093 1.326v.202h-1.763c0 .652.265.94.822.94.291 0 .562-.104.86-.283zM37.255 23.651h.58l-.98 2.718c-.27.75-.6 1.141-1.222 1.141v-.445c.368 0 .595-.294.725-.696l-1.039-2.718h.595l.693 2h.032l.616-2z" fill="#fff"/></g><defs><clipPath id="eclip0"><path fill="#fff" transform="translate(0 .51)" d="M0 0h50v32H0z"/></clipPath></defs></svg><svg fill="none" viewBox="0 0 50 33" id="yandex.money" xmlns="http://www.w3.org/2000/svg"><g clip-path="url(#fclip0)"><rect y=".51" width="50" height="32" rx="3" fill="#F7C700"/><path d="M6.927 16.73l-1.114 2.502H5l1.224-2.676a1.737 1.737 0 01-.694-.644c-.177-.283-.265-.668-.265-1.155 0-.341.05-.64.15-.9a1.686 1.686 0 011.019-1.027c.234-.086.481-.13.73-.128h1.05v6.53h-.702v-2.503h-.585zm.585-3.443h-.375c-.14 0-.277.026-.41.078a.941.941 0 00-.357.247 1.263 1.263 0 00-.251.449 2.146 2.146 0 00-.096.692c0 .262.029.482.087.66.058.176.137.32.237.43.1.11.22.188.356.234.14.046.287.069.434.068h.375v-2.858zm4.09 1.342v4.603H10.9v-2.064H9.84v2.064h-.712v-4.603h.712v1.954h1.06V14.63h.703zm3.663 5.507h-.64v-.904h-1.972v.904h-.64v-1.489h.284c.103-.243.185-.512.246-.808.061-.295.108-.6.142-.913.033-.314.055-.633.064-.959.01-.326.014-.64.014-.946v-.392H14.9v4.018h.365v1.489zm-1.069-4.923h-.794v.082c0 .243-.005.51-.014.797-.01.294-.03.587-.06.88-.03.294-.072.587-.127.878-.05.273-.127.54-.229.797h1.225v-3.434zm4.165 3.708c-.151.119-.32.211-.502.274-.189.067-.4.1-.63.1-.476 0-.85-.183-1.124-.552-.274-.368-.41-.909-.41-1.621 0-.371.025-.712.077-1.023.052-.31.134-.58.246-.808a1.41 1.41 0 01.434-.534c.177-.128.387-.192.63-.192.189 0 .363.038.521.114a.99.99 0 01.402.37c.11.17.194.391.256.662.06.271.09.601.09.991v.392h-1.917c0 .524.071.92.215 1.188.143.268.357.402.643.402.201 0 .38-.035.535-.105.155-.07.278-.139.37-.206l.164.548zm-1.279-3.771c-.219 0-.374.123-.465.37-.092.246-.15.576-.174.99h1.178c0-.195-.009-.376-.027-.543a2.198 2.198 0 00-.087-.434.672.672 0 00-.164-.283.36.36 0 00-.26-.1zm2.712 1.79v2.292h-.711v-4.603h.712v2.128l1.105-2.128h.721l-1.141 2.164 1.306 2.439h-.776l-1.215-2.293zm3.663 2.355c-.494 0-.88-.196-1.16-.589-.28-.392-.42-.984-.42-1.776 0-.359.035-.684.105-.977.07-.292.173-.54.31-.744.13-.197.305-.36.512-.475a1.44 1.44 0 01.708-.169c.206 0 .374.023.502.069a1.7 1.7 0 01.347.168l-.1.676a1.559 1.559 0 00-.343-.23.914.914 0 00-.416-.098c-.255 0-.465.143-.63.431-.164.288-.246.725-.246 1.313 0 .581.069 1.03.205 1.344.137.316.352.473.644.473.176 0 .33-.03.457-.09.128-.059.234-.127.32-.202l.164.53c-.124.104-.262.189-.411.25a1.413 1.413 0 01-.548.096zM29.256 19.232H26.46l-.064 1.087h-.356v-1.453h.192c.158-.134.28-.371.365-.713.085-.341.152-.747.201-1.216.049-.488.082-1.087.1-1.798.019-.71.034-1.523.046-2.437h2.283v6.164h.448v1.453h-.357l-.063-1.087zm-.484-6.165h-1.416a95.78 95.78 0 01-.055 2.204 45.731 45.731 0 01-.09 1.662 8.749 8.749 0 01-.179 1.224c-.076.32-.175.557-.297.71h2.037v-5.8zm1.78 3.936c.012.636.1 1.121.265 1.455.165.333.414.5.75.5.151 0 .285-.025.4-.075a1.12 1.12 0 00.293-.177c.092-.067.17-.151.238-.25l.137.346a1.098 1.098 0 01-.265.265 1.32 1.32 0 01-.813.256c-.487 0-.846-.21-1.078-.63-.23-.42-.346-1.008-.346-1.763 0-.377.033-.714.1-1.009.067-.295.16-.546.278-.753a1.34 1.34 0 01.425-.47.973.973 0 01.539-.16c.2 0 .38.051.538.155.159.104.29.258.393.466.104.207.177.464.22.771.042.308.045.666.009 1.073h-2.082zm.923-2.1c-.244 0-.452.15-.626.45-.173.3-.27.737-.288 1.313h1.672c.037-.613-.023-1.059-.178-1.34-.155-.282-.349-.423-.58-.423zm3.972 2.128h-1.57v2.2h-.43V14.63h.43v2.037h1.57v-2.037h.43v4.603h-.43V17.03zm1.443-2.402h.43v1.708h.337c.438 0 .789.119 1.05.356.262.237.393.597.393 1.077 0 .488-.137.853-.411 1.096-.274.244-.627.366-1.06.366h-.74v-4.603zm.43 2.045v2.22h.273c.323 0 .584-.087.786-.26.2-.174.301-.459.301-.855 0-.39-.091-.67-.274-.844-.182-.174-.438-.26-.767-.26h-.32zm2.94-1.68v4.238h-.42v-4.603h1.945v.365H40.26zm4.329 1.032a5.37 5.37 0 01.036-.63h-.027c-.03.104-.067.202-.11.297-.042.094-.088.193-.137.297l-1.497 3.242h-.366v-4.603h.402v3.196c0 .217-.011.434-.036.649h.027c.03-.104.067-.206.11-.306.042-.1.088-.203.136-.306l1.498-3.233H45v4.603h-.411v-3.206z" fill="#000"/></g><defs><clipPath id="fclip0"><path fill="#fff" transform="translate(0 .51)" d="M0 0h50v32H0z"/></clipPath></defs></svg><svg fill="none" viewBox="0 0 28 28" id="zoom" xmlns="http://www.w3.org/2000/svg"><path d="M13 4.5a8.5 8.5 0 016.676 13.762l4.531 4.53a1 1 0 01-1.414 1.415l-4.53-4.531A8.5 8.5 0 1113 4.5zm0 2a6.5 6.5 0 100 13 6.5 6.5 0 000-13z" fill="#fff"/></svg></svg>